G04*
G04 #@! TF.GenerationSoftware,Altium Limited,Altium Designer,20.2.6 (244)*
G04*
G04 Layer_Color=32896*
%FSLAX25Y25*%
%MOIN*%
G70*
G04*
G04 #@! TF.SameCoordinates,A6CCB582-D0B6-45E9-A08F-E2BB43E87EEB*
G04*
G04*
G04 #@! TF.FilePolarity,Positive*
G04*
G01*
G75*
%ADD10C,0.00787*%
%ADD11C,0.01000*%
%ADD12C,0.00600*%
%ADD13C,0.00394*%
%ADD50C,0.00984*%
%ADD51C,0.00591*%
D10*
X592441Y453854D02*
G03*
X592441Y453067I0J-394D01*
G01*
D02*
G03*
X592441Y453854I0J394D01*
G01*
X614417Y424921D02*
G03*
X614811Y424921I197J0D01*
G01*
D02*
G03*
X614417Y424921I-197J0D01*
G01*
D02*
G03*
X614811Y424921I197J0D01*
G01*
X588957Y405461D02*
X596004D01*
Y392587D02*
Y405461D01*
X588957Y392587D02*
X596004D01*
X588957D02*
Y405461D01*
X597457Y392587D02*
X604504D01*
X597457D02*
Y405461D01*
X604504D01*
Y392587D02*
Y405461D01*
X605996Y405413D02*
X613043D01*
Y392539D02*
Y405413D01*
X605996Y392539D02*
X613043D01*
X605996D02*
Y405413D01*
X554291Y334941D02*
X557638D01*
X554291D02*
Y339075D01*
X562362Y334941D02*
X565709D01*
Y339075D01*
X604457Y431087D02*
Y443961D01*
Y431087D02*
X611504D01*
Y443961D01*
X604457D02*
X611504D01*
X579209Y372319D02*
Y374681D01*
X567791D02*
X579209D01*
X567791Y372319D02*
Y374681D01*
Y372319D02*
X579209D01*
X579406Y366217D02*
Y370941D01*
X581087Y374996D02*
Y382043D01*
X593961D01*
Y374996D02*
Y382043D01*
X581087Y374996D02*
X593961D01*
Y365996D02*
Y373043D01*
X581087Y365996D02*
X593961D01*
X581087D02*
Y373043D01*
X593961D01*
X594087Y356496D02*
Y363543D01*
X606961D01*
Y356496D02*
Y363543D01*
X594087Y356496D02*
X606961D01*
X553744Y347378D02*
Y368547D01*
X543256Y348453D02*
Y368547D01*
X565319Y357307D02*
X567681D01*
X565319Y345693D02*
Y357307D01*
Y345693D02*
X567681D01*
Y357307D01*
X569059Y357406D02*
X573783D01*
X555154Y329461D02*
X561846D01*
X555154Y324539D02*
X561846D01*
X565996Y295039D02*
X573043D01*
X565996D02*
Y307913D01*
X573043D01*
Y295039D02*
Y307913D01*
X565996Y322913D02*
X573043D01*
Y310039D02*
Y322913D01*
X565996Y310039D02*
X573043D01*
X565996D02*
Y322913D01*
X536138Y298138D02*
X549130D01*
Y302862D01*
X536138D02*
X549130D01*
X536138Y298138D02*
Y302862D01*
X597756Y297953D02*
Y319122D01*
X608244Y297953D02*
Y318047D01*
X578941Y316303D02*
Y316697D01*
X584059Y316303D02*
Y316697D01*
X583803Y296941D02*
X584197D01*
X583803Y302059D02*
X584197D01*
X542496Y322413D02*
X549543D01*
Y309539D02*
Y322413D01*
X542496Y309539D02*
X549543D01*
X542496D02*
Y322413D01*
X608516Y378602D02*
X610484D01*
X608516Y366398D02*
X610484D01*
Y378602D01*
X608516Y366398D02*
Y378602D01*
X559425Y378709D02*
X563559D01*
Y375362D02*
Y378709D01*
X559425Y367291D02*
X563559D01*
Y370638D01*
D11*
X560000Y416180D02*
G03*
X572032Y416206I6000J7566D01*
G01*
X572000Y443746D02*
G03*
X560000Y437746I-2500J-10000D01*
G01*
X559967Y437493D02*
G03*
X572000Y443746I1533J11754D01*
G01*
Y416246D02*
Y443746D01*
X560000Y416246D02*
Y437493D01*
X564500Y390000D02*
Y402500D01*
X532000Y352500D02*
X534624D01*
X535936Y353812D01*
X534624Y355124D01*
X532000D01*
X533968D01*
Y352500D01*
X532000Y356436D02*
X532656D01*
Y357092D01*
X532000D01*
Y356436D01*
X535280Y362339D02*
X535936Y361683D01*
Y360371D01*
X535280Y359716D01*
X532656D01*
X532000Y360371D01*
Y361683D01*
X532656Y362339D01*
X532000Y363651D02*
X532656D01*
Y364307D01*
X532000D01*
Y363651D01*
X535280Y373491D02*
X535936Y372835D01*
Y371523D01*
X535280Y370867D01*
X532656D01*
X532000Y371523D01*
Y372835D01*
X532656Y373491D01*
X533968D01*
Y372179D01*
X532000Y374802D02*
X532656D01*
Y375459D01*
X532000D01*
Y374802D01*
X535280Y380706D02*
X535936Y380050D01*
Y378738D01*
X535280Y378082D01*
X532656D01*
X532000Y378738D01*
Y380050D01*
X532656Y380706D01*
X533968D01*
Y379394D01*
X532000Y382018D02*
X532656D01*
Y382674D01*
X532000D01*
Y382018D01*
X535936Y391857D02*
Y390546D01*
Y391201D01*
X532656D01*
X532000Y390546D01*
Y389890D01*
X532656Y389234D01*
X532000Y393169D02*
X532656D01*
Y393825D01*
X532000D01*
Y393169D01*
X535936Y399073D02*
Y397761D01*
Y398417D01*
X532656D01*
X532000Y397761D01*
Y397105D01*
X532656Y396449D01*
X532000Y400385D02*
X532656D01*
Y401041D01*
X532000D01*
Y400385D01*
Y407600D02*
X535936D01*
X534624Y408912D01*
X535936Y410224D01*
X532000D01*
Y411536D02*
X532656D01*
Y412192D01*
X532000D01*
Y411536D01*
X535936Y414816D02*
X532000D01*
Y417440D01*
Y418752D02*
X535936D01*
Y420719D01*
X535280Y421375D01*
X533968D01*
X533312Y420719D01*
Y418752D01*
Y420063D02*
X532000Y421375D01*
Y426623D02*
X535936D01*
Y428591D01*
X535280Y429247D01*
X533968D01*
X533312Y428591D01*
Y426623D01*
Y427935D02*
X532000Y429247D01*
Y430559D02*
X532656D01*
Y431215D01*
X532000D01*
Y430559D01*
Y433839D02*
X535936D01*
X534624Y435150D01*
X535936Y436462D01*
X532000D01*
Y437774D02*
X532656D01*
Y438430D01*
X532000D01*
Y437774D01*
Y446958D02*
X533968Y444990D01*
X535936Y446958D01*
X535280Y448926D02*
X535936Y449582D01*
Y450893D01*
X535280Y451549D01*
X534624D01*
X533968Y450893D01*
Y450238D01*
Y450893D01*
X533312Y451549D01*
X532656D01*
X532000Y450893D01*
Y449582D01*
X532656Y448926D01*
X590876Y465936D02*
X592188D01*
X591532D01*
Y462656D01*
X592188Y462000D01*
X592844D01*
X593500Y462656D01*
X589564Y465936D02*
Y462000D01*
X586940D01*
X583005Y465280D02*
X583661Y465936D01*
X584973D01*
X585629Y465280D01*
Y462656D01*
X584973Y462000D01*
X583661D01*
X583005Y462656D01*
X579069Y465936D02*
X580381D01*
X579725D01*
Y462656D01*
X580381Y462000D01*
X581037D01*
X581693Y462656D01*
X577757Y465936D02*
Y462000D01*
X575133D01*
X571198Y465280D02*
X571853Y465936D01*
X573165D01*
X573821Y465280D01*
Y462656D01*
X573165Y462000D01*
X571853D01*
X571198Y462656D01*
X567262Y465936D02*
X568574D01*
X567918D01*
Y462656D01*
X568574Y462000D01*
X569230D01*
X569886Y462656D01*
X565950Y465936D02*
Y462000D01*
X563326D01*
X559390Y465280D02*
X560046Y465936D01*
X561358D01*
X562014Y465280D01*
Y462656D01*
X561358Y462000D01*
X560046D01*
X559390Y462656D01*
X555454Y465936D02*
X556766D01*
X556110D01*
Y462656D01*
X556766Y462000D01*
X557422D01*
X558078Y462656D01*
X554143Y465936D02*
Y462000D01*
X551519D01*
X547583Y465280D02*
X548239Y465936D01*
X549551D01*
X550207Y465280D01*
Y462656D01*
X549551Y462000D01*
X548239D01*
X547583Y462656D01*
X622812Y331624D02*
Y329000D01*
X625436Y331624D01*
X626092D01*
X626748Y330968D01*
Y329656D01*
X626092Y329000D01*
Y332936D02*
X626748Y333592D01*
Y334904D01*
X626092Y335560D01*
X623468D01*
X622812Y334904D01*
Y333592D01*
X623468Y332936D01*
X626092D01*
X622812Y339495D02*
Y336872D01*
X625436Y339495D01*
X626092D01*
X626748Y338839D01*
Y337527D01*
X626092Y336872D01*
X622812Y343431D02*
Y340807D01*
X625436Y343431D01*
X626092D01*
X626748Y342775D01*
Y341463D01*
X626092Y340807D01*
X624780Y344743D02*
Y347367D01*
X622812Y351303D02*
Y348679D01*
X625436Y351303D01*
X626092D01*
X626748Y350647D01*
Y349335D01*
X626092Y348679D01*
Y352614D02*
X626748Y353270D01*
Y354582D01*
X626092Y355238D01*
X625436D01*
X624780Y354582D01*
Y353926D01*
Y354582D01*
X624124Y355238D01*
X623468D01*
X622812Y354582D01*
Y353270D01*
X623468Y352614D01*
X622812Y356550D02*
X625436Y359174D01*
X626748Y363110D02*
Y360486D01*
X622812D01*
Y363110D01*
X624780Y360486D02*
Y361798D01*
X626092Y367045D02*
X626748Y366389D01*
Y365078D01*
X626092Y364422D01*
X625436D01*
X624780Y365078D01*
Y366389D01*
X624124Y367045D01*
X623468D01*
X622812Y366389D01*
Y365078D01*
X623468Y364422D01*
X626748Y370981D02*
Y368357D01*
X622812D01*
Y370981D01*
X624780Y368357D02*
Y369669D01*
X626748Y374261D02*
Y372949D01*
X626092Y372293D01*
X623468D01*
X622812Y372949D01*
Y374261D01*
X623468Y374917D01*
X626092D01*
X626748Y374261D01*
X622812Y376229D02*
X625436Y378853D01*
X622812Y380165D02*
X626748D01*
X625436Y381476D01*
X626748Y382788D01*
X622812D01*
Y384756D02*
Y386068D01*
X623468Y386724D01*
X624780D01*
X625436Y386068D01*
Y384756D01*
X624780Y384100D01*
X623468D01*
X622812Y384756D01*
Y388036D02*
Y389348D01*
Y388692D01*
X626748D01*
Y388036D01*
X622812Y391316D02*
X626748D01*
X624124D02*
X625436Y393284D01*
X624124Y391316D02*
X622812Y393284D01*
Y395252D02*
X626748D01*
X624124D02*
X625436Y397219D01*
X624124Y395252D02*
X622812Y397219D01*
X625436Y399187D02*
X623468D01*
X622812Y399843D01*
Y401811D01*
X622156D01*
X621500Y401155D01*
Y400499D01*
X622812Y401811D02*
X625436D01*
Y409683D02*
Y407715D01*
X624780Y407059D01*
X623468D01*
X622812Y407715D01*
Y409683D01*
Y411651D02*
Y412962D01*
X623468Y413618D01*
X624780D01*
X625436Y412962D01*
Y411651D01*
X624780Y410995D01*
X623468D01*
X622812Y411651D01*
Y414930D02*
X625436D01*
Y416898D01*
X624780Y417554D01*
X622812D01*
Y418866D02*
X625436D01*
Y420834D01*
X624780Y421490D01*
X622812D01*
Y424770D02*
Y423458D01*
X623468Y422802D01*
X624780D01*
X625436Y423458D01*
Y424770D01*
X624780Y425426D01*
X624124D01*
Y422802D01*
X625436Y429361D02*
Y427393D01*
X624780Y426737D01*
X623468D01*
X622812Y427393D01*
Y429361D01*
X626092Y431329D02*
X625436D01*
Y430673D01*
Y431985D01*
Y431329D01*
X623468D01*
X622812Y431985D01*
Y435921D02*
Y434609D01*
X623468Y433953D01*
X624780D01*
X625436Y434609D01*
Y435921D01*
X624780Y436577D01*
X624124D01*
Y433953D01*
X622812Y437889D02*
X625436Y440513D01*
X626748Y441824D02*
X624124D01*
X622812Y443136D01*
X624124Y444448D01*
X626748D01*
X622812Y445760D02*
Y447072D01*
Y446416D01*
X626748D01*
X626092Y445760D01*
X592532Y296720D02*
X596468D01*
Y298688D01*
X595812Y299344D01*
X594500D01*
X593844Y298688D01*
Y296720D01*
Y298032D02*
X592532Y299344D01*
Y302624D02*
X596468D01*
X594500Y300656D01*
Y303280D01*
X593280Y318532D02*
Y322468D01*
X591312D01*
X590656Y321812D01*
Y320500D01*
X591312Y319844D01*
X593280D01*
X591968D02*
X590656Y318532D01*
X589344Y321812D02*
X588688Y322468D01*
X587376D01*
X586720Y321812D01*
Y321156D01*
X587376Y320500D01*
X588032D01*
X587376D01*
X586720Y319844D01*
Y319188D01*
X587376Y318532D01*
X588688D01*
X589344Y319188D01*
X541032Y371580D02*
X544968D01*
Y373548D01*
X544312Y374204D01*
X543000D01*
X542344Y373548D01*
Y371580D01*
Y372892D02*
X541032Y374204D01*
Y375516D02*
Y376828D01*
Y376172D01*
X544968D01*
X544312Y375516D01*
Y378796D02*
X544968Y379452D01*
Y380764D01*
X544312Y381420D01*
X541688D01*
X541032Y380764D01*
Y379452D01*
X541688Y378796D01*
X544312D01*
X587280Y400032D02*
Y403968D01*
X585312D01*
X584656Y403312D01*
Y402000D01*
X585312Y401344D01*
X587280D01*
X585968D02*
X584656Y400032D01*
X583344Y403312D02*
X582688Y403968D01*
X581376D01*
X580720Y403312D01*
Y402656D01*
X581376Y402000D01*
X580720Y401344D01*
Y400688D01*
X581376Y400032D01*
X582688D01*
X583344Y400688D01*
Y401344D01*
X582688Y402000D01*
X583344Y402656D01*
Y403312D01*
X582688Y402000D02*
X581376D01*
X551624Y304032D02*
Y307968D01*
X549656D01*
X549000Y307312D01*
Y306000D01*
X549656Y305344D01*
X551624D01*
X550312D02*
X549000Y304032D01*
X547688D02*
X546376D01*
X547032D01*
Y307968D01*
X547688Y307312D01*
X613968Y389280D02*
X610032D01*
Y387312D01*
X610688Y386656D01*
X612000D01*
X612656Y387312D01*
Y389280D01*
Y387968D02*
X613968Y386656D01*
X610032Y382720D02*
Y385344D01*
X612000D01*
X611344Y384032D01*
Y383376D01*
X612000Y382720D01*
X613312D01*
X613968Y383376D01*
Y384688D01*
X613312Y385344D01*
X600780Y346532D02*
Y350468D01*
X598812D01*
X598156Y349812D01*
Y348500D01*
X598812Y347844D01*
X600780D01*
X599468D02*
X598156Y346532D01*
X594220Y350468D02*
X595532Y349812D01*
X596844Y348500D01*
Y347188D01*
X596188Y346532D01*
X594876D01*
X594220Y347188D01*
Y347844D01*
X594876Y348500D01*
X596844D01*
X543780Y400032D02*
Y403968D01*
X541812D01*
X541156Y403312D01*
Y402000D01*
X541812Y401344D01*
X543780D01*
X542468D02*
X541156Y400032D01*
X539844Y400688D02*
X539188Y400032D01*
X537876D01*
X537220Y400688D01*
Y403312D01*
X537876Y403968D01*
X539188D01*
X539844Y403312D01*
Y402656D01*
X539188Y402000D01*
X537220D01*
X591780Y337532D02*
Y341468D01*
X589812D01*
X589156Y340812D01*
Y339500D01*
X589812Y338844D01*
X591780D01*
X590468D02*
X589156Y337532D01*
X587844Y341468D02*
X585220D01*
Y340812D01*
X587844Y338188D01*
Y337532D01*
X592468Y391764D02*
X588532D01*
Y389796D01*
X589188Y389140D01*
X590500D01*
X591156Y389796D01*
Y391764D01*
Y390452D02*
X592468Y389140D01*
Y387828D02*
Y386516D01*
Y387172D01*
X588532D01*
X589188Y387828D01*
X592468Y384548D02*
Y383236D01*
Y383892D01*
X588532D01*
X589188Y384548D01*
X578000Y353688D02*
Y356312D01*
X578656Y356968D01*
X579968D01*
X580624Y356312D01*
Y353688D01*
X579968Y353032D01*
X578656D01*
X579312Y354344D02*
X578000Y353032D01*
X578656D02*
X578000Y353688D01*
X576688Y353032D02*
X575376D01*
X576032D01*
Y356968D01*
X576688Y356312D01*
X575248Y447032D02*
Y450968D01*
X572624Y447032D01*
Y450968D01*
X571312Y447032D02*
Y450968D01*
X569344D01*
X568688Y450312D01*
Y449000D01*
X569344Y448344D01*
X571312D01*
X570000D02*
X568688Y447032D01*
X564752Y450968D02*
X567376D01*
Y449000D01*
X566064D01*
X567376D01*
Y447032D01*
X581968Y433060D02*
X578032D01*
X579344Y431748D01*
X578032Y430436D01*
X581968D01*
Y429124D02*
X578032D01*
Y427156D01*
X578688Y426500D01*
X580000D01*
X580656Y427156D01*
Y429124D01*
X578032Y425188D02*
X581312D01*
X581968Y424532D01*
Y423220D01*
X581312Y422564D01*
X578032D01*
X581968Y421252D02*
Y419940D01*
Y420596D01*
X578032D01*
X578688Y421252D01*
X578560Y387468D02*
Y383532D01*
X575936D01*
X574624Y387468D02*
Y383532D01*
X572656D01*
X572000Y384188D01*
Y386812D01*
X572656Y387468D01*
X574624D01*
X568720D02*
X570032D01*
X570688Y386812D01*
Y384188D01*
X570032Y383532D01*
X568720D01*
X568064Y384188D01*
Y386812D01*
X568720Y387468D01*
X566752Y383532D02*
X565440D01*
X566096D01*
Y387468D01*
X566752Y386812D01*
X539624Y309468D02*
Y305532D01*
X537656D01*
X537000Y306188D01*
Y308812D01*
X537656Y309468D01*
X539624D01*
X535688Y305532D02*
X534376D01*
X535032D01*
Y309468D01*
X535688Y308812D01*
X548280Y334968D02*
Y331032D01*
X546312D01*
X545656Y331688D01*
Y334312D01*
X546312Y334968D01*
X548280D01*
X542376Y331032D02*
Y334968D01*
X544344Y333000D01*
X541720D01*
X562280Y384968D02*
Y381032D01*
X560312D01*
X559656Y381688D01*
Y384312D01*
X560312Y384968D01*
X562280D01*
X555720D02*
X558344D01*
Y383000D01*
X557032Y383656D01*
X556376D01*
X555720Y383000D01*
Y381688D01*
X556376Y381032D01*
X557688D01*
X558344Y381688D01*
X595780Y314968D02*
Y311032D01*
X593812D01*
X593156Y311688D01*
Y314312D01*
X593812Y314968D01*
X595780D01*
X589220Y311032D02*
X591844D01*
X589220Y313656D01*
Y314312D01*
X589876Y314968D01*
X591188D01*
X591844Y314312D01*
X562280Y360468D02*
Y356532D01*
X560312D01*
X559656Y357188D01*
Y359812D01*
X560312Y360468D01*
X562280D01*
X558344Y359812D02*
X557688Y360468D01*
X556376D01*
X555720Y359812D01*
Y359156D01*
X556376Y358500D01*
X557032D01*
X556376D01*
X555720Y357844D01*
Y357188D01*
X556376Y356532D01*
X557688D01*
X558344Y357188D01*
X589156Y361312D02*
X589812Y361968D01*
X591124D01*
X591780Y361312D01*
Y358688D01*
X591124Y358032D01*
X589812D01*
X589156Y358688D01*
X587844Y361968D02*
X585220D01*
Y361312D01*
X587844Y358688D01*
Y358032D01*
X536500Y316312D02*
X537156Y316968D01*
X538468D01*
X539124Y316312D01*
Y313688D01*
X538468Y313032D01*
X537156D01*
X536500Y313688D01*
X535188Y313032D02*
X533876D01*
X534532D01*
Y316968D01*
X535188Y316312D01*
X570656Y329312D02*
X571312Y329968D01*
X572624D01*
X573280Y329312D01*
Y326688D01*
X572624Y326032D01*
X571312D01*
X570656Y326688D01*
X569344Y329312D02*
X568688Y329968D01*
X567376D01*
X566720Y329312D01*
Y328656D01*
X567376Y328000D01*
X568032D01*
X567376D01*
X566720Y327344D01*
Y326688D01*
X567376Y326032D01*
X568688D01*
X569344Y326688D01*
X581656Y307812D02*
X582312Y308468D01*
X583624D01*
X584280Y307812D01*
Y305188D01*
X583624Y304532D01*
X582312D01*
X581656Y305188D01*
X578376Y304532D02*
Y308468D01*
X580344Y306500D01*
X577720D01*
X580656Y362812D02*
X581312Y363468D01*
X582624D01*
X583280Y362812D01*
Y360188D01*
X582624Y359532D01*
X581312D01*
X580656Y360188D01*
X579344D02*
X578688Y359532D01*
X577376D01*
X576720Y360188D01*
Y362812D01*
X577376Y363468D01*
X578688D01*
X579344Y362812D01*
Y362156D01*
X578688Y361500D01*
X576720D01*
X613156Y409312D02*
X613812Y409968D01*
X615124D01*
X615780Y409312D01*
Y406688D01*
X615124Y406032D01*
X613812D01*
X613156Y406688D01*
X609220Y409968D02*
X610532Y409312D01*
X611844Y408000D01*
Y406688D01*
X611188Y406032D01*
X609876D01*
X609220Y406688D01*
Y407344D01*
X609876Y408000D01*
X611844D01*
X594156Y408812D02*
X594812Y409468D01*
X596124D01*
X596780Y408812D01*
Y406188D01*
X596124Y405532D01*
X594812D01*
X594156Y406188D01*
X590220Y409468D02*
X592844D01*
Y407500D01*
X591532Y408156D01*
X590876D01*
X590220Y407500D01*
Y406188D01*
X590876Y405532D01*
X592188D01*
X592844Y406188D01*
X603156Y409312D02*
X603812Y409968D01*
X605124D01*
X605780Y409312D01*
Y406688D01*
X605124Y406032D01*
X603812D01*
X603156Y406688D01*
X601844Y409312D02*
X601188Y409968D01*
X599876D01*
X599220Y409312D01*
Y408656D01*
X599876Y408000D01*
X599220Y407344D01*
Y406688D01*
X599876Y406032D01*
X601188D01*
X601844Y406688D01*
Y407344D01*
X601188Y408000D01*
X601844Y408656D01*
Y409312D01*
X601188Y408000D02*
X599876D01*
X596688Y378796D02*
X596032Y379452D01*
Y380764D01*
X596688Y381420D01*
X599312D01*
X599968Y380764D01*
Y379452D01*
X599312Y378796D01*
X599968Y377484D02*
Y376172D01*
Y376828D01*
X596032D01*
X596688Y377484D01*
Y374204D02*
X596032Y373548D01*
Y372236D01*
X596688Y371580D01*
X599312D01*
X599968Y372236D01*
Y373548D01*
X599312Y374204D01*
X596688D01*
X614188Y438656D02*
X613532Y439312D01*
Y440624D01*
X614188Y441280D01*
X616812D01*
X617468Y440624D01*
Y439312D01*
X616812Y438656D01*
X617468Y434720D02*
Y437344D01*
X614844Y434720D01*
X614188D01*
X613532Y435376D01*
Y436688D01*
X614188Y437344D01*
X550683Y328968D02*
Y325032D01*
X548715D01*
X548060Y325688D01*
Y326344D01*
X548715Y327000D01*
X550683D01*
X548715D01*
X548060Y327656D01*
Y328312D01*
X548715Y328968D01*
X550683D01*
X544780D02*
X546092D01*
X546748Y328312D01*
Y325688D01*
X546092Y325032D01*
X544780D01*
X544124Y325688D01*
Y328312D01*
X544780Y328968D01*
X540844D02*
X542156D01*
X542812Y328312D01*
Y325688D01*
X542156Y325032D01*
X540844D01*
X540188Y325688D01*
Y328312D01*
X540844Y328968D01*
X536252Y328312D02*
X536908Y328968D01*
X538220D01*
X538876Y328312D01*
Y327656D01*
X538220Y327000D01*
X536908D01*
X536252Y326344D01*
Y325688D01*
X536908Y325032D01*
X538220D01*
X538876Y325688D01*
X534940Y328968D02*
X532317D01*
X533629D01*
Y325032D01*
D12*
X573350Y389089D02*
X579650D01*
X573350D02*
Y404050D01*
X579650D01*
Y389089D02*
Y404050D01*
X581350Y398411D02*
X587650D01*
Y383450D02*
Y398411D01*
X581350Y383450D02*
X587650D01*
X581350D02*
Y398411D01*
X545850Y373689D02*
X552150D01*
X545850D02*
Y388650D01*
X552150D01*
Y373689D02*
Y388650D01*
X545850Y390089D02*
X552150D01*
X545850D02*
Y405050D01*
X552150D01*
Y390089D02*
Y405050D01*
X608311Y383850D02*
Y390150D01*
X593350Y383850D02*
X608311D01*
X593350D02*
Y390150D01*
X608311D01*
X591311Y344850D02*
Y351150D01*
X576350Y344850D02*
X591311D01*
X576350D02*
Y351150D01*
X591311D01*
X582911Y336850D02*
Y343150D01*
X567950Y336850D02*
X582911D01*
X567950D02*
Y343150D01*
X582911D01*
X593350Y434589D02*
X599650D01*
X593350D02*
Y449550D01*
X599650D01*
Y434589D02*
Y449550D01*
X615411Y445350D02*
Y451650D01*
X600450Y445350D02*
X615411D01*
X600450D02*
Y451650D01*
X615411D01*
X563900Y314000D02*
Y317000D01*
X556700Y312200D02*
X559300D01*
X552100Y314000D02*
Y317000D01*
D13*
X556063Y344193D02*
G03*
X556063Y344587I0J197D01*
G01*
D02*
G03*
X556063Y344193I0J-197D01*
G01*
X565587Y327000D02*
G03*
X565980Y327000I197J0D01*
G01*
D02*
G03*
X565587Y327000I-197J0D01*
G01*
X553913Y369063D02*
G03*
X554307Y369063I197J0D01*
G01*
D02*
G03*
X553913Y369063I-197J0D01*
G01*
X589685Y457791D02*
Y469996D01*
X550709D02*
X589685D01*
X550315D02*
X550709D01*
X550315Y457791D02*
Y469996D01*
X589685Y407004D02*
Y413697D01*
X550315Y407004D02*
Y410941D01*
D50*
X614716Y379685D02*
G03*
X614716Y379685I-492J0D01*
G01*
D51*
X555819Y302665D02*
X558181D01*
X555819Y298335D02*
X558181D01*
M02*
