G04*
G04 #@! TF.GenerationSoftware,Altium Limited,Altium Designer,20.2.6 (244)*
G04*
G04 Layer_Physical_Order=1*
G04 Layer_Color=255*
%FSLAX25Y25*%
%MOIN*%
G70*
G04*
G04 #@! TF.SameCoordinates,8F5FEA60-E90C-4FE4-B264-904F0C7A51F9*
G04*
G04*
G04 #@! TF.FilePolarity,Positive*
G04*
G01*
G75*
%ADD14R,0.03937X0.03150*%
%ADD15R,0.06300X0.08700*%
%ADD16R,0.03150X0.03937*%
%ADD17C,0.01200*%
%ADD18C,0.02000*%
%ADD19C,0.06000*%
%ADD20C,0.08858*%
%ADD21C,0.05118*%
%ADD22C,0.05906*%
%ADD23R,0.05906X0.05906*%
%ADD24C,0.03000*%
%ADD25C,0.09843*%
G36*
X627480Y301000D02*
X627481Y300997D01*
X627357Y299736D01*
X626988Y298520D01*
X626389Y297399D01*
X625583Y296417D01*
X624601Y295611D01*
X623480Y295012D01*
X622264Y294643D01*
X621003Y294519D01*
X621000Y294520D01*
X619285D01*
X619018Y295020D01*
X619355Y295525D01*
X619450Y296000D01*
X614550D01*
X614645Y295525D01*
X614982Y295020D01*
X614715Y294520D01*
X537500D01*
X537497Y294519D01*
X536236Y294643D01*
X535020Y295012D01*
X533899Y295611D01*
X532917Y296417D01*
X532111Y297399D01*
X531512Y298520D01*
X531143Y299736D01*
X531019Y300997D01*
X531020Y301000D01*
Y456000D01*
X627480D01*
Y301000D01*
D02*
G37*
%LPC*%
G36*
X598000Y454039D02*
X597220Y453884D01*
X596558Y453442D01*
X596116Y452780D01*
X595961Y452000D01*
X596036Y451622D01*
X592707Y448293D01*
X592464Y447929D01*
X592378Y447500D01*
X592378Y447500D01*
Y432156D01*
X592058Y431942D01*
X591616Y431280D01*
X591461Y430500D01*
X591616Y429720D01*
X592058Y429058D01*
X592720Y428616D01*
X593500Y428461D01*
X594280Y428616D01*
X594942Y429058D01*
X595384Y429720D01*
X595539Y430500D01*
X595384Y431280D01*
X594942Y431942D01*
X594622Y432156D01*
Y447035D01*
X597622Y450036D01*
X598000Y449961D01*
X598780Y450116D01*
X599442Y450558D01*
X599884Y451220D01*
X600039Y452000D01*
X599884Y452780D01*
X599442Y453442D01*
X598780Y453884D01*
X598000Y454039D01*
D02*
G37*
G36*
X541953Y452453D02*
X535047D01*
Y445547D01*
X541953D01*
Y452453D01*
D02*
G37*
G36*
X619500Y446483D02*
X618599Y446364D01*
X617759Y446016D01*
X617037Y445463D01*
X616484Y444741D01*
X616136Y443901D01*
X616017Y443000D01*
X616018Y442999D01*
X615551Y442709D01*
X615184Y442955D01*
X614708Y443049D01*
Y440600D01*
Y438151D01*
X615184Y438245D01*
X616011Y438798D01*
X616563Y439625D01*
X616680Y440211D01*
X616706Y440235D01*
X617226Y440393D01*
X617759Y439984D01*
X618599Y439636D01*
X619500Y439517D01*
X620401Y439636D01*
X621241Y439984D01*
X621962Y440538D01*
X622516Y441259D01*
X622864Y442099D01*
X622983Y443000D01*
X622864Y443901D01*
X622516Y444741D01*
X621962Y445463D01*
X621241Y446016D01*
X620401Y446364D01*
X619500Y446483D01*
D02*
G37*
G36*
X613708Y443049D02*
X613233Y442955D01*
X612406Y442402D01*
X611853Y441575D01*
X611759Y441100D01*
X613708D01*
Y443049D01*
D02*
G37*
G36*
Y440100D02*
X611759D01*
X611853Y439625D01*
X612406Y438798D01*
X613233Y438245D01*
X613708Y438151D01*
Y440100D01*
D02*
G37*
G36*
X538500Y442483D02*
X537599Y442364D01*
X536759Y442016D01*
X536037Y441463D01*
X535484Y440741D01*
X535136Y439901D01*
X535017Y439000D01*
X535136Y438099D01*
X535484Y437259D01*
X536037Y436538D01*
X536759Y435984D01*
X537599Y435636D01*
X538500Y435518D01*
X539401Y435636D01*
X540241Y435984D01*
X540963Y436538D01*
X541516Y437259D01*
X541864Y438099D01*
X541983Y439000D01*
X541864Y439901D01*
X541516Y440741D01*
X540963Y441463D01*
X540241Y442016D01*
X539401Y442364D01*
X538500Y442483D01*
D02*
G37*
G36*
X619500Y436482D02*
X618599Y436364D01*
X617759Y436016D01*
X617037Y435463D01*
X616484Y434741D01*
X616136Y433901D01*
X616017Y433000D01*
X616136Y432099D01*
X616484Y431259D01*
X617037Y430538D01*
X617759Y429984D01*
X618599Y429636D01*
X619500Y429518D01*
X620401Y429636D01*
X621241Y429984D01*
X621962Y430538D01*
X622516Y431259D01*
X622864Y432099D01*
X622983Y433000D01*
X622864Y433901D01*
X622516Y434741D01*
X621962Y435463D01*
X621241Y436016D01*
X620401Y436364D01*
X619500Y436482D01*
D02*
G37*
G36*
X568000Y429950D02*
Y428000D01*
X569949D01*
X569855Y428476D01*
X569302Y429302D01*
X568475Y429855D01*
X568000Y429950D01*
D02*
G37*
G36*
X567000D02*
X566525Y429855D01*
X565698Y429302D01*
X565145Y428476D01*
X565051Y428000D01*
X567000D01*
Y429950D01*
D02*
G37*
G36*
X538500Y432482D02*
X537599Y432364D01*
X536759Y432016D01*
X536037Y431462D01*
X535484Y430741D01*
X535136Y429901D01*
X535017Y429000D01*
X535136Y428099D01*
X535484Y427259D01*
X536037Y426538D01*
X536759Y425984D01*
X537599Y425636D01*
X537709Y425622D01*
X537677Y425122D01*
X535703D01*
X535703Y425122D01*
X535274Y425036D01*
X534910Y424793D01*
X534910Y424793D01*
X532207Y422090D01*
X531964Y421726D01*
X531878Y421297D01*
X531878Y421297D01*
Y332000D01*
X531878Y332000D01*
X531964Y331571D01*
X532207Y331207D01*
X542878Y320535D01*
Y308465D01*
X542378Y307964D01*
X542000Y308039D01*
X541220Y307884D01*
X540558Y307442D01*
X540550Y307430D01*
X540050Y307581D01*
Y316269D01*
X540079Y316340D01*
X540077Y316344D01*
X540079Y316348D01*
X540044Y318186D01*
X540384Y318694D01*
X540539Y319475D01*
X540384Y320255D01*
X539942Y320917D01*
X539280Y321359D01*
X538500Y321514D01*
X537720Y321359D01*
X537058Y320917D01*
X536616Y320255D01*
X536461Y319475D01*
X536616Y318694D01*
X536955Y318188D01*
X536949Y317987D01*
X536923Y317683D01*
X536880Y317428D01*
X536826Y317225D01*
X536765Y317075D01*
X536705Y316977D01*
X536655Y316922D01*
X536614Y316894D01*
X536568Y316878D01*
X536441Y316864D01*
X536415Y316850D01*
X532750D01*
Y307150D01*
X539762D01*
X539882Y307025D01*
X540094Y306668D01*
X539961Y306000D01*
X540116Y305220D01*
X540558Y304558D01*
X541220Y304116D01*
X542000Y303961D01*
X542780Y304116D01*
X543442Y304558D01*
X543884Y305220D01*
X544039Y306000D01*
X543964Y306378D01*
X544793Y307207D01*
X544793Y307207D01*
X545036Y307571D01*
X545122Y308000D01*
X545122Y308000D01*
Y321000D01*
X545122Y321000D01*
X545036Y321429D01*
X544793Y321793D01*
X534122Y332465D01*
Y408144D01*
X534622Y408177D01*
X534649Y407968D01*
X535047Y407007D01*
X535681Y406181D01*
X536507Y405547D01*
X537468Y405149D01*
X538000Y405079D01*
Y409000D01*
Y412921D01*
X537468Y412851D01*
X536507Y412453D01*
X535681Y411819D01*
X535047Y410993D01*
X534649Y410032D01*
X534622Y409824D01*
X534122Y409856D01*
Y420832D01*
X536167Y422878D01*
X537677D01*
X537709Y422378D01*
X537599Y422364D01*
X536759Y422016D01*
X536037Y421462D01*
X535484Y420741D01*
X535136Y419901D01*
X535017Y419000D01*
X535136Y418099D01*
X535484Y417259D01*
X536037Y416538D01*
X536759Y415984D01*
X537599Y415636D01*
X538483Y415520D01*
X538513Y415507D01*
X539264Y415483D01*
X539576Y415450D01*
X539866Y415403D01*
X540125Y415343D01*
X540355Y415271D01*
X540555Y415189D01*
X540726Y415098D01*
X540870Y415000D01*
X541016Y414872D01*
X541055Y414858D01*
X542878Y413035D01*
Y409856D01*
X542378Y409824D01*
X542351Y410032D01*
X541953Y410993D01*
X541319Y411819D01*
X540493Y412453D01*
X539532Y412851D01*
X539000Y412921D01*
Y409000D01*
Y405079D01*
X539532Y405149D01*
X540493Y405547D01*
X541319Y406181D01*
X541953Y407007D01*
X542351Y407968D01*
X542378Y408177D01*
X542878Y408144D01*
Y400965D01*
X541555Y399641D01*
X541516Y399628D01*
X541370Y399500D01*
X541226Y399402D01*
X541055Y399311D01*
X540855Y399229D01*
X540625Y399157D01*
X540366Y399097D01*
X540083Y399051D01*
X539404Y398998D01*
X539024Y398994D01*
X538997Y398982D01*
X538099Y398864D01*
X537259Y398516D01*
X536538Y397962D01*
X535984Y397241D01*
X535636Y396401D01*
X535518Y395500D01*
X535636Y394599D01*
X535984Y393759D01*
X536538Y393038D01*
X537259Y392484D01*
X538099Y392136D01*
X538154Y392129D01*
X538192Y392101D01*
X538192Y392101D01*
X538192Y392101D01*
X538192D01*
X538612Y391997D01*
X539351Y391784D01*
X539956Y391566D01*
X540198Y391460D01*
X540409Y391354D01*
X540583Y391251D01*
X540718Y391155D01*
X540842Y391045D01*
X540882Y391031D01*
X542467Y389447D01*
X542254Y388953D01*
X542035Y388953D01*
X535547D01*
Y382047D01*
X542453D01*
Y388502D01*
X542453Y388754D01*
X542947Y388967D01*
X555707Y376207D01*
X555707Y376207D01*
X556071Y375964D01*
X556500Y375878D01*
X556500Y375879D01*
X560500D01*
X560500Y375878D01*
X560929Y375964D01*
X561293Y376207D01*
X564622Y379536D01*
X565000Y379461D01*
X565780Y379616D01*
X566442Y380058D01*
X566884Y380720D01*
X567039Y381500D01*
X566884Y382280D01*
X566442Y382942D01*
X565780Y383384D01*
X565000Y383539D01*
X564791Y383498D01*
X564544Y383958D01*
X568183Y387597D01*
X568183Y387597D01*
X568426Y387961D01*
X568511Y388390D01*
X568511Y388390D01*
Y389286D01*
X568531Y389329D01*
X568536Y389543D01*
X568551Y389712D01*
X568574Y389848D01*
X568600Y389947D01*
X568625Y390009D01*
X568629Y390015D01*
X568647Y390017D01*
X568673Y390032D01*
X569465D01*
Y394969D01*
X565315D01*
Y390032D01*
X566107D01*
X566133Y390017D01*
X566151Y390015D01*
X566154Y390009D01*
X566180Y389947D01*
X566206Y389848D01*
X566228Y389712D01*
X566243Y389543D01*
X566249Y389329D01*
X566268Y389286D01*
Y388854D01*
X563035Y385622D01*
X562039D01*
X561887Y386122D01*
X561942Y386158D01*
X562384Y386820D01*
X562539Y387600D01*
X562465Y387972D01*
X562520Y388055D01*
X562606Y388484D01*
X562606Y388484D01*
Y389286D01*
X562625Y389329D01*
X562631Y389543D01*
X562646Y389712D01*
X562668Y389848D01*
X562695Y389947D01*
X562720Y390009D01*
X562723Y390015D01*
X562741Y390017D01*
X562767Y390032D01*
X563559D01*
Y394969D01*
X559409D01*
Y390796D01*
X558909Y390645D01*
X558557Y391173D01*
X557895Y391615D01*
X557115Y391770D01*
X556334Y391615D01*
X555673Y391173D01*
X555231Y390511D01*
X555076Y389731D01*
X555231Y388950D01*
X555634Y388346D01*
X555629Y388212D01*
X555631Y388208D01*
X555629Y388204D01*
X555649Y388154D01*
Y387706D01*
X555464Y387429D01*
X555378Y387000D01*
X555464Y386571D01*
X555707Y386207D01*
X558207Y383707D01*
X558571Y383464D01*
X559000Y383378D01*
X559000Y383379D01*
X563311D01*
X563451Y383131D01*
X563522Y382887D01*
X563116Y382280D01*
X562961Y381500D01*
X563036Y381122D01*
X560035Y378121D01*
X556965D01*
X556544Y378542D01*
X556791Y379002D01*
X557000Y378961D01*
X557780Y379116D01*
X558442Y379558D01*
X558884Y380220D01*
X559039Y381000D01*
X558884Y381780D01*
X558442Y382442D01*
X557780Y382884D01*
X557000Y383039D01*
X556622Y382964D01*
X553622Y385965D01*
Y399461D01*
X554122Y399613D01*
X554158Y399558D01*
X554820Y399116D01*
X555600Y398961D01*
X556380Y399116D01*
X557042Y399558D01*
X557484Y400220D01*
X557639Y401000D01*
X557484Y401780D01*
X557042Y402442D01*
X556722Y402656D01*
Y408135D01*
X565780Y417194D01*
X565946Y417164D01*
X566268Y416975D01*
Y403214D01*
X566249Y403171D01*
X566243Y402957D01*
X566228Y402788D01*
X566206Y402652D01*
X566180Y402553D01*
X566154Y402491D01*
X566151Y402485D01*
X566133Y402483D01*
X566107Y402468D01*
X565315D01*
Y397532D01*
X567134D01*
X567171Y397509D01*
X567214Y397519D01*
X567255Y397502D01*
X567326Y397532D01*
X567697D01*
X567781Y397484D01*
X567935Y397376D01*
X568343Y397031D01*
X568577Y396806D01*
X568622Y396788D01*
X570378Y395031D01*
Y389523D01*
X569958Y389242D01*
X569516Y388580D01*
X569361Y387800D01*
X569516Y387020D01*
X569958Y386358D01*
X570620Y385916D01*
X571400Y385761D01*
X572180Y385916D01*
X572842Y386358D01*
X572878Y386413D01*
X573378Y386261D01*
Y349965D01*
X552207Y328793D01*
X551964Y328429D01*
X551878Y328000D01*
X551878Y328000D01*
Y304616D01*
X551878Y304616D01*
X551964Y304187D01*
X552207Y303823D01*
X554423Y301607D01*
X554423Y301607D01*
X554787Y301364D01*
X555216Y301278D01*
X559370D01*
X559370Y301278D01*
X559799Y301364D01*
X560163Y301607D01*
X561627Y303071D01*
X562005Y302995D01*
X562785Y303151D01*
X563447Y303593D01*
X563889Y304254D01*
X564044Y305035D01*
X563889Y305815D01*
X563447Y306477D01*
X563187Y306650D01*
X563339Y307150D01*
X565250D01*
Y309917D01*
X565264Y309943D01*
X565278Y310069D01*
X565294Y310115D01*
X565321Y310156D01*
X565375Y310206D01*
X565473Y310265D01*
X565623Y310326D01*
X565826Y310380D01*
X566082Y310423D01*
X566387Y310449D01*
X566752Y310459D01*
X566778Y310471D01*
X583000D01*
X583585Y310587D01*
X584081Y310919D01*
X587634Y314471D01*
X590298D01*
X590449Y313971D01*
X590198Y313802D01*
X589645Y312976D01*
X589550Y312500D01*
X594450D01*
X594355Y312976D01*
X594013Y313487D01*
X594263Y314013D01*
X594780Y314116D01*
X595442Y314558D01*
X595884Y315220D01*
X596039Y316000D01*
X595884Y316780D01*
X595442Y317442D01*
X594780Y317884D01*
X594000Y318039D01*
X593220Y317884D01*
X592689Y317529D01*
X587000D01*
X586415Y317413D01*
X585919Y317081D01*
X582367Y313529D01*
X566778D01*
X566752Y313541D01*
X566387Y313551D01*
X566082Y313577D01*
X565826Y313620D01*
X565623Y313674D01*
X565473Y313735D01*
X565375Y313794D01*
X565321Y313844D01*
X565294Y313885D01*
X565278Y313931D01*
X565264Y314057D01*
X565250Y314083D01*
Y316850D01*
X557950D01*
Y310593D01*
X557940Y310576D01*
X557950Y310532D01*
Y310532D01*
X557933Y310490D01*
X557950Y310449D01*
Y309618D01*
X557840Y309426D01*
X557640Y309141D01*
X557043Y308436D01*
X556659Y308038D01*
X556648Y308011D01*
X556096Y307459D01*
X555720Y307384D01*
X555058Y306942D01*
X554616Y306280D01*
X554122Y306357D01*
Y327535D01*
X575293Y348707D01*
X575293Y348707D01*
X575536Y349071D01*
X575622Y349500D01*
X575622Y349500D01*
Y412844D01*
X575942Y413058D01*
X576384Y413720D01*
X576539Y414500D01*
X576384Y415280D01*
X575942Y415942D01*
X575280Y416384D01*
X574500Y416539D01*
X573720Y416384D01*
X573058Y415942D01*
X572616Y415280D01*
X572461Y414500D01*
X572616Y413720D01*
X573058Y413058D01*
X573378Y412844D01*
Y389614D01*
X572878Y389380D01*
X572622Y389574D01*
Y395496D01*
X572622Y395496D01*
X572536Y395925D01*
X572293Y396289D01*
X570214Y398368D01*
X570198Y398412D01*
X569770Y398872D01*
X569624Y399055D01*
X569512Y399215D01*
X569465Y399299D01*
Y399670D01*
X569494Y399741D01*
X569477Y399782D01*
X569487Y399825D01*
X569465Y399862D01*
Y402468D01*
X568673D01*
X568647Y402483D01*
X568629Y402485D01*
X568625Y402491D01*
X568600Y402553D01*
X568574Y402652D01*
X568551Y402788D01*
X568536Y402957D01*
X568531Y403171D01*
X568511Y403214D01*
Y416641D01*
X572049Y420178D01*
X599507D01*
X607478Y412207D01*
X607478Y412207D01*
X607842Y411964D01*
X608271Y411878D01*
X614765D01*
X614802Y411860D01*
X614996Y411847D01*
X615167Y411815D01*
X615352Y411758D01*
X615551Y411675D01*
X615765Y411563D01*
X615991Y411422D01*
X616223Y411255D01*
X616741Y410812D01*
X617013Y410547D01*
X617040Y410535D01*
X617759Y409984D01*
X618599Y409636D01*
X619500Y409517D01*
X620401Y409636D01*
X621241Y409984D01*
X621962Y410537D01*
X622516Y411259D01*
X622864Y412099D01*
X622983Y413000D01*
X622864Y413901D01*
X622516Y414741D01*
X621962Y415462D01*
X621241Y416016D01*
X620401Y416364D01*
X619500Y416482D01*
X618599Y416364D01*
X617759Y416016D01*
X617051Y415473D01*
X617021Y415461D01*
X616473Y414947D01*
X616229Y414749D01*
X615991Y414578D01*
X615765Y414437D01*
X615552Y414325D01*
X615352Y414242D01*
X615167Y414185D01*
X614996Y414153D01*
X614802Y414140D01*
X614765Y414122D01*
X608736D01*
X600979Y421878D01*
X601186Y422378D01*
X614666D01*
X614684Y422367D01*
X614714Y422374D01*
X614742Y422360D01*
X614945Y422346D01*
X615114Y422313D01*
X615285Y422255D01*
X615462Y422171D01*
X615645Y422058D01*
X615834Y421915D01*
X616027Y421739D01*
X616224Y421530D01*
X616425Y421288D01*
X616635Y421000D01*
X616724Y420947D01*
X617037Y420538D01*
X617759Y419984D01*
X618599Y419636D01*
X619500Y419518D01*
X620401Y419636D01*
X621241Y419984D01*
X621962Y420538D01*
X622516Y421259D01*
X622864Y422099D01*
X622983Y423000D01*
X622864Y423901D01*
X622516Y424741D01*
X621962Y425462D01*
X621241Y426016D01*
X620401Y426364D01*
X619500Y426482D01*
X618599Y426364D01*
X617759Y426016D01*
X617552Y425857D01*
X617461Y425837D01*
X617459Y425836D01*
X617459Y425836D01*
X617459Y425836D01*
X617117Y425596D01*
X616801Y425388D01*
X616209Y425042D01*
X615952Y424915D01*
X615711Y424811D01*
X615493Y424733D01*
X615299Y424681D01*
X615131Y424651D01*
X614954Y424640D01*
X614916Y424622D01*
X570500D01*
X570071Y424536D01*
X569707Y424293D01*
X569707Y424293D01*
X554807Y409393D01*
X554564Y409029D01*
X554478Y408600D01*
X554478Y408600D01*
Y402692D01*
X554085Y402398D01*
X553622Y402539D01*
Y414535D01*
X557122Y418036D01*
X557500Y417961D01*
X558280Y418116D01*
X558942Y418558D01*
X559384Y419220D01*
X559539Y420000D01*
X559384Y420780D01*
X558942Y421442D01*
X558280Y421884D01*
X557500Y422039D01*
X556720Y421884D01*
X556058Y421442D01*
X555616Y420780D01*
X555461Y420000D01*
X555536Y419622D01*
X551707Y415793D01*
X551464Y415429D01*
X551378Y415000D01*
X551378Y415000D01*
Y385500D01*
X551378Y385500D01*
X551464Y385071D01*
X551707Y384707D01*
X555036Y381378D01*
X554961Y381000D01*
X555002Y380791D01*
X554542Y380544D01*
X542729Y392357D01*
X542728Y392362D01*
X542711Y392375D01*
X542684Y392402D01*
X542671Y392442D01*
X542534Y392598D01*
X542440Y392739D01*
X542364Y392896D01*
X542305Y393073D01*
X542264Y393271D01*
X542242Y393494D01*
X542242Y393741D01*
X542264Y394013D01*
X542312Y394309D01*
X542387Y394645D01*
X542378Y394703D01*
X542480Y395483D01*
X542493Y395513D01*
X542517Y396264D01*
X542550Y396576D01*
X542597Y396866D01*
X542657Y397125D01*
X542729Y397355D01*
X542811Y397555D01*
X542902Y397726D01*
X543000Y397870D01*
X543128Y398016D01*
X543142Y398055D01*
X544793Y399707D01*
X544793Y399707D01*
X545036Y400071D01*
X545122Y400500D01*
X545122Y400500D01*
Y408160D01*
X545622Y408311D01*
X545698Y408198D01*
X546524Y407645D01*
X547000Y407550D01*
Y410000D01*
Y412450D01*
X546524Y412355D01*
X545698Y411802D01*
X545622Y411689D01*
X545122Y411840D01*
Y413500D01*
X545036Y413929D01*
X544793Y414293D01*
X544793Y414293D01*
X542641Y416445D01*
X542628Y416484D01*
X542500Y416630D01*
X542402Y416774D01*
X542311Y416945D01*
X542229Y417145D01*
X542157Y417375D01*
X542097Y417634D01*
X542051Y417917D01*
X541998Y418596D01*
X541994Y418976D01*
X541982Y419003D01*
X541864Y419901D01*
X541516Y420741D01*
X540963Y421462D01*
X540241Y422016D01*
X539401Y422364D01*
X539291Y422378D01*
X539323Y422878D01*
X541535D01*
X545178Y419235D01*
Y417856D01*
X545158Y417842D01*
X544716Y417180D01*
X544561Y416400D01*
X544716Y415620D01*
X545158Y414958D01*
X545820Y414516D01*
X546600Y414361D01*
X547380Y414516D01*
X548042Y414958D01*
X548484Y415620D01*
X548639Y416400D01*
X548484Y417180D01*
X548042Y417842D01*
X547422Y418256D01*
Y419700D01*
X547422Y419700D01*
X547336Y420129D01*
X547093Y420493D01*
X547093Y420493D01*
X542793Y424793D01*
X542429Y425036D01*
X542000Y425122D01*
X542000Y425122D01*
X539323D01*
X539291Y425622D01*
X539401Y425636D01*
X540241Y425984D01*
X540963Y426538D01*
X541516Y427259D01*
X541864Y428099D01*
X541983Y429000D01*
X541864Y429901D01*
X541516Y430741D01*
X540963Y431462D01*
X540241Y432016D01*
X539401Y432364D01*
X538500Y432482D01*
D02*
G37*
G36*
X569949Y427000D02*
X568000D01*
Y425050D01*
X568475Y425145D01*
X569302Y425698D01*
X569855Y426524D01*
X569949Y427000D01*
D02*
G37*
G36*
X567000D02*
X565051D01*
X565145Y426524D01*
X565698Y425698D01*
X566525Y425145D01*
X567000Y425050D01*
Y427000D01*
D02*
G37*
G36*
X548000Y412450D02*
Y410500D01*
X549950D01*
X549855Y410976D01*
X549302Y411802D01*
X548476Y412355D01*
X548000Y412450D01*
D02*
G37*
G36*
X549950Y409500D02*
X548000D01*
Y407550D01*
X548476Y407645D01*
X549302Y408198D01*
X549855Y409024D01*
X549950Y409500D01*
D02*
G37*
G36*
X592461Y410039D02*
X591680Y409884D01*
X591019Y409442D01*
X590577Y408780D01*
X590421Y408000D01*
X590577Y407220D01*
X590579Y407217D01*
X589707Y406345D01*
X589464Y405981D01*
X589378Y405552D01*
X589378Y405552D01*
Y389156D01*
X589058Y388942D01*
X588616Y388280D01*
X588461Y387500D01*
X588616Y386720D01*
X589058Y386058D01*
X589720Y385616D01*
X590500Y385461D01*
X591280Y385616D01*
X591942Y386058D01*
X592384Y386720D01*
X592539Y387500D01*
X592384Y388280D01*
X591942Y388942D01*
X591622Y389156D01*
Y405088D01*
X592503Y405969D01*
X593241Y406116D01*
X593902Y406558D01*
X594041Y406765D01*
X605995D01*
X606285Y406332D01*
X606946Y405890D01*
X607726Y405734D01*
X608507Y405890D01*
X609168Y406332D01*
X609610Y406993D01*
X609766Y407774D01*
X609610Y408554D01*
X609168Y409215D01*
X608507Y409658D01*
X607726Y409813D01*
X606946Y409658D01*
X606285Y409215D01*
X606146Y409008D01*
X594192D01*
X593902Y409442D01*
X593241Y409884D01*
X592461Y410039D01*
D02*
G37*
G36*
X619500Y406483D02*
X618599Y406364D01*
X617759Y406016D01*
X617037Y405463D01*
X616484Y404741D01*
X616136Y403901D01*
X616017Y403000D01*
X616136Y402099D01*
X616484Y401259D01*
X617037Y400537D01*
X617759Y399984D01*
X618599Y399636D01*
X619500Y399517D01*
X620401Y399636D01*
X621241Y399984D01*
X621962Y400537D01*
X622516Y401259D01*
X622864Y402099D01*
X622983Y403000D01*
X622864Y403901D01*
X622516Y404741D01*
X621962Y405463D01*
X621241Y406016D01*
X620401Y406364D01*
X619500Y406483D01*
D02*
G37*
G36*
X563559Y402468D02*
X559409D01*
Y399118D01*
X559258Y398966D01*
X558594D01*
X558165Y398881D01*
X557801Y398638D01*
X557801Y398637D01*
X556878Y397714D01*
X556500Y397789D01*
X555720Y397634D01*
X555058Y397192D01*
X554616Y396530D01*
X554461Y395750D01*
X554616Y394970D01*
X555058Y394308D01*
X555720Y393866D01*
X556500Y393711D01*
X557280Y393866D01*
X557942Y394308D01*
X558384Y394970D01*
X558539Y395750D01*
X558464Y396128D01*
X559059Y396723D01*
X559722D01*
X559722Y396723D01*
X560151Y396808D01*
X560515Y397051D01*
X560995Y397532D01*
X563559D01*
Y402468D01*
D02*
G37*
G36*
X623453Y396953D02*
X620000D01*
Y393500D01*
X623453D01*
Y396953D01*
D02*
G37*
G36*
X619000D02*
X615547D01*
Y393500D01*
X619000D01*
Y396953D01*
D02*
G37*
G36*
X623453Y392500D02*
X620000D01*
Y389047D01*
X623453D01*
Y392500D01*
D02*
G37*
G36*
X619000D02*
X615547D01*
Y389047D01*
X619000D01*
Y392500D01*
D02*
G37*
G36*
X611500Y390950D02*
Y389000D01*
X613449D01*
X613355Y389475D01*
X612802Y390302D01*
X611975Y390855D01*
X611500Y390950D01*
D02*
G37*
G36*
X610500D02*
X610024Y390855D01*
X609198Y390302D01*
X608645Y389475D01*
X608551Y389000D01*
X610500D01*
Y390950D01*
D02*
G37*
G36*
X613449Y388000D02*
X611500D01*
Y386051D01*
X611975Y386145D01*
X612802Y386698D01*
X613355Y387525D01*
X613449Y388000D01*
D02*
G37*
G36*
X610500D02*
X608551D01*
X608645Y387525D01*
X609198Y386698D01*
X610024Y386145D01*
X610500Y386051D01*
Y388000D01*
D02*
G37*
G36*
X599000Y381949D02*
Y380000D01*
X600949D01*
X600855Y380475D01*
X600302Y381302D01*
X599475Y381855D01*
X599000Y381949D01*
D02*
G37*
G36*
X598000D02*
X597524Y381855D01*
X596698Y381302D01*
X596145Y380475D01*
X596051Y380000D01*
X598000D01*
Y381949D01*
D02*
G37*
G36*
X621000Y380398D02*
Y377374D01*
X624024D01*
X623967Y377803D01*
X623609Y378669D01*
X623038Y379412D01*
X622295Y379983D01*
X621429Y380341D01*
X621000Y380398D01*
D02*
G37*
G36*
X620000D02*
X619571Y380341D01*
X618705Y379983D01*
X617962Y379412D01*
X617391Y378669D01*
X617033Y377803D01*
X616976Y377374D01*
X620000D01*
Y380398D01*
D02*
G37*
G36*
X600949Y379000D02*
X599000D01*
Y377050D01*
X599475Y377145D01*
X600302Y377698D01*
X600855Y378524D01*
X600949Y379000D01*
D02*
G37*
G36*
X598000D02*
X596051D01*
X596145Y378524D01*
X596698Y377698D01*
X597524Y377145D01*
X598000Y377050D01*
Y379000D01*
D02*
G37*
G36*
X569500Y375950D02*
Y374000D01*
X571450D01*
X571355Y374476D01*
X570802Y375302D01*
X569976Y375855D01*
X569500Y375950D01*
D02*
G37*
G36*
X568500D02*
X568024Y375855D01*
X567198Y375302D01*
X566645Y374476D01*
X566550Y374000D01*
X568500D01*
Y375950D01*
D02*
G37*
G36*
X624024Y376374D02*
X621000D01*
Y373350D01*
X621429Y373407D01*
X622295Y373765D01*
X623038Y374336D01*
X623609Y375079D01*
X623967Y375945D01*
X624024Y376374D01*
D02*
G37*
G36*
X620000D02*
X616976D01*
X617033Y375945D01*
X617391Y375079D01*
X617962Y374336D01*
X618705Y373765D01*
X619571Y373407D01*
X620000Y373350D01*
Y376374D01*
D02*
G37*
G36*
X571450Y373000D02*
X569500D01*
Y371051D01*
X569976Y371145D01*
X570802Y371698D01*
X571355Y372524D01*
X571450Y373000D01*
D02*
G37*
G36*
X568500D02*
X566550D01*
X566645Y372524D01*
X567198Y371698D01*
X568024Y371145D01*
X568500Y371051D01*
Y373000D01*
D02*
G37*
G36*
X599000Y369950D02*
Y368000D01*
X600949D01*
X600855Y368476D01*
X600302Y369302D01*
X599475Y369855D01*
X599000Y369950D01*
D02*
G37*
G36*
X598000D02*
X597524Y369855D01*
X596698Y369302D01*
X596145Y368476D01*
X596051Y368000D01*
X598000D01*
Y369950D01*
D02*
G37*
G36*
X539000Y373460D02*
X538201Y373354D01*
X537457Y373046D01*
X536818Y372556D01*
X536328Y371917D01*
X536020Y371173D01*
X535915Y370374D01*
X536020Y369575D01*
X536328Y368831D01*
X536818Y368192D01*
X537457Y367702D01*
X538201Y367394D01*
X539000Y367288D01*
X539799Y367394D01*
X540543Y367702D01*
X541182Y368192D01*
X541672Y368831D01*
X541980Y369575D01*
X542086Y370374D01*
X541980Y371173D01*
X541672Y371917D01*
X541182Y372556D01*
X540543Y373046D01*
X539799Y373354D01*
X539000Y373460D01*
D02*
G37*
G36*
X600949Y367000D02*
X599000D01*
Y365051D01*
X599475Y365145D01*
X600302Y365698D01*
X600855Y366525D01*
X600949Y367000D01*
D02*
G37*
G36*
X598000D02*
X596051D01*
X596145Y366525D01*
X596698Y365698D01*
X597524Y365145D01*
X598000Y365051D01*
Y367000D01*
D02*
G37*
G36*
X570000Y362949D02*
Y361000D01*
X571949D01*
X571855Y361475D01*
X571302Y362302D01*
X570475Y362855D01*
X570000Y362949D01*
D02*
G37*
G36*
X569000D02*
X568525Y362855D01*
X567698Y362302D01*
X567145Y361475D01*
X567051Y361000D01*
X569000D01*
Y362949D01*
D02*
G37*
G36*
X539000Y365585D02*
X538201Y365480D01*
X537457Y365172D01*
X536818Y364682D01*
X536328Y364043D01*
X536020Y363299D01*
X535915Y362500D01*
X536020Y361701D01*
X536328Y360957D01*
X536818Y360318D01*
X537457Y359828D01*
X538201Y359520D01*
X539000Y359415D01*
X539799Y359520D01*
X540543Y359828D01*
X541182Y360318D01*
X541672Y360957D01*
X541980Y361701D01*
X542086Y362500D01*
X541980Y363299D01*
X541672Y364043D01*
X541182Y364682D01*
X540543Y365172D01*
X539799Y365480D01*
X539000Y365585D01*
D02*
G37*
G36*
X620500Y372085D02*
X619701Y371980D01*
X618957Y371672D01*
X618318Y371182D01*
X617828Y370543D01*
X617520Y369799D01*
X617415Y369000D01*
X617520Y368201D01*
X617828Y367457D01*
X618318Y366818D01*
X618957Y366328D01*
X619701Y366020D01*
X620104Y365967D01*
X620147Y365931D01*
X620197Y365936D01*
X620240Y365911D01*
X620398Y365892D01*
X620532Y365863D01*
X620669Y365822D01*
X620810Y365766D01*
X620954Y365696D01*
X621101Y365610D01*
X621245Y365513D01*
X621408Y365381D01*
Y358442D01*
X620908Y358272D01*
X620515Y358783D01*
X619486Y359573D01*
X618287Y360070D01*
X617000Y360240D01*
X615713Y360070D01*
X614514Y359573D01*
X613484Y358783D01*
X612694Y357754D01*
X612198Y356555D01*
X612028Y355268D01*
X612198Y353981D01*
X612694Y352782D01*
X613484Y351752D01*
X614514Y350962D01*
X615713Y350465D01*
X615981Y350430D01*
X616049Y349917D01*
X615457Y349672D01*
X614836Y349195D01*
X614795Y349179D01*
X614572Y348962D01*
X614364Y348778D01*
X614162Y348619D01*
X613968Y348485D01*
X613782Y348374D01*
X613604Y348287D01*
X613435Y348221D01*
X613275Y348176D01*
X613123Y348150D01*
X612946Y348140D01*
X612907Y348122D01*
X612000D01*
X611571Y348036D01*
X611207Y347793D01*
X611207Y347793D01*
X610535Y347122D01*
X607714D01*
X607671Y347141D01*
X607457Y347147D01*
X607288Y347161D01*
X607152Y347184D01*
X607053Y347210D01*
X606991Y347235D01*
X606985Y347239D01*
X606983Y347257D01*
X606968Y347283D01*
Y348028D01*
X602032D01*
Y347236D01*
X602017Y347210D01*
X602015Y347192D01*
X602009Y347188D01*
X601947Y347163D01*
X601848Y347136D01*
X601712Y347114D01*
X601543Y347099D01*
X601329Y347094D01*
X601286Y347074D01*
X598620D01*
X598190Y346989D01*
X597826Y346746D01*
X597826Y346746D01*
X588505Y337424D01*
X588020Y337646D01*
X587855Y338475D01*
X587302Y339302D01*
X586476Y339855D01*
X586000Y339949D01*
Y337500D01*
X585500D01*
Y337000D01*
X583050D01*
X583145Y336525D01*
X583698Y335698D01*
X584524Y335145D01*
X584748Y335101D01*
X584775Y334599D01*
X584080Y334545D01*
X583691Y334541D01*
X583666Y334530D01*
X582753Y334410D01*
X581902Y334057D01*
X581170Y333496D01*
X580609Y332765D01*
X580257Y331914D01*
X580136Y331000D01*
X580257Y330086D01*
X580609Y329235D01*
X581170Y328504D01*
X581902Y327943D01*
X582753Y327590D01*
X583667Y327470D01*
X584580Y327590D01*
X585432Y327943D01*
X586163Y328504D01*
X586724Y329235D01*
X587077Y330086D01*
X587195Y330986D01*
X587207Y331013D01*
X587231Y331782D01*
X587264Y332102D01*
X587312Y332398D01*
X587373Y332664D01*
X587446Y332898D01*
X587529Y333103D01*
X587621Y333277D01*
X587720Y333423D01*
X587849Y333570D01*
X587862Y333610D01*
X599084Y344831D01*
X601286D01*
X601329Y344812D01*
X601543Y344806D01*
X601712Y344791D01*
X601848Y344769D01*
X601947Y344742D01*
X602009Y344717D01*
X602015Y344714D01*
X602017Y344696D01*
X602032Y344670D01*
Y343878D01*
X606968D01*
Y344717D01*
X606983Y344743D01*
X606985Y344761D01*
X606991Y344765D01*
X607053Y344790D01*
X607152Y344816D01*
X607288Y344839D01*
X607457Y344853D01*
X607671Y344859D01*
X607714Y344879D01*
X611000D01*
X611000Y344878D01*
X611429Y344964D01*
X611793Y345207D01*
X612465Y345879D01*
X612907D01*
X612946Y345860D01*
X613123Y345849D01*
X613275Y345824D01*
X613435Y345779D01*
X613604Y345713D01*
X613782Y345626D01*
X613968Y345515D01*
X614156Y345385D01*
X614577Y345033D01*
X614795Y344821D01*
X614836Y344805D01*
X615457Y344328D01*
X616201Y344020D01*
X617000Y343915D01*
X617799Y344020D01*
X618543Y344328D01*
X619182Y344818D01*
X619672Y345457D01*
X619980Y346201D01*
X620083Y346978D01*
X620100Y347019D01*
X620104Y347330D01*
X620121Y347607D01*
X620151Y347862D01*
X620194Y348094D01*
X620247Y348304D01*
X620311Y348491D01*
X620384Y348657D01*
X620466Y348802D01*
X620555Y348928D01*
X620673Y349061D01*
X620687Y349101D01*
X623322Y351736D01*
X623322Y351736D01*
X623565Y352100D01*
X623651Y352529D01*
Y365911D01*
X623651Y365911D01*
X623565Y366340D01*
X623387Y366607D01*
X623353Y366700D01*
X623252Y366811D01*
X623189Y366896D01*
X623146Y366972D01*
X623119Y367039D01*
X623104Y367099D01*
X623099Y367158D01*
X623103Y367219D01*
X623118Y367289D01*
X623147Y367370D01*
X623206Y367489D01*
X623210Y367536D01*
X623240Y367573D01*
X623236Y367612D01*
X623480Y368201D01*
X623586Y369000D01*
X623480Y369799D01*
X623172Y370543D01*
X622682Y371182D01*
X622043Y371672D01*
X621299Y371980D01*
X620500Y372085D01*
D02*
G37*
G36*
X571949Y360000D02*
X570000D01*
Y358050D01*
X570475Y358145D01*
X571302Y358698D01*
X571855Y359524D01*
X571949Y360000D01*
D02*
G37*
G36*
X569000D02*
X567051D01*
X567145Y359524D01*
X567698Y358698D01*
X568525Y358145D01*
X569000Y358050D01*
Y360000D01*
D02*
G37*
G36*
X584449Y357500D02*
X582500D01*
Y355551D01*
X582975Y355645D01*
X583802Y356198D01*
X584355Y357025D01*
X584449Y357500D01*
D02*
G37*
G36*
X578500Y419539D02*
X577720Y419384D01*
X577058Y418942D01*
X576616Y418280D01*
X576461Y417500D01*
X576616Y416720D01*
X577058Y416058D01*
X577378Y415844D01*
Y355656D01*
X577058Y355442D01*
X576616Y354780D01*
X576461Y354000D01*
X576616Y353220D01*
X577058Y352558D01*
X577720Y352116D01*
X578500Y351961D01*
X579280Y352116D01*
X579942Y352558D01*
X580384Y353220D01*
X580539Y354000D01*
X580384Y354780D01*
X579942Y355442D01*
X579622Y355656D01*
Y356160D01*
X580122Y356311D01*
X580198Y356198D01*
X581025Y355645D01*
X581500Y355551D01*
Y358000D01*
X582000D01*
Y358500D01*
X584449D01*
X584355Y358976D01*
X583802Y359802D01*
X583681Y359884D01*
Y360384D01*
X583942Y360558D01*
X584384Y361220D01*
X584539Y362000D01*
X584384Y362780D01*
X583942Y363442D01*
X583622Y363656D01*
Y412844D01*
X583942Y413058D01*
X584384Y413720D01*
X584539Y414500D01*
X584384Y415280D01*
X583942Y415942D01*
X583280Y416384D01*
X582500Y416539D01*
X581720Y416384D01*
X581058Y415942D01*
X580616Y415280D01*
X580461Y414500D01*
X580616Y413720D01*
X581058Y413058D01*
X581378Y412844D01*
Y363656D01*
X581058Y363442D01*
X580616Y362780D01*
X580461Y362000D01*
X580616Y361220D01*
X580885Y360817D01*
X580990Y360471D01*
X580757Y360176D01*
X580198Y359802D01*
X580122Y359689D01*
X579622Y359840D01*
Y415844D01*
X579942Y416058D01*
X580384Y416720D01*
X580539Y417500D01*
X580384Y418280D01*
X579942Y418942D01*
X579280Y419384D01*
X578500Y419539D01*
D02*
G37*
G36*
X599500Y352950D02*
Y351000D01*
X601449D01*
X601355Y351476D01*
X600802Y352302D01*
X599975Y352855D01*
X599500Y352950D01*
D02*
G37*
G36*
X598500D02*
X598025Y352855D01*
X597198Y352302D01*
X596645Y351476D01*
X596551Y351000D01*
X598500D01*
Y352950D01*
D02*
G37*
G36*
X601449Y350000D02*
X599500D01*
Y348050D01*
X599975Y348145D01*
X600802Y348698D01*
X601355Y349524D01*
X601449Y350000D01*
D02*
G37*
G36*
X598500D02*
X596551D01*
X596645Y349524D01*
X597198Y348698D01*
X598025Y348145D01*
X598500Y348050D01*
Y350000D01*
D02*
G37*
G36*
X617000Y342212D02*
X616201Y342106D01*
X615457Y341798D01*
X615306Y341682D01*
X615220Y341664D01*
X614940Y341473D01*
X614685Y341312D01*
X614196Y341040D01*
X613983Y340942D01*
X613780Y340861D01*
X613593Y340800D01*
X613423Y340759D01*
X613271Y340736D01*
X613106Y340727D01*
X613067Y340708D01*
X607714D01*
X607671Y340728D01*
X607457Y340733D01*
X607289Y340748D01*
X607154Y340770D01*
X607054Y340797D01*
X606992Y340822D01*
X606985Y340827D01*
X606982Y340846D01*
X606968Y340872D01*
Y342122D01*
X602032D01*
Y337972D01*
X606345D01*
X606389Y337947D01*
X606425Y337957D01*
X606459Y337943D01*
X606529Y337972D01*
X606968D01*
Y338362D01*
X607036Y338385D01*
X607132Y338406D01*
X607463Y338441D01*
X607668Y338445D01*
X607713Y338465D01*
X612793D01*
X612809Y338455D01*
X612845Y338462D01*
X612877Y338446D01*
X613061Y338435D01*
X613209Y338408D01*
X613356Y338363D01*
X613504Y338297D01*
X613653Y338210D01*
X613805Y338099D01*
X613960Y337962D01*
X614117Y337799D01*
X614274Y337608D01*
X614441Y337376D01*
X614528Y337323D01*
X614818Y336944D01*
X615457Y336454D01*
X616201Y336146D01*
X617000Y336040D01*
X617799Y336146D01*
X618543Y336454D01*
X619182Y336944D01*
X619672Y337583D01*
X619980Y338327D01*
X620085Y339126D01*
X619980Y339925D01*
X619672Y340669D01*
X619182Y341308D01*
X618543Y341798D01*
X617799Y342106D01*
X617000Y342212D01*
D02*
G37*
G36*
X539000Y348585D02*
X538201Y348480D01*
X537457Y348172D01*
X536818Y347682D01*
X536328Y347043D01*
X536020Y346299D01*
X535915Y345500D01*
X536020Y344701D01*
X536328Y343957D01*
X536818Y343318D01*
X537457Y342828D01*
X538201Y342520D01*
X538910Y342426D01*
X538966Y342400D01*
X539163Y342391D01*
X539333Y342369D01*
X539500Y342333D01*
X539664Y342282D01*
X539826Y342217D01*
X539987Y342136D01*
X540147Y342039D01*
X540307Y341925D01*
X540467Y341794D01*
X540638Y341633D01*
X540664Y341623D01*
X541341Y340946D01*
X541011Y340569D01*
X540795Y340735D01*
X539929Y341093D01*
X539500Y341150D01*
Y338126D01*
X542524D01*
X542467Y338555D01*
X542109Y339421D01*
X541943Y339637D01*
X542320Y339967D01*
X548879Y333408D01*
X549016Y332720D01*
X549458Y332058D01*
X550120Y331616D01*
X550900Y331461D01*
X551680Y331616D01*
X552342Y332058D01*
X552784Y332720D01*
X552939Y333500D01*
X552784Y334280D01*
X552342Y334942D01*
X551680Y335384D01*
X551117Y335496D01*
X542848Y343764D01*
X542838Y343791D01*
X542678Y343962D01*
X542548Y344121D01*
X542436Y344280D01*
X542341Y344439D01*
X542263Y344598D01*
X542200Y344759D01*
X542153Y344921D01*
X542121Y345085D01*
X542103Y345253D01*
X542099Y345449D01*
X542084Y345486D01*
X542086Y345500D01*
X541980Y346299D01*
X541672Y347043D01*
X541182Y347682D01*
X540543Y348172D01*
X539799Y348480D01*
X539000Y348585D01*
D02*
G37*
G36*
X538500Y341150D02*
X538071Y341093D01*
X537205Y340735D01*
X536462Y340164D01*
X535891Y339421D01*
X535533Y338555D01*
X535476Y338126D01*
X538500D01*
Y341150D01*
D02*
G37*
G36*
X585000Y339949D02*
X584524Y339855D01*
X583698Y339302D01*
X583145Y338475D01*
X583050Y338000D01*
X585000D01*
Y339949D01*
D02*
G37*
G36*
X542524Y337126D02*
X539500D01*
Y334102D01*
X539929Y334159D01*
X540795Y334517D01*
X541538Y335088D01*
X542109Y335831D01*
X542467Y336697D01*
X542524Y337126D01*
D02*
G37*
G36*
X538500D02*
X535476D01*
X535533Y336697D01*
X535891Y335831D01*
X536462Y335088D01*
X537205Y334517D01*
X538071Y334159D01*
X538500Y334102D01*
Y337126D01*
D02*
G37*
G36*
X610000Y330949D02*
Y329000D01*
X611949D01*
X611855Y329475D01*
X611302Y330302D01*
X610475Y330855D01*
X610000Y330949D01*
D02*
G37*
G36*
X609000D02*
X608525Y330855D01*
X607698Y330302D01*
X607145Y329475D01*
X607051Y329000D01*
X609000D01*
Y330949D01*
D02*
G37*
G36*
X558500Y329450D02*
Y327500D01*
X560450D01*
X560355Y327976D01*
X559802Y328802D01*
X558976Y329355D01*
X558500Y329450D01*
D02*
G37*
G36*
X557500D02*
X557024Y329355D01*
X556198Y328802D01*
X555645Y327976D01*
X555550Y327500D01*
X557500D01*
Y329450D01*
D02*
G37*
G36*
X601000Y334530D02*
X600086Y334410D01*
X599235Y334057D01*
X598504Y333496D01*
X597943Y332765D01*
X597590Y331914D01*
X597470Y331000D01*
X597590Y330086D01*
X597943Y329235D01*
X598504Y328504D01*
X599235Y327943D01*
X600086Y327590D01*
X601000Y327470D01*
X601914Y327590D01*
X602765Y327943D01*
X603496Y328504D01*
X604057Y329235D01*
X604410Y330086D01*
X604530Y331000D01*
X604410Y331914D01*
X604057Y332765D01*
X603496Y333496D01*
X602765Y334057D01*
X601914Y334410D01*
X601000Y334530D01*
D02*
G37*
G36*
X592333D02*
X591420Y334410D01*
X590568Y334057D01*
X589837Y333496D01*
X589276Y332765D01*
X588923Y331914D01*
X588803Y331000D01*
X588923Y330086D01*
X589276Y329235D01*
X589837Y328504D01*
X590568Y327943D01*
X591420Y327590D01*
X592333Y327470D01*
X593247Y327590D01*
X594098Y327943D01*
X594830Y328504D01*
X595391Y329235D01*
X595743Y330086D01*
X595863Y331000D01*
X595743Y331914D01*
X595391Y332765D01*
X594830Y333496D01*
X594098Y334057D01*
X593247Y334410D01*
X592333Y334530D01*
D02*
G37*
G36*
X611949Y328000D02*
X610000D01*
Y326050D01*
X610475Y326145D01*
X611302Y326698D01*
X611855Y327524D01*
X611949Y328000D01*
D02*
G37*
G36*
X609000D02*
X607051D01*
X607145Y327524D01*
X607698Y326698D01*
X608525Y326145D01*
X609000Y326050D01*
Y328000D01*
D02*
G37*
G36*
X575000Y334530D02*
X574086Y334410D01*
X573235Y334057D01*
X572504Y333496D01*
X572272Y333194D01*
X572216Y333174D01*
X571297Y332335D01*
X570919Y332081D01*
X569840Y331003D01*
X569655Y330834D01*
X569641Y330804D01*
X567846Y329009D01*
X567220Y328884D01*
X566558Y328442D01*
X566116Y327780D01*
X565961Y327000D01*
X566116Y326220D01*
X566558Y325558D01*
X566662Y325489D01*
Y323809D01*
X566778Y323223D01*
X567110Y322727D01*
X573491Y316346D01*
X573616Y315720D01*
X574058Y315058D01*
X574720Y314616D01*
X575500Y314461D01*
X576280Y314616D01*
X576942Y315058D01*
X577384Y315720D01*
X577539Y316500D01*
X577384Y317280D01*
X576942Y317942D01*
X576280Y318384D01*
X575654Y318509D01*
X569721Y324442D01*
Y325975D01*
X569884Y326220D01*
X570009Y326846D01*
X571310Y328147D01*
X571335Y328156D01*
X571540Y328347D01*
X571715Y328484D01*
X571868Y328580D01*
X571997Y328639D01*
X572099Y328668D01*
X572177Y328674D01*
X572241Y328666D01*
X572305Y328644D01*
X572381Y328598D01*
X572501Y328493D01*
X572503Y328492D01*
X572503Y328491D01*
X572534Y328481D01*
X573235Y327943D01*
X574086Y327590D01*
X574412Y327547D01*
X574534Y327027D01*
X574198Y326802D01*
X573645Y325975D01*
X573551Y325500D01*
X578449D01*
X578355Y325975D01*
X577802Y326802D01*
X576975Y327355D01*
X576757Y327398D01*
X576706Y327918D01*
X576765Y327943D01*
X577496Y328504D01*
X578057Y329235D01*
X578410Y330086D01*
X578530Y331000D01*
X578410Y331914D01*
X578057Y332765D01*
X577496Y333496D01*
X576765Y334057D01*
X575914Y334410D01*
X575000Y334530D01*
D02*
G37*
G36*
X560450Y326500D02*
X558500D01*
Y324551D01*
X558976Y324645D01*
X559802Y325198D01*
X560355Y326025D01*
X560450Y326500D01*
D02*
G37*
G36*
X557500D02*
X555550D01*
X555645Y326025D01*
X556198Y325198D01*
X557024Y324645D01*
X557500Y324551D01*
Y326500D01*
D02*
G37*
G36*
X602000Y326449D02*
Y324500D01*
X603949D01*
X603855Y324975D01*
X603302Y325802D01*
X602476Y326355D01*
X602000Y326449D01*
D02*
G37*
G36*
X601000D02*
X600525Y326355D01*
X599698Y325802D01*
X599145Y324975D01*
X599051Y324500D01*
X601000D01*
Y326449D01*
D02*
G37*
G36*
X593500Y324950D02*
Y323000D01*
X595449D01*
X595355Y323476D01*
X594802Y324302D01*
X593975Y324855D01*
X593500Y324950D01*
D02*
G37*
G36*
X592500D02*
X592025Y324855D01*
X591198Y324302D01*
X590645Y323476D01*
X590551Y323000D01*
X592500D01*
Y324950D01*
D02*
G37*
G36*
X578449Y324500D02*
X576500D01*
Y322551D01*
X576975Y322645D01*
X577802Y323198D01*
X578355Y324025D01*
X578449Y324500D01*
D02*
G37*
G36*
X575500D02*
X573551D01*
X573645Y324025D01*
X574198Y323198D01*
X575025Y322645D01*
X575500Y322551D01*
Y324500D01*
D02*
G37*
G36*
X603949Y323500D02*
X602000D01*
Y321550D01*
X602476Y321645D01*
X603302Y322198D01*
X603855Y323025D01*
X603949Y323500D01*
D02*
G37*
G36*
X601000D02*
X599051D01*
X599145Y323025D01*
X599698Y322198D01*
X600525Y321645D01*
X601000Y321550D01*
Y323500D01*
D02*
G37*
G36*
X595449Y322000D02*
X593500D01*
Y320051D01*
X593975Y320145D01*
X594802Y320698D01*
X595355Y321525D01*
X595449Y322000D01*
D02*
G37*
G36*
X592500D02*
X590551D01*
X590645Y321525D01*
X591198Y320698D01*
X592025Y320145D01*
X592500Y320051D01*
Y322000D01*
D02*
G37*
G36*
X617000Y334337D02*
X616201Y334232D01*
X615457Y333924D01*
X614818Y333434D01*
X614328Y332795D01*
X614020Y332051D01*
X613914Y331252D01*
X614020Y330453D01*
X614328Y329709D01*
X614818Y329070D01*
X615457Y328580D01*
X616049Y328335D01*
X615981Y327822D01*
X615713Y327786D01*
X614514Y327290D01*
X613484Y326500D01*
X612694Y325470D01*
X612198Y324271D01*
X612028Y322984D01*
X612198Y321697D01*
X612694Y320498D01*
X613484Y319469D01*
X614514Y318679D01*
X615713Y318182D01*
X617000Y318012D01*
X618287Y318182D01*
X619486Y318679D01*
X620515Y319469D01*
X621306Y320498D01*
X621802Y321697D01*
X621972Y322984D01*
X621802Y324271D01*
X621306Y325470D01*
X620515Y326500D01*
X619486Y327290D01*
X618287Y327786D01*
X618019Y327822D01*
X617951Y328335D01*
X618543Y328580D01*
X619182Y329070D01*
X619672Y329709D01*
X619980Y330453D01*
X620085Y331252D01*
X619980Y332051D01*
X619672Y332795D01*
X619182Y333434D01*
X618543Y333924D01*
X617799Y334232D01*
X617000Y334337D01*
D02*
G37*
G36*
X621000Y313398D02*
Y310374D01*
X624024D01*
X623967Y310803D01*
X623609Y311669D01*
X623038Y312412D01*
X622295Y312983D01*
X621429Y313341D01*
X621000Y313398D01*
D02*
G37*
G36*
X620000D02*
X619571Y313341D01*
X618705Y312983D01*
X617962Y312412D01*
X617391Y311669D01*
X617033Y310803D01*
X616976Y310374D01*
X620000D01*
Y313398D01*
D02*
G37*
G36*
X594450Y311500D02*
X592500D01*
Y309550D01*
X592976Y309645D01*
X593802Y310198D01*
X594355Y311024D01*
X594450Y311500D01*
D02*
G37*
G36*
X591500D02*
X589550D01*
X589645Y311024D01*
X590198Y310198D01*
X591024Y309645D01*
X591500Y309550D01*
Y311500D01*
D02*
G37*
G36*
X576500Y309450D02*
Y307500D01*
X578449D01*
X578355Y307976D01*
X577802Y308802D01*
X576975Y309355D01*
X576500Y309450D01*
D02*
G37*
G36*
X575500D02*
X575025Y309355D01*
X574198Y308802D01*
X573645Y307976D01*
X573551Y307500D01*
X575500D01*
Y309450D01*
D02*
G37*
G36*
X624024Y309374D02*
X621000D01*
Y306350D01*
X621429Y306407D01*
X622295Y306765D01*
X623038Y307336D01*
X623609Y308079D01*
X623967Y308945D01*
X624024Y309374D01*
D02*
G37*
G36*
X620000D02*
X616976D01*
X617033Y308945D01*
X617391Y308079D01*
X617962Y307336D01*
X618705Y306765D01*
X619571Y306407D01*
X620000Y306350D01*
Y309374D01*
D02*
G37*
G36*
X612000Y306949D02*
Y305000D01*
X613949D01*
X613855Y305475D01*
X613302Y306302D01*
X612475Y306855D01*
X612000Y306949D01*
D02*
G37*
G36*
X611000D02*
X610525Y306855D01*
X609698Y306302D01*
X609145Y305475D01*
X609051Y305000D01*
X611000D01*
Y306949D01*
D02*
G37*
G36*
X578449Y306500D02*
X576500D01*
Y304551D01*
X576975Y304645D01*
X577802Y305198D01*
X578355Y306025D01*
X578449Y306500D01*
D02*
G37*
G36*
X575500D02*
X573551D01*
X573645Y306025D01*
X574198Y305198D01*
X575025Y304645D01*
X575500Y304551D01*
Y306500D01*
D02*
G37*
G36*
X613949Y304000D02*
X612000D01*
Y302050D01*
X612475Y302145D01*
X613302Y302698D01*
X613855Y303524D01*
X613949Y304000D01*
D02*
G37*
G36*
X611000D02*
X609051D01*
X609145Y303524D01*
X609698Y302698D01*
X610525Y302145D01*
X611000Y302050D01*
Y304000D01*
D02*
G37*
G36*
X620500Y305085D02*
X619701Y304980D01*
X618957Y304672D01*
X618318Y304182D01*
X617828Y303543D01*
X617520Y302799D01*
X617415Y302000D01*
X617520Y301201D01*
X617828Y300457D01*
X618318Y299818D01*
X618957Y299328D01*
X619701Y299020D01*
X620500Y298915D01*
X621299Y299020D01*
X622043Y299328D01*
X622682Y299818D01*
X623172Y300457D01*
X623480Y301201D01*
X623586Y302000D01*
X623480Y302799D01*
X623172Y303543D01*
X622682Y304182D01*
X622043Y304672D01*
X621299Y304980D01*
X620500Y305085D01*
D02*
G37*
G36*
X617500Y298950D02*
Y297000D01*
X619450D01*
X619355Y297476D01*
X618802Y298302D01*
X617976Y298855D01*
X617500Y298950D01*
D02*
G37*
G36*
X616500D02*
X616024Y298855D01*
X615198Y298302D01*
X614645Y297476D01*
X614550Y297000D01*
X616500D01*
Y298950D01*
D02*
G37*
%LPD*%
G36*
X597990Y451000D02*
X597959Y450996D01*
X597923Y450984D01*
X597881Y450963D01*
X597834Y450934D01*
X597781Y450897D01*
X597659Y450798D01*
X597515Y450665D01*
X597434Y450586D01*
X596586Y451434D01*
X596665Y451515D01*
X596897Y451781D01*
X596934Y451834D01*
X596963Y451881D01*
X596984Y451923D01*
X596996Y451959D01*
X597000Y451990D01*
X597990Y451000D01*
D02*
G37*
G36*
X594101Y431787D02*
X594125Y431435D01*
X594136Y431371D01*
X594149Y431317D01*
X594164Y431273D01*
X594181Y431239D01*
X594200Y431214D01*
X592800D01*
X592819Y431239D01*
X592836Y431273D01*
X592851Y431317D01*
X592864Y431371D01*
X592875Y431435D01*
X592891Y431591D01*
X592899Y431787D01*
X592900Y431900D01*
X594100D01*
X594101Y431787D01*
D02*
G37*
G36*
X617072Y421320D02*
X616852Y421620D01*
X616630Y421889D01*
X616406Y422126D01*
X616180Y422331D01*
X615952Y422505D01*
X615721Y422647D01*
X615488Y422758D01*
X615253Y422837D01*
X615017Y422884D01*
X614777Y422900D01*
X614988Y424100D01*
X615194Y424113D01*
X615416Y424152D01*
X615655Y424217D01*
X615909Y424307D01*
X616179Y424424D01*
X616466Y424566D01*
X617087Y424928D01*
X617421Y425148D01*
X617772Y425394D01*
X617072Y421320D01*
D02*
G37*
G36*
X557490Y419000D02*
X557459Y418996D01*
X557423Y418984D01*
X557381Y418963D01*
X557334Y418934D01*
X557281Y418897D01*
X557159Y418798D01*
X557015Y418665D01*
X556934Y418586D01*
X556086Y419434D01*
X556165Y419515D01*
X556397Y419781D01*
X556434Y419834D01*
X556463Y419881D01*
X556484Y419923D01*
X556496Y419959D01*
X556500Y419990D01*
X557490Y419000D01*
D02*
G37*
G36*
X546902Y417842D02*
X546925Y417567D01*
X546938Y417496D01*
X546955Y417435D01*
X546975Y417384D01*
X546998Y417343D01*
X547024Y417312D01*
X547053Y417291D01*
X545718Y416871D01*
X545700Y417436D01*
X546900Y417954D01*
X546902Y417842D01*
D02*
G37*
G36*
X541457Y418572D02*
X541513Y417852D01*
X541566Y417530D01*
X541635Y417233D01*
X541719Y416961D01*
X541821Y416715D01*
X541938Y416494D01*
X542072Y416298D01*
X542221Y416127D01*
X541373Y415279D01*
X541202Y415428D01*
X541007Y415562D01*
X540785Y415679D01*
X540539Y415780D01*
X540267Y415866D01*
X539970Y415934D01*
X539648Y415987D01*
X539300Y416023D01*
X538529Y416047D01*
X541453Y418970D01*
X541457Y418572D01*
D02*
G37*
G36*
X575181Y413761D02*
X575164Y413727D01*
X575149Y413683D01*
X575136Y413629D01*
X575125Y413565D01*
X575109Y413409D01*
X575101Y413213D01*
X575100Y413100D01*
X573900D01*
X573899Y413213D01*
X573875Y413565D01*
X573864Y413629D01*
X573851Y413683D01*
X573836Y413727D01*
X573819Y413761D01*
X573800Y413786D01*
X575200D01*
X575181Y413761D01*
D02*
G37*
G36*
X617391Y410933D02*
X617107Y411212D01*
X616558Y411681D01*
X616292Y411872D01*
X616034Y412033D01*
X615782Y412165D01*
X615536Y412268D01*
X615297Y412341D01*
X615064Y412385D01*
X614837Y412400D01*
Y413600D01*
X615064Y413615D01*
X615297Y413659D01*
X615536Y413732D01*
X615782Y413835D01*
X616034Y413967D01*
X616292Y414128D01*
X616558Y414319D01*
X616829Y414539D01*
X617391Y415067D01*
Y410933D01*
D02*
G37*
G36*
X567996Y402926D02*
X568014Y402720D01*
X568044Y402538D01*
X568086Y402381D01*
X568140Y402247D01*
X568206Y402138D01*
X568284Y402054D01*
X568374Y401993D01*
X568476Y401957D01*
X568590Y401944D01*
X566190D01*
X566304Y401957D01*
X566406Y401993D01*
X566496Y402054D01*
X566574Y402138D01*
X566640Y402247D01*
X566694Y402381D01*
X566736Y402538D01*
X566766Y402720D01*
X566784Y402926D01*
X566790Y403157D01*
X567990D01*
X567996Y402926D01*
D02*
G37*
G36*
X556201Y402287D02*
X556225Y401935D01*
X556236Y401871D01*
X556249Y401817D01*
X556264Y401773D01*
X556281Y401739D01*
X556300Y401714D01*
X554900D01*
X554919Y401739D01*
X554936Y401773D01*
X554951Y401817D01*
X554964Y401871D01*
X554975Y401935D01*
X554991Y402091D01*
X554999Y402287D01*
X555000Y402400D01*
X556200D01*
X556201Y402287D01*
D02*
G37*
G36*
X568885Y399647D02*
X568851Y399537D01*
Y399410D01*
X568885Y399265D01*
X568953Y399104D01*
X569054Y398926D01*
X569190Y398731D01*
X569360Y398519D01*
X569801Y398043D01*
X568953Y397195D01*
X568707Y397433D01*
X568265Y397806D01*
X568070Y397942D01*
X567892Y398043D01*
X567731Y398111D01*
X567587Y398145D01*
X567459D01*
X567349Y398111D01*
X567255Y398043D01*
X568953Y399741D01*
X568885Y399647D01*
D02*
G37*
G36*
X542721Y398373D02*
X542572Y398202D01*
X542438Y398007D01*
X542321Y397785D01*
X542219Y397539D01*
X542135Y397267D01*
X542066Y396970D01*
X542013Y396648D01*
X541977Y396301D01*
X541953Y395530D01*
X539030Y398453D01*
X539428Y398457D01*
X540148Y398513D01*
X540470Y398566D01*
X540767Y398635D01*
X541039Y398720D01*
X541285Y398821D01*
X541506Y398938D01*
X541702Y399072D01*
X541873Y399221D01*
X542721Y398373D01*
D02*
G37*
G36*
X541780Y394412D02*
X541727Y394078D01*
X541700Y393763D01*
X541701Y393467D01*
X541728Y393190D01*
X541782Y392931D01*
X541862Y392691D01*
X541969Y392470D01*
X542103Y392268D01*
X542264Y392085D01*
X541201Y391451D01*
X541055Y391579D01*
X540878Y391705D01*
X540669Y391829D01*
X540428Y391950D01*
X540156Y392069D01*
X539517Y392299D01*
X538752Y392520D01*
X538322Y392626D01*
X541860Y394764D01*
X541780Y394412D01*
D02*
G37*
G36*
X568476Y390543D02*
X568374Y390507D01*
X568284Y390446D01*
X568206Y390362D01*
X568140Y390252D01*
X568086Y390119D01*
X568044Y389962D01*
X568014Y389780D01*
X567996Y389574D01*
X567990Y389344D01*
X566790D01*
X566784Y389574D01*
X566766Y389780D01*
X566736Y389962D01*
X566694Y390119D01*
X566640Y390252D01*
X566574Y390362D01*
X566496Y390446D01*
X566406Y390507D01*
X566304Y390543D01*
X566190Y390556D01*
X568590D01*
X568476Y390543D01*
D02*
G37*
G36*
X562570D02*
X562468Y390507D01*
X562378Y390446D01*
X562300Y390362D01*
X562234Y390252D01*
X562180Y390119D01*
X562138Y389962D01*
X562108Y389780D01*
X562090Y389574D01*
X562084Y389344D01*
X560884D01*
X560878Y389574D01*
X560860Y389780D01*
X560830Y389962D01*
X560788Y390119D01*
X560734Y390252D01*
X560668Y390362D01*
X560590Y390446D01*
X560500Y390507D01*
X560398Y390543D01*
X560284Y390556D01*
X562684D01*
X562570Y390543D01*
D02*
G37*
G36*
X572100Y389114D02*
X572101Y389001D01*
X572133Y388535D01*
X572144Y388494D01*
X572155Y388462D01*
X572168Y388441D01*
X570775Y388581D01*
X570799Y388605D01*
X570820Y388640D01*
X570839Y388684D01*
X570855Y388738D01*
X570869Y388802D01*
X570880Y388875D01*
X570895Y389051D01*
X570900Y389266D01*
X572100Y389114D01*
D02*
G37*
G36*
X557526Y388819D02*
X557496Y388800D01*
X557470Y388770D01*
X557446Y388731D01*
X557426Y388681D01*
X557409Y388620D01*
X557395Y388549D01*
X557384Y388469D01*
X557372Y388276D01*
X557370Y388164D01*
X556170Y388192D01*
X556212Y389301D01*
X557526Y388819D01*
D02*
G37*
G36*
X556515Y382335D02*
X556781Y382103D01*
X556834Y382066D01*
X556881Y382037D01*
X556923Y382016D01*
X556959Y382004D01*
X556990Y382000D01*
X556000Y381010D01*
X555996Y381041D01*
X555984Y381077D01*
X555963Y381119D01*
X555934Y381166D01*
X555897Y381219D01*
X555798Y381341D01*
X555665Y381485D01*
X555586Y381566D01*
X556434Y382414D01*
X556515Y382335D01*
D02*
G37*
G36*
X564990Y380500D02*
X564959Y380496D01*
X564923Y380484D01*
X564881Y380463D01*
X564834Y380434D01*
X564781Y380397D01*
X564659Y380298D01*
X564515Y380165D01*
X564434Y380086D01*
X563586Y380934D01*
X563665Y381015D01*
X563897Y381281D01*
X563934Y381334D01*
X563963Y381381D01*
X563984Y381423D01*
X563996Y381459D01*
X564000Y381490D01*
X564990Y380500D01*
D02*
G37*
G36*
X539538Y316338D02*
X536500Y316326D01*
X536690Y316347D01*
X536860Y316408D01*
X537010Y316509D01*
X537140Y316650D01*
X537250Y316831D01*
X537340Y317052D01*
X537410Y317314D01*
X537460Y317615D01*
X537490Y317956D01*
X537500Y318338D01*
X539500D01*
X539538Y316338D01*
D02*
G37*
G36*
X564746Y313810D02*
X564807Y313640D01*
X564907Y313490D01*
X565048Y313360D01*
X565229Y313250D01*
X565450Y313160D01*
X565712Y313090D01*
X566014Y313040D01*
X566356Y313010D01*
X566738Y313000D01*
Y311000D01*
X566356Y310990D01*
X566014Y310960D01*
X565712Y310910D01*
X565450Y310840D01*
X565229Y310750D01*
X565048Y310640D01*
X564907Y310510D01*
X564807Y310360D01*
X564746Y310190D01*
X564726Y310000D01*
Y314000D01*
X564746Y313810D01*
D02*
G37*
G36*
X561290Y307674D02*
X561136Y307786D01*
X560953Y307841D01*
X560741Y307840D01*
X560501Y307782D01*
X560233Y307668D01*
X559936Y307497D01*
X559610Y307270D01*
X559256Y306986D01*
X558462Y306248D01*
X557048Y307662D01*
X557445Y308073D01*
X558070Y308810D01*
X558297Y309136D01*
X558468Y309433D01*
X558582Y309701D01*
X558640Y309941D01*
X558641Y310153D01*
X558586Y310336D01*
X558474Y310490D01*
X561290Y307674D01*
D02*
G37*
G36*
X543414Y306566D02*
X543335Y306485D01*
X543103Y306219D01*
X543066Y306166D01*
X543037Y306119D01*
X543016Y306077D01*
X543004Y306041D01*
X543000Y306010D01*
X542010Y307000D01*
X542041Y307004D01*
X542077Y307016D01*
X542119Y307037D01*
X542166Y307066D01*
X542219Y307103D01*
X542341Y307202D01*
X542485Y307335D01*
X542566Y307414D01*
X543414Y306566D01*
D02*
G37*
G36*
X561995Y304035D02*
X561964Y304031D01*
X561928Y304019D01*
X561886Y303998D01*
X561839Y303969D01*
X561786Y303932D01*
X561664Y303832D01*
X561520Y303699D01*
X561439Y303620D01*
X560591Y304469D01*
X560670Y304549D01*
X560902Y304816D01*
X560939Y304869D01*
X560968Y304916D01*
X560989Y304958D01*
X561001Y304994D01*
X561005Y305025D01*
X561995Y304035D01*
D02*
G37*
G36*
X593274Y408590D02*
X593309Y408569D01*
X593353Y408549D01*
X593407Y408533D01*
X593470Y408519D01*
X593544Y408507D01*
X593719Y408492D01*
X593934Y408487D01*
X593762Y407287D01*
X593648Y407286D01*
X593184Y407256D01*
X593143Y407246D01*
X593112Y407236D01*
X593091Y407224D01*
X593249Y408615D01*
X593274Y408590D01*
D02*
G37*
G36*
X606938Y407159D02*
X606913Y407183D01*
X606878Y407205D01*
X606834Y407224D01*
X606780Y407241D01*
X606717Y407255D01*
X606643Y407266D01*
X606467Y407282D01*
X606253Y407287D01*
X606425Y408487D01*
X606539Y408487D01*
X607003Y408518D01*
X607044Y408527D01*
X607075Y408538D01*
X607096Y408550D01*
X606938Y407159D01*
D02*
G37*
G36*
X592796Y407058D02*
X592472Y406675D01*
X591172Y407073D01*
X591250Y407153D01*
X591427Y407363D01*
X591467Y407423D01*
X591498Y407478D01*
X591519Y407527D01*
X591531Y407572D01*
X591533Y407612D01*
X591525Y407646D01*
X592796Y407058D01*
D02*
G37*
G36*
X591101Y388787D02*
X591125Y388435D01*
X591136Y388371D01*
X591149Y388317D01*
X591164Y388273D01*
X591181Y388239D01*
X591200Y388214D01*
X589800D01*
X589819Y388239D01*
X589836Y388273D01*
X589851Y388317D01*
X589864Y388371D01*
X589875Y388435D01*
X589891Y388591D01*
X589899Y388787D01*
X589900Y388900D01*
X591100D01*
X591101Y388787D01*
D02*
G37*
G36*
X557914Y396316D02*
X557835Y396235D01*
X557603Y395969D01*
X557566Y395916D01*
X557537Y395869D01*
X557516Y395827D01*
X557504Y395791D01*
X557500Y395760D01*
X556510Y396750D01*
X556541Y396754D01*
X556577Y396766D01*
X556619Y396787D01*
X556666Y396816D01*
X556719Y396853D01*
X556841Y396952D01*
X556985Y397085D01*
X557066Y397164D01*
X557914Y396316D01*
D02*
G37*
G36*
X622648Y367584D02*
X622596Y367438D01*
X622565Y367294D01*
X622556Y367152D01*
X622568Y367011D01*
X622602Y366873D01*
X622658Y366736D01*
X622735Y366600D01*
X622833Y366467D01*
X622953Y366335D01*
X622105Y365486D01*
X621926Y365657D01*
X621568Y365948D01*
X621388Y366069D01*
X621209Y366173D01*
X621029Y366261D01*
X620848Y366333D01*
X620668Y366388D01*
X620487Y366426D01*
X620306Y366448D01*
X622722Y367731D01*
X622648Y367584D01*
D02*
G37*
G36*
X620269Y349420D02*
X620131Y349266D01*
X620008Y349092D01*
X619900Y348900D01*
X619807Y348689D01*
X619728Y348458D01*
X619664Y348210D01*
X619616Y347942D01*
X619582Y347655D01*
X619563Y347350D01*
X619559Y347026D01*
X617026Y349559D01*
X617350Y349563D01*
X617942Y349616D01*
X618210Y349664D01*
X618458Y349728D01*
X618688Y349807D01*
X618900Y349900D01*
X619092Y350008D01*
X619266Y350131D01*
X619420Y350269D01*
X620269Y349420D01*
D02*
G37*
G36*
X615172Y345209D02*
X614940Y345435D01*
X614484Y345816D01*
X614261Y345971D01*
X614040Y346102D01*
X613822Y346209D01*
X613606Y346293D01*
X613394Y346352D01*
X613184Y346388D01*
X612977Y346400D01*
Y347600D01*
X613184Y347612D01*
X613394Y347648D01*
X613606Y347707D01*
X613822Y347791D01*
X614040Y347898D01*
X614261Y348029D01*
X614484Y348184D01*
X614711Y348362D01*
X614940Y348565D01*
X615172Y348791D01*
Y345209D01*
D02*
G37*
G36*
X606457Y347086D02*
X606493Y346984D01*
X606554Y346894D01*
X606638Y346816D01*
X606747Y346750D01*
X606881Y346696D01*
X607038Y346654D01*
X607220Y346624D01*
X607426Y346606D01*
X607656Y346600D01*
Y345400D01*
X607426Y345394D01*
X607220Y345376D01*
X607038Y345346D01*
X606881Y345304D01*
X606747Y345250D01*
X606638Y345184D01*
X606554Y345106D01*
X606493Y345016D01*
X606457Y344914D01*
X606445Y344800D01*
Y347200D01*
X606457Y347086D01*
D02*
G37*
G36*
X602556Y344753D02*
X602543Y344867D01*
X602507Y344969D01*
X602446Y345059D01*
X602362Y345137D01*
X602252Y345203D01*
X602119Y345257D01*
X601962Y345299D01*
X601780Y345329D01*
X601574Y345347D01*
X601343Y345353D01*
Y346553D01*
X601574Y346559D01*
X601780Y346577D01*
X601962Y346607D01*
X602119Y346649D01*
X602252Y346703D01*
X602362Y346769D01*
X602446Y346847D01*
X602507Y346937D01*
X602543Y347039D01*
X602556Y347153D01*
Y344753D01*
D02*
G37*
G36*
X587442Y333927D02*
X587291Y333755D01*
X587156Y333556D01*
X587038Y333332D01*
X586936Y333081D01*
X586850Y332804D01*
X586781Y332502D01*
X586728Y332173D01*
X586691Y331818D01*
X586666Y331030D01*
X583697Y334000D01*
X584104Y334004D01*
X584839Y334061D01*
X585168Y334114D01*
X585471Y334183D01*
X585748Y334269D01*
X585998Y334371D01*
X586223Y334490D01*
X586421Y334624D01*
X586594Y334775D01*
X587442Y333927D01*
D02*
G37*
G36*
X579181Y416761D02*
X579164Y416727D01*
X579149Y416683D01*
X579136Y416629D01*
X579125Y416565D01*
X579109Y416409D01*
X579101Y416213D01*
X579100Y416100D01*
X577900D01*
X577899Y416213D01*
X577875Y416565D01*
X577864Y416629D01*
X577851Y416683D01*
X577836Y416727D01*
X577819Y416761D01*
X577800Y416786D01*
X579200D01*
X579181Y416761D01*
D02*
G37*
G36*
X583200Y413786D02*
X583181Y413761D01*
X583164Y413727D01*
X583149Y413683D01*
X583136Y413629D01*
X583125Y413565D01*
X583109Y413409D01*
X583101Y413213D01*
X583100Y413100D01*
X581900Y413100D01*
X581899Y413213D01*
X581875Y413565D01*
X581864Y413629D01*
X581851Y413683D01*
X581836Y413727D01*
X581819Y413761D01*
X581800Y413786D01*
X583200Y413786D01*
D02*
G37*
G36*
X583101Y363287D02*
X583125Y362934D01*
X583136Y362871D01*
X583149Y362817D01*
X583164Y362773D01*
X583181Y362739D01*
X583200Y362714D01*
X581800D01*
X581819Y362739D01*
X581836Y362773D01*
X581851Y362817D01*
X581864Y362871D01*
X581875Y362934D01*
X581891Y363091D01*
X581899Y363287D01*
X581900Y363400D01*
X583100D01*
X583101Y363287D01*
D02*
G37*
G36*
X579101Y355287D02*
X579125Y354935D01*
X579136Y354871D01*
X579149Y354817D01*
X579164Y354773D01*
X579181Y354739D01*
X579200Y354714D01*
X577800D01*
X577819Y354739D01*
X577836Y354773D01*
X577851Y354817D01*
X577864Y354871D01*
X577875Y354935D01*
X577891Y355091D01*
X577899Y355287D01*
X577900Y355400D01*
X579100D01*
X579101Y355287D01*
D02*
G37*
G36*
X606457Y340673D02*
X606494Y340571D01*
X606555Y340481D01*
X606640Y340403D01*
X606749Y340337D01*
X606882Y340283D01*
X607040Y340241D01*
X607221Y340211D01*
X607427Y340193D01*
X607656Y340187D01*
Y338987D01*
X607429Y338982D01*
X607045Y338941D01*
X606888Y338906D01*
X606756Y338861D01*
X606648Y338806D01*
X606565Y338740D01*
X606504Y338665D01*
X606468Y338580D01*
X606457Y338484D01*
X606445Y340787D01*
X606457Y340673D01*
D02*
G37*
G36*
X614880Y337693D02*
X614703Y337939D01*
X614521Y338159D01*
X614335Y338353D01*
X614145Y338521D01*
X613950Y338663D01*
X613751Y338780D01*
X613547Y338870D01*
X613339Y338935D01*
X613126Y338974D01*
X612909Y338987D01*
X613136Y340187D01*
X613327Y340197D01*
X613528Y340228D01*
X613741Y340279D01*
X613964Y340352D01*
X614197Y340444D01*
X614441Y340558D01*
X614962Y340846D01*
X615238Y341021D01*
X615525Y341217D01*
X614880Y337693D01*
D02*
G37*
G36*
X541562Y345220D02*
X541585Y345004D01*
X541627Y344793D01*
X541687Y344585D01*
X541767Y344381D01*
X541864Y344181D01*
X541981Y343985D01*
X542117Y343793D01*
X542271Y343605D01*
X542444Y343420D01*
X541008Y342027D01*
X540825Y342200D01*
X540637Y342355D01*
X540445Y342492D01*
X540249Y342610D01*
X540049Y342710D01*
X539845Y342793D01*
X539638Y342857D01*
X539426Y342903D01*
X539210Y342931D01*
X538990Y342941D01*
X541558Y345439D01*
X541562Y345220D01*
D02*
G37*
G36*
X572858Y328900D02*
X572701Y329037D01*
X572538Y329135D01*
X572367Y329196D01*
X572188Y329219D01*
X572003Y329203D01*
X571810Y329149D01*
X571610Y329057D01*
X571403Y328927D01*
X571188Y328759D01*
X570967Y328553D01*
X570020Y330434D01*
X572581Y332774D01*
X572858Y328900D01*
D02*
G37*
D14*
X604500Y345953D02*
D03*
Y340047D02*
D03*
D15*
X561600Y312000D02*
D03*
X536400D02*
D03*
D16*
X561484Y400000D02*
D03*
X567390D02*
D03*
X561484Y392500D02*
D03*
X567390D02*
D03*
D17*
X552500Y415000D02*
X557500Y420000D01*
X538500Y419000D02*
X544000Y413500D01*
X539000Y395500D02*
X544000Y400500D01*
X533000Y332000D02*
Y421297D01*
X535703Y424000D01*
X544000Y400500D02*
Y413500D01*
X533000Y332000D02*
X544000Y321000D01*
X553000Y304616D02*
Y328000D01*
X574500Y349500D01*
Y414500D01*
X544000Y308000D02*
Y321000D01*
X542000Y306000D02*
X544000Y308000D01*
X535703Y424000D02*
X542000D01*
X546300Y416700D02*
X546600Y416400D01*
X546300Y416700D02*
Y419700D01*
X542000Y424000D02*
X546300Y419700D01*
X539000Y394500D02*
Y395500D01*
Y394500D02*
X556500Y377000D01*
X560500D01*
X552500Y385500D02*
X557000Y381000D01*
X560500Y387600D02*
X560600D01*
X559000Y384500D02*
X563500D01*
X556500Y387000D02*
X559000Y384500D01*
X556770Y387270D02*
Y389386D01*
X557115Y389731D01*
X560600Y387600D02*
X561484Y388484D01*
X552500Y385500D02*
Y415000D01*
X561484Y388484D02*
Y392500D01*
X556500Y387000D02*
X556770Y387270D01*
X560500Y377000D02*
X565000Y381500D01*
X571500Y387900D02*
Y395496D01*
X571400Y387800D02*
X571500Y387900D01*
X563500Y384500D02*
X567390Y388390D01*
X590500Y387500D02*
Y405552D01*
X592574Y407626D01*
Y407887D01*
X593500Y430500D02*
Y447500D01*
X598000Y452000D01*
X592574Y407887D02*
X607613D01*
X607726Y407774D01*
X598620Y345953D02*
X604500D01*
X583667Y331000D02*
X598620Y345953D01*
X555600Y401000D02*
Y408600D01*
X570500Y423500D01*
X558594Y397844D02*
X559722D01*
X561484Y399606D01*
X556500Y395750D02*
X558594Y397844D01*
X567390Y417106D02*
X571584Y421300D01*
X567390Y400000D02*
Y417106D01*
Y399606D02*
Y400000D01*
X599971Y421300D02*
X608271Y413000D01*
X571584Y421300D02*
X599971D01*
X619000Y423500D02*
X619500Y423000D01*
X570500Y423500D02*
X619000D01*
X567390Y399606D02*
X571500Y395496D01*
X567390Y388390D02*
Y392500D01*
X578500Y354000D02*
Y417500D01*
X582500Y414500D02*
X582500Y414500D01*
X582500Y362000D02*
Y414500D01*
X608271Y413000D02*
X619500D01*
X617000Y347000D02*
X622529Y352529D01*
Y365911D01*
X620500Y367940D02*
X622529Y365911D01*
X620500Y367940D02*
Y369000D01*
X604500Y345953D02*
X604547Y346000D01*
X611000D01*
X612000Y347000D02*
X617000D01*
X611000Y346000D02*
X612000Y347000D01*
X616539Y339587D02*
X617000Y339126D01*
X604961Y339587D02*
X616539D01*
X604500Y340047D02*
X604961Y339587D01*
X553000Y304616D02*
X555216Y302400D01*
X559370D01*
X562005Y305035D01*
X561484Y399606D02*
Y400000D01*
D18*
X572000Y331000D02*
X575000D01*
X568000Y327000D02*
X572000Y331000D01*
X539000Y345450D02*
Y345500D01*
Y345450D02*
X550900Y333550D01*
Y333500D02*
Y333550D01*
X568191Y323809D02*
Y326809D01*
X568000Y327000D02*
X568191Y326809D01*
X556500Y305500D02*
Y305700D01*
X561600Y310800D01*
Y312000D01*
X568191Y323809D02*
X575500Y316500D01*
X536400Y312000D02*
X538500Y314100D01*
Y319475D01*
X587000Y316000D02*
X594000D01*
X583000Y312000D02*
X587000Y316000D01*
X561600Y312000D02*
X583000D01*
D19*
X601000Y331000D02*
D03*
X575000D02*
D03*
X583667D02*
D03*
X592333D02*
D03*
D20*
X617000Y322984D02*
D03*
Y355268D02*
D03*
D21*
Y331252D02*
D03*
Y339126D02*
D03*
Y347000D02*
D03*
X539000Y345500D02*
D03*
Y337626D02*
D03*
Y370374D02*
D03*
Y362500D02*
D03*
X620500Y302000D02*
D03*
Y309874D02*
D03*
Y369000D02*
D03*
Y376874D02*
D03*
D22*
X619500Y443000D02*
D03*
Y433000D02*
D03*
Y423000D02*
D03*
Y413000D02*
D03*
Y403000D02*
D03*
X538500Y439000D02*
D03*
Y429000D02*
D03*
Y419000D02*
D03*
Y409000D02*
D03*
X539000Y395500D02*
D03*
D23*
X619500Y393000D02*
D03*
X538500Y449000D02*
D03*
X539000Y385500D02*
D03*
D24*
X557500Y420000D02*
D03*
X547500Y410000D02*
D03*
X611000Y388500D02*
D03*
X598500Y379500D02*
D03*
Y367500D02*
D03*
X585500Y337500D02*
D03*
X599000Y350500D02*
D03*
X601500Y324000D02*
D03*
X609500Y328500D02*
D03*
X617000Y296500D02*
D03*
X611500Y304500D02*
D03*
X593000Y322500D02*
D03*
X592000Y312000D02*
D03*
X576000Y325000D02*
D03*
Y307000D02*
D03*
X558000Y327000D02*
D03*
X582000Y358000D02*
D03*
X569500Y360500D02*
D03*
X569000Y373500D02*
D03*
X567500Y427500D02*
D03*
X542000Y306000D02*
D03*
X538500Y319475D02*
D03*
X546600Y416400D02*
D03*
X557000Y381000D02*
D03*
X560500Y387600D02*
D03*
X557115Y389731D02*
D03*
X571400Y387800D02*
D03*
X565000Y381500D02*
D03*
X590500Y387500D02*
D03*
X598000Y452000D02*
D03*
X593500Y430500D02*
D03*
X607726Y407774D02*
D03*
X592461Y408000D02*
D03*
X555600Y401000D02*
D03*
X556500Y395750D02*
D03*
X578500Y417500D02*
D03*
X574500Y414500D02*
D03*
X582500D02*
D03*
X582500Y362000D02*
D03*
X550900Y333500D02*
D03*
X568000Y327000D02*
D03*
X578500Y354000D02*
D03*
X556500Y305500D02*
D03*
X562005Y305035D02*
D03*
X575500Y316500D02*
D03*
X594000Y316000D02*
D03*
X614208Y440600D02*
D03*
D25*
X618500Y462500D02*
D03*
X540000D02*
D03*
M02*
