G04*
G04 #@! TF.GenerationSoftware,Altium Limited,Altium Designer,20.2.6 (244)*
G04*
G04 Layer_Color=65535*
%FSLAX25Y25*%
%MOIN*%
G70*
G04*
G04 #@! TF.SameCoordinates,A6CCB582-D0B6-45E9-A08F-E2BB43E87EEB*
G04*
G04*
G04 #@! TF.FilePolarity,Positive*
G04*
G01*
G75*
%ADD10C,0.00787*%
%ADD11C,0.01000*%
%ADD12C,0.00600*%
%ADD13C,0.00394*%
D10*
X628340Y349295D02*
G03*
X628340Y349295I-391J0D01*
G01*
X531520Y337232D02*
G03*
X531520Y338020I0J394D01*
G01*
D02*
G03*
X531520Y337232I0J-394D01*
G01*
Y362106D02*
G03*
X531520Y362894I0J394D01*
G01*
D02*
G03*
X531520Y362106I0J-394D01*
G01*
X627980Y310268D02*
G03*
X627980Y309480I0J-394D01*
G01*
D02*
G03*
X627980Y310268I0J394D01*
G01*
Y377268D02*
G03*
X627980Y376480I0J-394D01*
G01*
D02*
G03*
X627980Y377268I0J394D01*
G01*
X608339Y322197D02*
Y356055D01*
X625661Y322197D02*
Y356055D01*
X614303Y448709D02*
X625248D01*
X614303Y387685D02*
X625248D01*
X614303D02*
Y448709D01*
X625248Y387685D02*
Y448709D01*
X533500Y455299D02*
X543500D01*
Y402543D02*
Y455299D01*
X533500Y402543D02*
Y455299D01*
Y402543D02*
X543500D01*
X533488Y379988D02*
X544512D01*
X533488Y401012D02*
X544512D01*
X533488Y379988D02*
Y401012D01*
X544512Y379988D02*
Y401012D01*
D11*
X589500Y397500D02*
X591500Y399500D01*
X593500Y397500D01*
X591500Y391500D02*
Y398500D01*
X582750Y391500D02*
X584750Y389500D01*
X582750Y391500D02*
X584750Y393500D01*
X582750Y391500D02*
X591250D01*
X559000Y396500D02*
X570000D01*
X605940Y424936D02*
X608564D01*
X607252D01*
Y421000D01*
X609876Y424936D02*
X612500Y421000D01*
Y424936D02*
X609876Y421000D01*
X546000Y427000D02*
Y430936D01*
X547968D01*
X548624Y430280D01*
Y428968D01*
X547968Y428312D01*
X546000D01*
X547312D02*
X548624Y427000D01*
X552560Y430280D02*
X551904Y430936D01*
X550592D01*
X549936Y430280D01*
Y429624D01*
X550592Y428968D01*
X551904D01*
X552560Y428312D01*
Y427656D01*
X551904Y427000D01*
X550592D01*
X549936Y427656D01*
X553871Y430936D02*
X556495D01*
X555183D01*
Y427000D01*
X604629Y434280D02*
X603973Y434936D01*
X602661D01*
X602005Y434280D01*
Y433624D01*
X602661Y432968D01*
X603973D01*
X604629Y432312D01*
Y431656D01*
X603973Y431000D01*
X602661D01*
X602005Y431656D01*
X608564Y434280D02*
X607908Y434936D01*
X606596D01*
X605940Y434280D01*
Y431656D01*
X606596Y431000D01*
X607908D01*
X608564Y431656D01*
X609876Y434936D02*
Y431000D01*
X612500D01*
X605940Y411000D02*
Y414936D01*
X607908D01*
X608564Y414280D01*
Y412968D01*
X607908Y412312D01*
X605940D01*
X607252D02*
X608564Y411000D01*
X609876Y414936D02*
X612500Y411000D01*
Y414936D02*
X609876Y411000D01*
X602005Y404436D02*
Y401812D01*
X603317Y400500D01*
X604629Y401812D01*
Y404436D01*
X608564Y403780D02*
X607908Y404436D01*
X606596D01*
X605940Y403780D01*
Y401156D01*
X606596Y400500D01*
X607908D01*
X608564Y401156D01*
X612500Y403780D02*
X611844Y404436D01*
X610532D01*
X609876Y403780D01*
Y401156D01*
X610532Y400500D01*
X611844D01*
X612500Y401156D01*
X548124Y410780D02*
X547468Y411436D01*
X546156D01*
X545500Y410780D01*
Y408156D01*
X546156Y407500D01*
X547468D01*
X548124Y408156D01*
Y409468D01*
X546812D01*
X549436Y407500D02*
Y411436D01*
X552060Y407500D01*
Y411436D01*
X553371D02*
Y407500D01*
X555339D01*
X555995Y408156D01*
Y410780D01*
X555339Y411436D01*
X553371D01*
X604629Y394280D02*
X603973Y394936D01*
X602661D01*
X602005Y394280D01*
Y391656D01*
X602661Y391000D01*
X603973D01*
X604629Y391656D01*
Y392968D01*
X603317D01*
X605940Y391000D02*
Y394936D01*
X608564Y391000D01*
Y394936D01*
X609876D02*
Y391000D01*
X611844D01*
X612500Y391656D01*
Y394280D01*
X611844Y394936D01*
X609876D01*
X546000Y420936D02*
Y418312D01*
X547312Y417000D01*
X548624Y418312D01*
Y420936D01*
X552560Y420280D02*
X551904Y420936D01*
X550592D01*
X549936Y420280D01*
Y417656D01*
X550592Y417000D01*
X551904D01*
X552560Y417656D01*
X556495Y420280D02*
X555839Y420936D01*
X554527D01*
X553871Y420280D01*
Y417656D01*
X554527Y417000D01*
X555839D01*
X556495Y417656D01*
X548124Y440280D02*
X547468Y440936D01*
X546156D01*
X545500Y440280D01*
Y439624D01*
X546156Y438968D01*
X547468D01*
X548124Y438312D01*
Y437656D01*
X547468Y437000D01*
X546156D01*
X545500Y437656D01*
X549436Y440936D02*
Y437000D01*
X550748Y438312D01*
X552060Y437000D01*
Y440936D01*
X553371D02*
Y437000D01*
X555339D01*
X555995Y437656D01*
Y440280D01*
X555339Y440936D01*
X553371D01*
X559931Y440280D02*
X559275Y440936D01*
X557963D01*
X557307Y440280D01*
Y437656D01*
X557963Y437000D01*
X559275D01*
X559931Y437656D01*
X561243Y440936D02*
Y437000D01*
X563867D01*
X565179Y440936D02*
Y437000D01*
Y438312D01*
X567802Y440936D01*
X565835Y438968D01*
X567802Y437000D01*
X604129Y444280D02*
X603473Y444936D01*
X602161D01*
X601505Y444280D01*
Y443624D01*
X602161Y442968D01*
X603473D01*
X604129Y442312D01*
Y441656D01*
X603473Y441000D01*
X602161D01*
X601505Y441656D01*
X605440Y444936D02*
Y441000D01*
X607408D01*
X608064Y441656D01*
Y444280D01*
X607408Y444936D01*
X605440D01*
X609376Y441000D02*
Y443624D01*
X610688Y444936D01*
X612000Y443624D01*
Y441000D01*
Y442968D01*
X609376D01*
X547624Y450280D02*
X546968Y450936D01*
X545656D01*
X545000Y450280D01*
Y449624D01*
X545656Y448968D01*
X546968D01*
X547624Y448312D01*
Y447656D01*
X546968Y447000D01*
X545656D01*
X545000Y447656D01*
X548936Y450936D02*
Y447000D01*
X550248Y448312D01*
X551560Y447000D01*
Y450936D01*
X552872D02*
Y447000D01*
X554839D01*
X555495Y447656D01*
Y450280D01*
X554839Y450936D01*
X552872D01*
X556807D02*
X558119D01*
X557463D01*
Y447000D01*
X556807D01*
X558119D01*
X562055Y450936D02*
X560743D01*
X560087Y450280D01*
Y447656D01*
X560743Y447000D01*
X562055D01*
X562711Y447656D01*
Y450280D01*
X562055Y450936D01*
X590000Y406436D02*
Y404468D01*
X590656Y403812D01*
X592624D01*
Y403156D01*
X591968Y402500D01*
X591312D01*
X592624Y403812D02*
Y406436D01*
X578000Y392624D02*
X580624Y390000D01*
X579312Y391312D01*
X580624Y392624D01*
X578000Y390000D01*
X596618Y319570D02*
X595962Y318434D01*
X595066Y318194D01*
X593930Y318850D01*
X593690Y319746D01*
X594346Y320882D01*
X595242Y321122D01*
X595810Y320794D01*
X594498Y318522D01*
X595330Y322586D02*
X598914Y323547D01*
X597122Y323067D01*
X596641Y324859D01*
X597602Y321274D01*
X597057Y326891D02*
X597625Y326563D01*
X597297Y325995D01*
X597953Y327131D01*
X597625Y326563D01*
X599330Y325579D01*
X600226Y325819D01*
X575726Y319834D02*
X579134Y317866D01*
X580118Y319570D01*
X579878Y320466D01*
X579310Y320794D01*
X578742Y321122D01*
X577846Y320882D01*
X576862Y319178D01*
X579157Y323154D02*
X579813Y324291D01*
X580710Y324531D01*
X582414Y323547D01*
X581430Y321843D01*
X580534Y321602D01*
X580294Y322498D01*
X581278Y324203D01*
X580557Y326891D02*
X581125Y326563D01*
X580797Y325995D01*
X581453Y327131D01*
X581125Y326563D01*
X582830Y325579D01*
X583726Y325819D01*
X582226Y316334D02*
X585634Y314366D01*
X586618Y316070D01*
X586378Y316966D01*
X585810Y317294D01*
X585242Y317622D01*
X584346Y317382D01*
X583362Y315678D01*
X588586Y319479D02*
X587930Y318343D01*
X587034Y318103D01*
X585898Y318758D01*
X585658Y319654D01*
X586313Y320791D01*
X587210Y321031D01*
X587778Y320703D01*
X586466Y318430D01*
X587297Y322495D02*
X590882Y323455D01*
X589089Y322975D01*
X588609Y324767D01*
X589570Y321183D01*
X589025Y326799D02*
X589593Y326471D01*
X589265Y325903D01*
X589921Y327039D01*
X589593Y326471D01*
X591297Y325487D01*
X592194Y325728D01*
X566037Y313606D02*
X565054Y311902D01*
X565294Y311006D01*
X566430Y310350D01*
X567326Y310590D01*
X568310Y312294D01*
X565557Y315398D02*
X568966Y313430D01*
X567262Y314414D01*
X567021Y315310D01*
X567677Y316447D01*
X568573Y316687D01*
X570278Y315703D01*
X568989Y318719D02*
X569645Y319855D01*
X570541Y320095D01*
X572246Y319111D01*
X571262Y317407D01*
X570365Y317167D01*
X570125Y318063D01*
X571109Y319767D01*
X570629Y321559D02*
X572901Y320247D01*
X571765Y320903D01*
X571525Y321799D01*
X571285Y322695D01*
X571613Y323264D01*
X576661Y324136D02*
X576989Y324704D01*
X576749Y325600D01*
X573909Y327240D01*
X572925Y325536D01*
X573165Y324640D01*
X574301Y323984D01*
X575197Y324224D01*
X576181Y325928D01*
X606468Y336145D02*
X602532D01*
Y338112D01*
X603188Y338768D01*
X604500D01*
X605156Y338112D01*
Y336145D01*
X606468Y340736D02*
Y342048D01*
X605812Y342704D01*
X604500D01*
X603844Y342048D01*
Y340736D01*
X604500Y340080D01*
X605812D01*
X606468Y340736D01*
X603844Y344016D02*
X605812D01*
X606468Y344672D01*
X605812Y345328D01*
X606468Y345984D01*
X605812Y346640D01*
X603844D01*
X606468Y349920D02*
Y348608D01*
X605812Y347952D01*
X604500D01*
X603844Y348608D01*
Y349920D01*
X604500Y350576D01*
X605156D01*
Y347952D01*
X603844Y351887D02*
X606468D01*
X605156D01*
X604500Y352543D01*
X603844Y353199D01*
Y353855D01*
X546876Y314468D02*
Y310532D01*
X549500D01*
X550812D02*
X552124D01*
X551468D01*
Y314468D01*
X550812Y313812D01*
X547032Y400667D02*
X549656D01*
X550968Y399355D01*
X549656Y398043D01*
X547032D01*
X549000D01*
Y400667D01*
X547032Y396732D02*
Y395420D01*
Y396076D01*
X549656D01*
Y396732D01*
X547032Y393452D02*
X549656D01*
Y392796D01*
X549000Y392140D01*
X547032D01*
X549000D01*
X549656Y391484D01*
X549000Y390828D01*
X547032D01*
X549656Y388860D02*
Y387548D01*
X549000Y386892D01*
X547032D01*
Y388860D01*
X547688Y389516D01*
X548344Y388860D01*
Y386892D01*
X547032Y385580D02*
X549656D01*
Y383612D01*
X549000Y382957D01*
X547032D01*
X550312Y380989D02*
X549656D01*
Y381645D01*
Y380333D01*
Y380989D01*
X547688D01*
X547032Y380333D01*
X567032Y378355D02*
X570968D01*
Y376388D01*
X570312Y375732D01*
X569000D01*
X568344Y376388D01*
Y378355D01*
X567032Y373764D02*
Y372452D01*
X567688Y371796D01*
X569000D01*
X569656Y372452D01*
Y373764D01*
X569000Y374420D01*
X567688D01*
X567032Y373764D01*
X569656Y370484D02*
X567688D01*
X567032Y369828D01*
X567688Y369172D01*
X567032Y368516D01*
X567688Y367860D01*
X569656D01*
X567032Y364580D02*
Y365892D01*
X567688Y366548D01*
X569000D01*
X569656Y365892D01*
Y364580D01*
X569000Y363924D01*
X568344D01*
Y366548D01*
X569656Y362612D02*
X567032D01*
X568344D01*
X569000Y361957D01*
X569656Y361300D01*
Y360645D01*
X590032Y298440D02*
X592656D01*
X593968Y299752D01*
X592656Y301064D01*
X590032D01*
X593968Y304344D02*
Y303032D01*
X593312Y302376D01*
X592000D01*
X591344Y303032D01*
Y304344D01*
X592000Y305000D01*
X592656D01*
Y302376D01*
X591344Y306312D02*
X593968Y308936D01*
X592656Y307624D01*
X591344Y308936D01*
X593968Y306312D01*
X590688Y310904D02*
X591344D01*
Y310248D01*
Y311560D01*
Y310904D01*
X593312D01*
X593968Y311560D01*
X548284Y457688D02*
Y461624D01*
X550252D01*
X550908Y460968D01*
Y459656D01*
X550252Y459000D01*
X548284D01*
X552220Y460312D02*
Y457688D01*
Y459000D01*
X552876Y459656D01*
X553532Y460312D01*
X554188D01*
X556812Y457688D02*
X558124D01*
X558780Y458344D01*
Y459656D01*
X558124Y460312D01*
X556812D01*
X556156Y459656D01*
Y458344D01*
X556812Y457688D01*
X561404Y456376D02*
X562060D01*
X562715Y457032D01*
Y460312D01*
X560748D01*
X560092Y459656D01*
Y458344D01*
X560748Y457688D01*
X562715D01*
X598440Y461968D02*
Y458032D01*
X601064D01*
X602376D02*
X603688D01*
X603032D01*
Y460656D01*
X602376D01*
X605656Y458032D02*
Y460656D01*
X607624D01*
X608280Y460000D01*
Y458032D01*
X609592D02*
Y461968D01*
Y459344D02*
X611560Y460656D01*
X609592Y459344D02*
X611560Y458032D01*
X590032Y366408D02*
X593968D01*
Y368376D01*
X593312Y369032D01*
X592656D01*
X592000Y368376D01*
Y366408D01*
Y368376D01*
X591344Y369032D01*
X590688D01*
X590032Y368376D01*
Y366408D01*
X591344Y371000D02*
Y372312D01*
X592000Y372968D01*
X593968D01*
Y371000D01*
X593312Y370344D01*
X592656Y371000D01*
Y372968D01*
X590688Y374936D02*
X591344D01*
Y374280D01*
Y375592D01*
Y374936D01*
X593312D01*
X593968Y375592D01*
X566532Y356119D02*
X569156D01*
X570468Y354807D01*
X569156Y353495D01*
X566532D01*
X568500D01*
Y356119D01*
X566532Y352183D02*
Y350871D01*
Y351527D01*
X570468D01*
Y352183D01*
X566532Y348904D02*
Y347592D01*
Y348248D01*
X569156D01*
Y348904D01*
X566532Y345624D02*
X569156D01*
Y344968D01*
X568500Y344312D01*
X566532D01*
X568500D01*
X569156Y343656D01*
X568500Y343000D01*
X566532D01*
Y341688D02*
X567188D01*
Y341032D01*
X566532D01*
Y341688D01*
X567188Y331849D02*
X569812D01*
X570468Y332505D01*
Y333817D01*
X569812Y334473D01*
X567188D01*
X566532Y333817D01*
Y332505D01*
X567844Y333161D02*
X566532Y331849D01*
Y332505D02*
X567188Y331849D01*
X566532Y330537D02*
X567188D01*
Y329881D01*
X566532D01*
Y330537D01*
D12*
X564850Y296150D02*
Y306344D01*
X533150Y296150D02*
X564850D01*
X533150Y317656D02*
Y327850D01*
X564850D01*
X574800Y310500D02*
Y313500D01*
X573300Y312000D02*
X576300D01*
X533150Y296150D02*
Y306344D01*
X564850Y317656D02*
Y327850D01*
D13*
X533685Y329949D02*
Y331720D01*
Y329949D02*
X563606D01*
Y353177D01*
X533685D02*
X563606D01*
X533685Y351406D02*
Y353177D01*
Y354823D02*
Y356594D01*
Y354823D02*
X563606D01*
Y378051D01*
X533685D02*
X563606D01*
X533685Y376280D02*
Y378051D01*
X625815Y315780D02*
Y317551D01*
X595894D02*
X625815D01*
X595894Y294323D02*
Y317551D01*
Y294323D02*
X625815D01*
Y296094D01*
Y382780D02*
Y384551D01*
X595894D02*
X625815D01*
X595894Y361323D02*
Y384551D01*
Y361323D02*
X625815D01*
Y363094D01*
M02*
