G04*
G04 #@! TF.GenerationSoftware,Altium Limited,Altium Designer,20.2.6 (244)*
G04*
G04 Layer_Physical_Order=2*
G04 Layer_Color=16711680*
%FSLAX25Y25*%
%MOIN*%
G70*
G04*
G04 #@! TF.SameCoordinates,8F5FEA60-E90C-4FE4-B264-904F0C7A51F9*
G04*
G04*
G04 #@! TF.FilePolarity,Positive*
G04*
G01*
G75*
%ADD14R,0.03937X0.03150*%
%ADD17C,0.01200*%
%ADD18C,0.02000*%
%ADD19C,0.06000*%
%ADD20C,0.08858*%
%ADD21C,0.05118*%
%ADD22C,0.05906*%
%ADD23R,0.05906X0.05906*%
%ADD24C,0.03000*%
%ADD25C,0.09843*%
%ADD26R,0.03937X0.01575*%
%ADD27R,0.05512X0.03150*%
%ADD28R,0.05512X0.01575*%
%ADD29R,0.01575X0.05512*%
%ADD30R,0.05118X0.03937*%
%ADD31R,0.10630X0.10236*%
%ADD32R,0.01378X0.03347*%
%ADD33R,0.03150X0.01378*%
%ADD34R,0.05000X0.05000*%
%ADD35R,0.02362X0.04724*%
%ADD36R,0.05000X0.05000*%
%ADD37R,0.03937X0.05118*%
%ADD38R,0.06102X0.08661*%
%ADD39R,0.04724X0.02362*%
%ADD40R,0.02362X0.02362*%
G04:AMPARAMS|DCode=41|XSize=51.18mil|YSize=29.92mil|CornerRadius=3.74mil|HoleSize=0mil|Usage=FLASHONLY|Rotation=90.000|XOffset=0mil|YOffset=0mil|HoleType=Round|Shape=RoundedRectangle|*
%AMROUNDEDRECTD41*
21,1,0.05118,0.02244,0,0,90.0*
21,1,0.04370,0.02992,0,0,90.0*
1,1,0.00748,0.01122,0.02185*
1,1,0.00748,0.01122,-0.02185*
1,1,0.00748,-0.01122,-0.02185*
1,1,0.00748,-0.01122,0.02185*
%
%ADD41ROUNDEDRECTD41*%
%ADD42R,0.03543X0.03543*%
%ADD43R,0.05906X0.04724*%
%ADD44R,0.04724X0.05906*%
%ADD45R,0.04331X0.02559*%
%ADD46R,0.02756X0.02362*%
%ADD47R,0.02200X0.05000*%
G36*
X627480Y301000D02*
X627481Y300997D01*
X627357Y299736D01*
X626988Y298520D01*
X626389Y297399D01*
X625583Y296417D01*
X624601Y295611D01*
X623480Y295012D01*
X622264Y294643D01*
X621003Y294519D01*
X621000Y294520D01*
X619285D01*
X619018Y295020D01*
X619355Y295525D01*
X619450Y296000D01*
X614550D01*
X614645Y295525D01*
X614982Y295020D01*
X614715Y294520D01*
X573184D01*
X573099Y294984D01*
X573098Y295020D01*
Y297453D01*
X569539D01*
X565980D01*
Y295020D01*
X565980Y294984D01*
X565895Y294520D01*
X537500D01*
X537497Y294519D01*
X536236Y294643D01*
X535020Y295012D01*
X533899Y295611D01*
X532917Y296417D01*
X532111Y297399D01*
X531512Y298520D01*
X531143Y299736D01*
X531019Y300997D01*
X531020Y301000D01*
Y456000D01*
X548134D01*
Y453961D01*
X551890D01*
X555646D01*
Y456000D01*
X584354D01*
Y453961D01*
X588110D01*
X591866D01*
Y456000D01*
X627480D01*
Y301000D01*
D02*
G37*
%LPC*%
G36*
X607000Y454622D02*
X607000Y454622D01*
X599500D01*
X599500Y454622D01*
X599071Y454536D01*
X598707Y454293D01*
X598378Y453964D01*
X598000Y454039D01*
X597220Y453884D01*
X596558Y453442D01*
X596116Y452780D01*
X595961Y452000D01*
X596036Y451622D01*
X595707Y451293D01*
X595464Y450929D01*
X595378Y450500D01*
X595378Y450500D01*
Y450146D01*
X595359Y450102D01*
X595353Y449891D01*
X595339Y449724D01*
X595317Y449591D01*
X595290Y449494D01*
X595265Y449433D01*
X595263Y449428D01*
X595243Y449426D01*
X595195Y449400D01*
X593500D01*
Y443400D01*
X599500D01*
Y449400D01*
X598223D01*
X598168Y449484D01*
X598403Y450041D01*
X598780Y450116D01*
X599442Y450558D01*
X599884Y451220D01*
X600039Y452000D01*
X600474Y452378D01*
X606535D01*
X608251Y450663D01*
X608267Y450620D01*
X608695Y450159D01*
X608841Y449977D01*
X608952Y449816D01*
X609000Y449732D01*
Y449362D01*
X608971Y449291D01*
X608988Y449250D01*
X608977Y449206D01*
X609000Y449170D01*
Y446022D01*
X606600D01*
Y451500D01*
X600600D01*
Y445500D01*
X602314D01*
X602327Y445438D01*
X602355Y445162D01*
X602359Y444988D01*
X602378Y444944D01*
Y443465D01*
X601685Y442771D01*
X592108D01*
X592063Y442791D01*
X591643Y442798D01*
X591366Y442815D01*
Y442937D01*
X590925D01*
X590854Y442966D01*
X590784Y442937D01*
X584854D01*
Y440681D01*
X584854Y440362D01*
X584854D01*
Y440181D01*
X584854D01*
Y437606D01*
X584486Y437288D01*
X584375Y437281D01*
X584162Y437279D01*
X584116Y437259D01*
X581754D01*
X581754Y437259D01*
X581324Y437174D01*
X580961Y436931D01*
X580961Y436931D01*
X573707Y429677D01*
X573464Y429313D01*
X573378Y428884D01*
X573378Y428884D01*
Y416156D01*
X573058Y415942D01*
X572616Y415280D01*
X572461Y414500D01*
X572616Y413720D01*
X573058Y413058D01*
X573720Y412616D01*
X574500Y412461D01*
X575280Y412616D01*
X575942Y413058D01*
X576384Y413720D01*
X576539Y414500D01*
X576384Y415280D01*
X575942Y415942D01*
X575622Y416156D01*
Y428419D01*
X582218Y435016D01*
X583509D01*
X583730Y434516D01*
X583718Y434503D01*
X583289Y434418D01*
X582925Y434175D01*
X582925Y434175D01*
X577707Y428957D01*
X577464Y428593D01*
X577378Y428163D01*
X577378Y428163D01*
Y419156D01*
X577058Y418942D01*
X576616Y418280D01*
X576461Y417500D01*
X576616Y416720D01*
X577058Y416058D01*
X577720Y415616D01*
X578500Y415461D01*
X579280Y415616D01*
X579942Y416058D01*
X580384Y416720D01*
X580539Y417500D01*
X580384Y418280D01*
X579942Y418942D01*
X579622Y419156D01*
Y427699D01*
X584163Y432241D01*
X584488Y432235D01*
X584854Y431913D01*
Y430925D01*
X584786Y430857D01*
X584470Y430794D01*
X584106Y430550D01*
X584106Y430550D01*
X581707Y428152D01*
X581464Y427788D01*
X581378Y427359D01*
X581378Y427359D01*
Y416156D01*
X581058Y415942D01*
X580616Y415280D01*
X580461Y414500D01*
X580616Y413720D01*
X581058Y413058D01*
X581720Y412616D01*
X582500Y412461D01*
X583280Y412616D01*
X583942Y413058D01*
X584384Y413720D01*
X584539Y414500D01*
X584384Y415280D01*
X583942Y415942D01*
X583622Y416156D01*
Y426894D01*
X584392Y427665D01*
X584854Y427474D01*
Y426583D01*
X584854D01*
Y426402D01*
X584854D01*
Y423827D01*
X584854D01*
Y423646D01*
X584854D01*
Y421071D01*
X584854D01*
Y420890D01*
X584854D01*
Y418315D01*
X584854Y418315D01*
Y418134D01*
X584854D01*
X584854Y417815D01*
Y415559D01*
X588935D01*
X588939Y415556D01*
X588958Y415559D01*
X588990D01*
X589021Y415543D01*
X589069Y415559D01*
X589499D01*
X589599Y415501D01*
X589752Y415394D01*
X590155Y415054D01*
X590383Y414833D01*
X590429Y414815D01*
X590958Y414286D01*
X591322Y414043D01*
X591718Y413964D01*
X591782Y413865D01*
X591918Y413457D01*
X591668Y413206D01*
X591424Y412843D01*
X591339Y412413D01*
X591339Y412413D01*
Y409656D01*
X591019Y409442D01*
X590577Y408780D01*
X590421Y408000D01*
X590577Y407220D01*
X591019Y406558D01*
X591339Y406344D01*
Y405761D01*
X591320Y405718D01*
X591314Y405504D01*
X591299Y405335D01*
X591277Y405200D01*
X591250Y405100D01*
X591225Y405038D01*
X591222Y405032D01*
X591203Y405030D01*
X591177Y405016D01*
X589402D01*
Y400079D01*
X595520D01*
Y405016D01*
X593744D01*
X593718Y405030D01*
X593700Y405032D01*
X593696Y405038D01*
X593671Y405100D01*
X593644Y405200D01*
X593622Y405335D01*
X593607Y405504D01*
X593602Y405718D01*
X593582Y405761D01*
Y406344D01*
X593902Y406558D01*
X594345Y407220D01*
X594500Y408000D01*
X594345Y408780D01*
X593902Y409442D01*
X593582Y409656D01*
Y411949D01*
X594777Y413144D01*
X594822Y413161D01*
X594982Y413314D01*
X595130Y413440D01*
X595273Y413548D01*
X595412Y413639D01*
X595546Y413714D01*
X595675Y413772D01*
X595799Y413817D01*
X595919Y413847D01*
X596035Y413866D01*
X596176Y413873D01*
X596210Y413890D01*
X596685D01*
Y413882D01*
X596890D01*
Y410051D01*
X598358D01*
Y409551D01*
X599547D01*
Y412224D01*
X600547D01*
Y409551D01*
X600874D01*
X600875Y409361D01*
X600894Y409314D01*
Y408480D01*
X600207Y407793D01*
X599964Y407429D01*
X599878Y407000D01*
X599878Y407000D01*
Y405762D01*
X599859Y405718D01*
X599853Y405507D01*
X599839Y405340D01*
X599817Y405207D01*
X599790Y405109D01*
X599765Y405049D01*
X599763Y405044D01*
X599743Y405042D01*
X599695Y405016D01*
X597902D01*
Y400079D01*
X604020D01*
Y405016D01*
X602305D01*
X602257Y405042D01*
X602237Y405044D01*
X602235Y405049D01*
X602210Y405109D01*
X602183Y405207D01*
X602161Y405340D01*
X602147Y405507D01*
X602141Y405718D01*
X602122Y405762D01*
Y406535D01*
X602809Y407223D01*
X602809Y407223D01*
X603052Y407587D01*
X603137Y408016D01*
X603137Y408016D01*
Y409309D01*
X603157Y409354D01*
X603168Y410051D01*
X604790D01*
X604811Y409723D01*
X604812Y409545D01*
X604850Y409454D01*
X604917Y409118D01*
X605160Y408754D01*
X605762Y408151D01*
X605687Y407774D01*
X605842Y406993D01*
X606285Y406332D01*
X606946Y405890D01*
X607726Y405734D01*
X607949Y405779D01*
X608206Y405574D01*
X608316Y405455D01*
X608219Y404970D01*
X608217Y404969D01*
X606441D01*
Y400032D01*
X612559D01*
Y401717D01*
X612573Y401743D01*
X612575Y401761D01*
X612581Y401765D01*
X612643Y401790D01*
X612743Y401816D01*
X612878Y401839D01*
X613047Y401853D01*
X613261Y401859D01*
X613305Y401878D01*
X614765D01*
X614802Y401860D01*
X614996Y401847D01*
X615167Y401815D01*
X615352Y401758D01*
X615551Y401675D01*
X615765Y401563D01*
X615991Y401422D01*
X616223Y401255D01*
X616741Y400812D01*
X617013Y400547D01*
X617040Y400535D01*
X617759Y399984D01*
X618599Y399636D01*
X619500Y399517D01*
X620401Y399636D01*
X621241Y399984D01*
X621962Y400537D01*
X622516Y401259D01*
X622864Y402099D01*
X622983Y403000D01*
X622864Y403901D01*
X622516Y404741D01*
X621962Y405463D01*
X621241Y406016D01*
X620401Y406364D01*
X619500Y406483D01*
X618599Y406364D01*
X617759Y406016D01*
X617051Y405473D01*
X617021Y405461D01*
X616473Y404947D01*
X616229Y404749D01*
X615991Y404578D01*
X615765Y404437D01*
X615552Y404325D01*
X615352Y404242D01*
X615167Y404185D01*
X614996Y404153D01*
X614802Y404140D01*
X614765Y404121D01*
X613305D01*
X613261Y404141D01*
X613047Y404147D01*
X612878Y404161D01*
X612743Y404184D01*
X612643Y404210D01*
X612581Y404235D01*
X612575Y404239D01*
X612573Y404257D01*
X612559Y404283D01*
Y404969D01*
X610783D01*
X610757Y404983D01*
X610739Y404985D01*
X610735Y404991D01*
X610710Y405053D01*
X610684Y405152D01*
X610661Y405288D01*
X610647Y405457D01*
X610641Y405671D01*
X610622Y405714D01*
Y406000D01*
X610622Y406000D01*
X610536Y406429D01*
X610293Y406793D01*
X609690Y407396D01*
X609766Y407774D01*
X609610Y408554D01*
X609168Y409215D01*
X608666Y409551D01*
X608818Y410051D01*
X609110D01*
Y413882D01*
X609315D01*
Y413890D01*
X612949D01*
Y415858D01*
Y419795D01*
Y423232D01*
X613449D01*
Y424421D01*
X610874D01*
Y425421D01*
X613449D01*
Y426610D01*
X613931Y426654D01*
X617993D01*
X618092Y426154D01*
X617759Y426016D01*
X617037Y425462D01*
X616484Y424741D01*
X616136Y423901D01*
X616017Y423000D01*
X616136Y422099D01*
X616484Y421259D01*
X617037Y420538D01*
X617759Y419984D01*
X618599Y419636D01*
X619500Y419518D01*
X620401Y419636D01*
X621241Y419984D01*
X621962Y420538D01*
X622516Y421259D01*
X622864Y422099D01*
X622983Y423000D01*
X622864Y423901D01*
X622516Y424741D01*
X621962Y425462D01*
X621241Y426016D01*
X620881Y426165D01*
X620932Y426685D01*
X621205Y426739D01*
X621569Y426982D01*
X624793Y430207D01*
X625036Y430571D01*
X625122Y431000D01*
X625122Y431000D01*
Y438500D01*
X625122Y438500D01*
X625036Y438929D01*
X624793Y439293D01*
X624793Y439293D01*
X623641Y440445D01*
X623628Y440484D01*
X623500Y440630D01*
X623402Y440774D01*
X623311Y440945D01*
X623229Y441145D01*
X623157Y441375D01*
X623097Y441634D01*
X623051Y441917D01*
X622998Y442596D01*
X622994Y442976D01*
X622982Y443003D01*
X622864Y443901D01*
X622516Y444741D01*
X621962Y445463D01*
X621241Y446016D01*
X620401Y446364D01*
X619500Y446483D01*
X618599Y446364D01*
X617759Y446016D01*
X617677Y445953D01*
X617618Y445944D01*
X616904Y445507D01*
X616594Y445336D01*
X616016Y445055D01*
X615773Y444957D01*
X615550Y444882D01*
X615355Y444832D01*
X615190Y444803D01*
X615183Y444803D01*
X614850Y445137D01*
X615000Y445500D01*
X615000D01*
Y451500D01*
X611330D01*
X611294Y451523D01*
X611250Y451512D01*
X611209Y451529D01*
X611138Y451500D01*
X610768D01*
X610684Y451548D01*
X610529Y451655D01*
X610121Y452001D01*
X609888Y452226D01*
X609842Y452244D01*
X607793Y454293D01*
X607429Y454536D01*
X607000Y454622D01*
D02*
G37*
G36*
X591866Y452961D02*
X588610D01*
Y450886D01*
X591866D01*
Y452961D01*
D02*
G37*
G36*
X587610D02*
X584354D01*
Y450886D01*
X587610D01*
Y452961D01*
D02*
G37*
G36*
X555646D02*
X551890D01*
X548134D01*
Y450886D01*
X548634D01*
Y448949D01*
X548634Y448630D01*
X548266Y448311D01*
X548155Y448304D01*
X547942Y448303D01*
X547895Y448283D01*
X542699D01*
X542655Y448302D01*
X542442Y448308D01*
X542273Y448323D01*
X542138Y448345D01*
X542039Y448372D01*
X541976Y448397D01*
X541969Y448401D01*
X541967Y448421D01*
X541953Y448446D01*
Y452453D01*
X535047D01*
Y445547D01*
X541329D01*
X541373Y445522D01*
X541409Y445532D01*
X541444Y445518D01*
X541513Y445547D01*
X541953D01*
Y445936D01*
X542020Y445960D01*
X542117Y445981D01*
X542447Y446016D01*
X542653Y446020D01*
X542697Y446040D01*
X547256D01*
X547461Y445540D01*
X547448Y445527D01*
X543906D01*
X543476Y445442D01*
X543113Y445199D01*
X543113Y445199D01*
X541055Y443142D01*
X541016Y443128D01*
X540870Y443000D01*
X540726Y442902D01*
X540555Y442811D01*
X540355Y442729D01*
X540125Y442657D01*
X539866Y442597D01*
X539583Y442551D01*
X538904Y442498D01*
X538524Y442494D01*
X538497Y442482D01*
X537599Y442364D01*
X536759Y442016D01*
X536037Y441463D01*
X535484Y440741D01*
X535136Y439901D01*
X535017Y439000D01*
X535136Y438099D01*
X535484Y437259D01*
X536037Y436538D01*
X536759Y435984D01*
X537599Y435636D01*
X538500Y435518D01*
X539401Y435636D01*
X540241Y435984D01*
X540963Y436538D01*
X541516Y437259D01*
X541864Y438099D01*
X541980Y438983D01*
X541994Y439013D01*
X542017Y439764D01*
X542050Y440076D01*
X542097Y440366D01*
X542157Y440625D01*
X542229Y440855D01*
X542311Y441055D01*
X542402Y441226D01*
X542500Y441370D01*
X542628Y441516D01*
X542641Y441555D01*
X544370Y443284D01*
X547892D01*
X547937Y443264D01*
X548095Y443262D01*
X548430Y442827D01*
X548325Y442519D01*
X548223Y442498D01*
X547859Y442255D01*
X547859Y442255D01*
X543207Y437603D01*
X542964Y437239D01*
X542878Y436810D01*
X542878Y436810D01*
Y434965D01*
X541055Y433142D01*
X541016Y433128D01*
X540870Y433000D01*
X540726Y432902D01*
X540555Y432811D01*
X540355Y432729D01*
X540125Y432657D01*
X539866Y432597D01*
X539583Y432551D01*
X538904Y432498D01*
X538524Y432494D01*
X538497Y432482D01*
X537599Y432364D01*
X536759Y432016D01*
X536037Y431462D01*
X535484Y430741D01*
X535136Y429901D01*
X535017Y429000D01*
X535136Y428099D01*
X535484Y427259D01*
X536037Y426538D01*
X536759Y425984D01*
X537599Y425636D01*
X538500Y425518D01*
X539401Y425636D01*
X540241Y425984D01*
X540963Y426538D01*
X541516Y427259D01*
X541864Y428099D01*
X541980Y428983D01*
X541994Y429013D01*
X542017Y429764D01*
X542050Y430076D01*
X542097Y430366D01*
X542157Y430625D01*
X542229Y430855D01*
X542311Y431055D01*
X542402Y431226D01*
X542500Y431370D01*
X542628Y431516D01*
X542641Y431555D01*
X544793Y433707D01*
X544793Y433707D01*
X545036Y434071D01*
X545122Y434500D01*
Y436345D01*
X548172Y439396D01*
X548634Y439205D01*
X548634Y437606D01*
X548634Y437106D01*
Y435169D01*
X548634Y434850D01*
X548634Y434350D01*
Y432413D01*
X548634Y432094D01*
X548634Y431594D01*
Y429657D01*
X548634Y429339D01*
X548634Y428839D01*
Y426902D01*
X548634Y426583D01*
X548634Y426083D01*
Y424146D01*
X548634Y423827D01*
X548634Y423327D01*
Y421390D01*
X548634Y421071D01*
X548410Y420664D01*
X548150Y420644D01*
X547939Y420641D01*
X547893Y420622D01*
X544203D01*
X544203Y420622D01*
X543774Y420536D01*
X543410Y420293D01*
X543410Y420293D01*
X542707Y419590D01*
X542464Y419226D01*
X542460Y419206D01*
X541953Y419222D01*
X541864Y419901D01*
X541516Y420741D01*
X540963Y421462D01*
X540241Y422016D01*
X539401Y422364D01*
X538500Y422482D01*
X537599Y422364D01*
X536759Y422016D01*
X536037Y421462D01*
X535484Y420741D01*
X535136Y419901D01*
X535017Y419000D01*
X535136Y418099D01*
X535484Y417259D01*
X536037Y416538D01*
X536759Y415984D01*
X537599Y415636D01*
X538500Y415518D01*
X539401Y415636D01*
X540241Y415984D01*
X540963Y416538D01*
X541516Y417259D01*
X541864Y418099D01*
X541878Y418209D01*
X542378Y418177D01*
Y411221D01*
X542284Y411171D01*
X541878Y411090D01*
X541319Y411819D01*
X540493Y412453D01*
X539532Y412851D01*
X539000Y412921D01*
Y409000D01*
Y405079D01*
X539532Y405149D01*
X540493Y405547D01*
X541319Y406181D01*
X541953Y407007D01*
X542325Y407906D01*
X542341Y407918D01*
X542549Y407999D01*
X542866Y408048D01*
X545661Y405253D01*
X546000Y404900D01*
X545979Y404409D01*
X545971Y404388D01*
X545999Y404319D01*
X545999Y404316D01*
X546000Y404314D01*
Y398900D01*
X551842D01*
X552246Y398561D01*
X552278Y398515D01*
Y396885D01*
X552000Y396500D01*
X551778Y396500D01*
X546000D01*
Y390500D01*
X547717D01*
X547743Y390486D01*
X547761Y390484D01*
X547765Y390478D01*
X547790Y390416D01*
X547816Y390316D01*
X547839Y390181D01*
X547853Y390012D01*
X547859Y389798D01*
X547878Y389754D01*
Y389246D01*
X547859Y389202D01*
X547853Y388991D01*
X547839Y388824D01*
X547817Y388691D01*
X547790Y388594D01*
X547765Y388533D01*
X547763Y388528D01*
X547743Y388526D01*
X547695Y388500D01*
X546000D01*
Y386783D01*
X545986Y386757D01*
X545984Y386739D01*
X545978Y386735D01*
X545916Y386710D01*
X545816Y386684D01*
X545681Y386661D01*
X545512Y386647D01*
X545298Y386641D01*
X545254Y386621D01*
X543199D01*
X543155Y386641D01*
X542941Y386647D01*
X542772Y386661D01*
X542637Y386684D01*
X542537Y386710D01*
X542475Y386735D01*
X542469Y386739D01*
X542467Y386757D01*
X542453Y386783D01*
Y388953D01*
X535547D01*
Y382047D01*
X542453D01*
Y384217D01*
X542467Y384243D01*
X542469Y384261D01*
X542475Y384265D01*
X542537Y384290D01*
X542637Y384316D01*
X542772Y384339D01*
X542941Y384353D01*
X543155Y384359D01*
X543199Y384379D01*
X545254D01*
X545298Y384359D01*
X545512Y384353D01*
X545681Y384339D01*
X545816Y384316D01*
X545916Y384290D01*
X545978Y384265D01*
X545984Y384261D01*
X545986Y384243D01*
X546000Y384217D01*
Y382500D01*
X552000D01*
Y388500D01*
X550305D01*
X550257Y388526D01*
X550237Y388528D01*
X550235Y388533D01*
X550210Y388594D01*
X550183Y388691D01*
X550161Y388824D01*
X550147Y388991D01*
X550141Y389202D01*
X550122Y389246D01*
Y389754D01*
X550141Y389798D01*
X550147Y390012D01*
X550161Y390181D01*
X550184Y390316D01*
X550210Y390416D01*
X550235Y390478D01*
X550239Y390484D01*
X550257Y390486D01*
X550283Y390500D01*
X552000D01*
Y392661D01*
X552500Y392812D01*
X552607Y392652D01*
X555151Y390108D01*
X555076Y389731D01*
X555231Y388950D01*
X555673Y388289D01*
X556334Y387847D01*
X557115Y387691D01*
X557895Y387847D01*
X558016Y387928D01*
X558466Y387627D01*
X558461Y387600D01*
X558616Y386820D01*
X559058Y386158D01*
X559720Y385716D01*
X560500Y385561D01*
X561280Y385716D01*
X561942Y386158D01*
X562319Y386723D01*
X563344D01*
X563344Y386723D01*
X563774Y386808D01*
X564138Y387051D01*
X565293Y388207D01*
X565293Y388207D01*
X565536Y388571D01*
X565622Y389000D01*
X565622Y389000D01*
Y391179D01*
X566122Y391378D01*
X566878Y390621D01*
Y390400D01*
X566878Y390400D01*
X566964Y389971D01*
X567207Y389607D01*
X569216Y387598D01*
X569245Y387549D01*
X569253Y387547D01*
X569257Y387541D01*
X569313Y387501D01*
X569447Y387367D01*
X569516Y387020D01*
X569958Y386358D01*
X570013Y386321D01*
X569861Y385822D01*
X563816D01*
X563816Y385822D01*
X563387Y385736D01*
X563023Y385493D01*
X563023Y385493D01*
X561107Y383577D01*
X560864Y383213D01*
X560778Y382784D01*
X560778Y382784D01*
Y374364D01*
X558104Y371690D01*
X558060Y371674D01*
X557598Y371244D01*
X557414Y371096D01*
X557252Y370983D01*
X557180Y370941D01*
X556946D01*
X556874Y370983D01*
X556718Y371092D01*
X556308Y371440D01*
X556073Y371667D01*
X556027Y371685D01*
X553919Y373793D01*
X553555Y374036D01*
X553126Y374122D01*
X553126Y374121D01*
X552500D01*
Y376600D01*
X549000D01*
X545500D01*
Y374793D01*
X545000Y374586D01*
X544760Y374826D01*
X544396Y375069D01*
X543967Y375155D01*
X543967Y375155D01*
X537484D01*
X537484Y375155D01*
X537055Y375069D01*
X536691Y374826D01*
X536691Y374826D01*
X534548Y372683D01*
X534305Y372319D01*
X534219Y371890D01*
X534219Y371890D01*
Y366159D01*
X534219Y366159D01*
X534305Y365730D01*
X534548Y365366D01*
X535313Y364601D01*
X535327Y364561D01*
X535445Y364428D01*
X535534Y364302D01*
X535616Y364157D01*
X535689Y363991D01*
X535753Y363804D01*
X535806Y363594D01*
X535847Y363369D01*
X535896Y362822D01*
X535900Y362519D01*
X535918Y362478D01*
X536020Y361701D01*
X536328Y360957D01*
X536818Y360318D01*
X537457Y359828D01*
X538201Y359520D01*
X539000Y359415D01*
X539799Y359520D01*
X540543Y359828D01*
X541182Y360318D01*
X541672Y360957D01*
X541980Y361701D01*
X542086Y362500D01*
X541980Y363299D01*
X541672Y364043D01*
X541182Y364682D01*
X540543Y365172D01*
X539799Y365480D01*
X539022Y365582D01*
X538981Y365600D01*
X538670Y365604D01*
X538393Y365621D01*
X538138Y365651D01*
X537906Y365694D01*
X537696Y365747D01*
X537509Y365811D01*
X537343Y365884D01*
X537198Y365966D01*
X537072Y366055D01*
X536939Y366173D01*
X536899Y366187D01*
X536462Y366624D01*
Y367885D01*
X536963Y368082D01*
X537457Y367702D01*
X538201Y367394D01*
X539000Y367288D01*
X539799Y367394D01*
X540543Y367702D01*
X541071Y368108D01*
X541143Y368134D01*
X541375Y368348D01*
X541591Y368529D01*
X541799Y368686D01*
X542000Y368820D01*
X542191Y368929D01*
X542373Y369016D01*
X542545Y369081D01*
X542707Y369126D01*
X542860Y369151D01*
X543035Y369161D01*
X543074Y369180D01*
X544203D01*
X544247Y369161D01*
X544460Y369155D01*
X544628Y369140D01*
X544763Y369118D01*
X544863Y369091D01*
X544925Y369066D01*
X544933Y369061D01*
X544935Y369041D01*
X544949Y369016D01*
Y361740D01*
X552051D01*
Y363195D01*
X552077Y363243D01*
X552079Y363263D01*
X552084Y363265D01*
X552145Y363290D01*
X552242Y363316D01*
X552376Y363339D01*
X552542Y363353D01*
X552753Y363359D01*
X552797Y363379D01*
X568593D01*
X568643Y362878D01*
X568525Y362855D01*
X567698Y362302D01*
X567145Y361475D01*
X567051Y361000D01*
X571949D01*
X571855Y361475D01*
X571302Y362302D01*
X570475Y362855D01*
X570357Y362878D01*
X570407Y363379D01*
X577364D01*
X577516Y362878D01*
X577388Y362793D01*
X577388Y362793D01*
X572262Y357667D01*
X572218Y357650D01*
X572059Y357499D01*
X571913Y357375D01*
X571771Y357269D01*
X571633Y357179D01*
X571500Y357106D01*
X571371Y357048D01*
X571247Y357005D01*
X571127Y356975D01*
X571009Y356957D01*
X570866Y356950D01*
X570806Y356921D01*
X568559D01*
Y353559D01*
X574283D01*
Y356289D01*
X574306Y356326D01*
X574296Y356369D01*
X574313Y356409D01*
X574292Y356459D01*
X574527Y356729D01*
X574674Y356879D01*
X574693Y356926D01*
X578646Y360878D01*
X580771D01*
X580952Y360423D01*
X580757Y360176D01*
X580198Y359802D01*
X579645Y358976D01*
X579551Y358500D01*
X582000D01*
Y357500D01*
X579551D01*
X579645Y357025D01*
X580198Y356198D01*
X581025Y355645D01*
X581960Y355459D01*
X582012Y355438D01*
X582382Y355017D01*
X582378Y355000D01*
X582378Y355000D01*
Y351000D01*
X580783D01*
X580757Y351014D01*
X580739Y351016D01*
X580735Y351022D01*
X580710Y351084D01*
X580684Y351184D01*
X580661Y351319D01*
X580647Y351488D01*
X580641Y351702D01*
X580622Y351746D01*
Y352513D01*
X580536Y352942D01*
X580367Y353195D01*
X580384Y353220D01*
X580539Y354000D01*
X580384Y354780D01*
X579942Y355442D01*
X579280Y355884D01*
X578500Y356039D01*
X577720Y355884D01*
X577058Y355442D01*
X576616Y354780D01*
X576461Y354000D01*
X576616Y353220D01*
X577058Y352558D01*
X577720Y352116D01*
X578032Y352054D01*
X578359Y351702D01*
X578353Y351488D01*
X578339Y351319D01*
X578316Y351184D01*
X578290Y351084D01*
X578265Y351022D01*
X578261Y351016D01*
X578243Y351014D01*
X578217Y351000D01*
X576500D01*
Y345000D01*
X578217D01*
X578243Y344986D01*
X578261Y344984D01*
X578265Y344978D01*
X578290Y344916D01*
X578316Y344816D01*
X578339Y344681D01*
X578353Y344512D01*
X578359Y344298D01*
X578378Y344254D01*
Y343746D01*
X578359Y343702D01*
X578353Y343488D01*
X578339Y343319D01*
X578316Y343184D01*
X578290Y343084D01*
X578265Y343022D01*
X578261Y343016D01*
X578243Y343014D01*
X578217Y343000D01*
X576500D01*
Y337000D01*
X582500D01*
Y337205D01*
X583000Y337254D01*
X583145Y336525D01*
X583698Y335698D01*
X584524Y335145D01*
X585000Y335051D01*
Y337500D01*
X585500D01*
Y338000D01*
X588303D01*
X588441Y338092D01*
X588445Y338090D01*
X588874Y338004D01*
X597186D01*
X597247Y337921D01*
X597277Y337830D01*
X597242Y337327D01*
X594930Y335207D01*
X594890Y335195D01*
X594742Y335077D01*
X594593Y334984D01*
X594413Y334895D01*
X594200Y334813D01*
X593954Y334740D01*
X593677Y334677D01*
X593373Y334626D01*
X592652Y334556D01*
X592247Y334540D01*
X592183Y334510D01*
X591420Y334410D01*
X590568Y334057D01*
X589837Y333496D01*
X589276Y332765D01*
X588923Y331914D01*
X588803Y331000D01*
X588923Y330086D01*
X589276Y329235D01*
X589837Y328504D01*
X590568Y327943D01*
X591420Y327590D01*
X592333Y327470D01*
X593247Y327590D01*
X594098Y327943D01*
X594830Y328504D01*
X595391Y329235D01*
X595743Y330086D01*
X595863Y331000D01*
X595852Y331085D01*
X595872Y331135D01*
X595864Y331517D01*
X595875Y331857D01*
X595902Y332170D01*
X595946Y332452D01*
X596005Y332705D01*
X596077Y332929D01*
X596161Y333123D01*
X596255Y333290D01*
X596360Y333432D01*
X596499Y333577D01*
X596500Y333580D01*
X596503Y333582D01*
X596517Y333619D01*
X598436Y335379D01*
X611287D01*
X613313Y333353D01*
X613327Y333313D01*
X613445Y333180D01*
X613534Y333054D01*
X613616Y332909D01*
X613689Y332743D01*
X613753Y332556D01*
X613806Y332346D01*
X613847Y332121D01*
X613896Y331574D01*
X613900Y331271D01*
X613917Y331230D01*
X614020Y330453D01*
X614328Y329709D01*
X614818Y329070D01*
X615457Y328580D01*
X616049Y328335D01*
X615981Y327822D01*
X615713Y327786D01*
X614514Y327290D01*
X613484Y326500D01*
X612694Y325470D01*
X612198Y324271D01*
X612028Y322984D01*
X612198Y321697D01*
X612694Y320498D01*
X613484Y319469D01*
X614514Y318679D01*
X615713Y318182D01*
X617000Y318012D01*
X618287Y318182D01*
X619486Y318679D01*
X620515Y319469D01*
X621306Y320498D01*
X621802Y321697D01*
X621842Y322000D01*
X623037D01*
Y312978D01*
X622589Y312757D01*
X622295Y312983D01*
X621429Y313341D01*
X621000Y313398D01*
Y309874D01*
Y306350D01*
X621429Y306407D01*
X622295Y306765D01*
X622589Y306991D01*
X623037Y306770D01*
Y306124D01*
X622601Y305687D01*
X622561Y305673D01*
X622428Y305555D01*
X622302Y305466D01*
X622157Y305384D01*
X621991Y305311D01*
X621804Y305247D01*
X621594Y305194D01*
X621369Y305153D01*
X620822Y305104D01*
X620519Y305100D01*
X620478Y305083D01*
X619701Y304980D01*
X618957Y304672D01*
X618318Y304182D01*
X617828Y303543D01*
X617520Y302799D01*
X617459Y302334D01*
X617427Y302296D01*
X617432Y302242D01*
X617406Y302194D01*
X617392Y302054D01*
X617368Y301937D01*
X617331Y301814D01*
X617280Y301686D01*
X617214Y301553D01*
X617132Y301413D01*
X617037Y301275D01*
X616911Y301121D01*
X607297D01*
X607253Y301141D01*
X607039Y301147D01*
X606871Y301161D01*
X606735Y301184D01*
X606636Y301210D01*
X606573Y301235D01*
X606567Y301239D01*
X606565Y301257D01*
X606551Y301283D01*
Y302272D01*
X606573Y302380D01*
X606573Y302380D01*
Y304225D01*
X606580Y304242D01*
X606592Y305443D01*
X606591Y305445D01*
X606592Y305448D01*
X606573Y305495D01*
Y306487D01*
X609293Y309207D01*
X609293Y309207D01*
X609536Y309571D01*
X609622Y310000D01*
Y323500D01*
X609536Y323929D01*
X609293Y324293D01*
X609293Y324293D01*
X605196Y328390D01*
X605182Y328430D01*
X605053Y328577D01*
X604954Y328723D01*
X604862Y328897D01*
X604779Y329101D01*
X604706Y329336D01*
X604645Y329602D01*
X604599Y329891D01*
X604545Y330587D01*
X604541Y330975D01*
X604530Y331001D01*
X604410Y331914D01*
X604057Y332765D01*
X603496Y333496D01*
X602765Y334057D01*
X601914Y334410D01*
X601000Y334530D01*
X600086Y334410D01*
X599235Y334057D01*
X598504Y333496D01*
X597943Y332765D01*
X597590Y331914D01*
X597470Y331000D01*
X597590Y330086D01*
X597943Y329235D01*
X598504Y328504D01*
X599235Y327943D01*
X600086Y327590D01*
X600986Y327472D01*
X601013Y327459D01*
X601782Y327435D01*
X602102Y327402D01*
X602398Y327355D01*
X602664Y327294D01*
X602898Y327221D01*
X603103Y327138D01*
X603277Y327046D01*
X603423Y326947D01*
X603570Y326818D01*
X603610Y326804D01*
X607378Y323035D01*
Y310465D01*
X604658Y307744D01*
X604415Y307380D01*
X604330Y306951D01*
X604330Y306951D01*
Y305506D01*
X604310Y305462D01*
X604305Y305249D01*
X604290Y305081D01*
X604268Y304946D01*
X604241Y304846D01*
X604216Y304784D01*
X604211Y304776D01*
X604191Y304774D01*
X604166Y304760D01*
X599449D01*
Y295098D01*
X606551D01*
Y298717D01*
X606565Y298743D01*
X606567Y298761D01*
X606573Y298765D01*
X606635Y298790D01*
X606735Y298816D01*
X606871Y298839D01*
X607039Y298853D01*
X607253Y298859D01*
X607297Y298879D01*
X615160D01*
X615311Y298378D01*
X615198Y298302D01*
X614645Y297476D01*
X614550Y297000D01*
X619450D01*
X619355Y297476D01*
X618802Y298302D01*
X618291Y298644D01*
X618244Y298797D01*
X618287Y299146D01*
X618730Y299413D01*
X618759Y299407D01*
X618826Y299382D01*
X618931Y299327D01*
X618968Y299324D01*
X618996Y299312D01*
X619024Y299289D01*
X619047Y299291D01*
X619701Y299020D01*
X620500Y298915D01*
X621299Y299020D01*
X622043Y299328D01*
X622682Y299818D01*
X623172Y300457D01*
X623480Y301201D01*
X623583Y301978D01*
X623600Y302019D01*
X623604Y302330D01*
X623621Y302607D01*
X623651Y302861D01*
X623694Y303094D01*
X623747Y303304D01*
X623811Y303491D01*
X623884Y303657D01*
X623966Y303802D01*
X624055Y303928D01*
X624173Y304061D01*
X624187Y304101D01*
X624952Y304866D01*
X624952Y304866D01*
X625195Y305230D01*
X625281Y305659D01*
Y359297D01*
X625195Y359726D01*
X624952Y360090D01*
X624952Y360090D01*
X623452Y361590D01*
X623088Y361833D01*
X622659Y361918D01*
X622659Y361918D01*
X612751D01*
X612322Y361833D01*
X611958Y361590D01*
X611958Y361590D01*
X611490Y361122D01*
X607262D01*
X607218Y361141D01*
X607007Y361147D01*
X606840Y361161D01*
X606707Y361184D01*
X606609Y361210D01*
X606549Y361234D01*
X606544Y361237D01*
X606542Y361257D01*
X606516Y361305D01*
Y362572D01*
X606517Y362574D01*
X606516Y362577D01*
Y363099D01*
X606059D01*
X606033Y363113D01*
X606015Y363115D01*
X606011Y363121D01*
X605986Y363183D01*
X605959Y363282D01*
X605937Y363418D01*
X605922Y363587D01*
X605917Y363801D01*
X605897Y363844D01*
Y366234D01*
X605917Y366278D01*
X605922Y366492D01*
X605937Y366661D01*
X605959Y366796D01*
X605986Y366896D01*
X606011Y366958D01*
X606015Y366964D01*
X606033Y366966D01*
X606059Y366980D01*
X607441D01*
Y370539D01*
X602110D01*
Y366980D01*
X603492D01*
X603518Y366966D01*
X603537Y366964D01*
X603540Y366958D01*
X603565Y366896D01*
X603592Y366796D01*
X603614Y366661D01*
X603629Y366492D01*
X603635Y366278D01*
X603654Y366234D01*
Y363844D01*
X603635Y363801D01*
X603629Y363587D01*
X603614Y363418D01*
X603592Y363282D01*
X603565Y363183D01*
X603540Y363121D01*
X603537Y363115D01*
X603518Y363113D01*
X603492Y363099D01*
X601579D01*
Y356980D01*
X606516D01*
Y358695D01*
X606542Y358743D01*
X606544Y358763D01*
X606549Y358766D01*
X606609Y358790D01*
X606707Y358817D01*
X606840Y358839D01*
X607007Y358853D01*
X607218Y358859D01*
X607262Y358878D01*
X611954D01*
X611954Y358878D01*
X612384Y358964D01*
X612748Y359207D01*
X613216Y359675D01*
X613826D01*
X613996Y359175D01*
X613484Y358783D01*
X612694Y357754D01*
X612198Y356555D01*
X612028Y355268D01*
X612198Y353981D01*
X612694Y352782D01*
X613484Y351752D01*
X614514Y350962D01*
X615713Y350465D01*
X615981Y350430D01*
X616049Y349917D01*
X615457Y349672D01*
X614836Y349195D01*
X614795Y349179D01*
X614572Y348962D01*
X614364Y348778D01*
X614162Y348619D01*
X613968Y348485D01*
X613782Y348374D01*
X613604Y348287D01*
X613435Y348221D01*
X613275Y348176D01*
X613123Y348150D01*
X612946Y348140D01*
X612907Y348122D01*
X600840D01*
X600689Y348622D01*
X600802Y348698D01*
X601355Y349524D01*
X601449Y350000D01*
X596551D01*
X596645Y349524D01*
X597198Y348698D01*
X597311Y348622D01*
X597160Y348122D01*
X591646D01*
X591602Y348141D01*
X591388Y348147D01*
X591219Y348161D01*
X591084Y348184D01*
X590984Y348210D01*
X590922Y348235D01*
X590916Y348239D01*
X590914Y348257D01*
X590900Y348283D01*
Y351000D01*
X584900D01*
X584622Y351385D01*
Y354535D01*
X587293Y357207D01*
X587536Y357571D01*
X587622Y358000D01*
X587622Y358000D01*
Y363500D01*
X587536Y363929D01*
X587293Y364293D01*
X587293Y364293D01*
X585645Y365941D01*
X585852Y366441D01*
X586469D01*
Y372559D01*
X581531D01*
Y369805D01*
X581505Y369757D01*
X581503Y369737D01*
X581498Y369735D01*
X581438Y369710D01*
X581340Y369684D01*
X581207Y369661D01*
X581040Y369647D01*
X580829Y369641D01*
X580786Y369621D01*
X579667D01*
X579624Y369641D01*
X579412Y369647D01*
X579246Y369661D01*
X579112Y369684D01*
X579015Y369710D01*
X578954Y369735D01*
X578949Y369737D01*
X578947Y369757D01*
X578921Y369805D01*
Y371441D01*
X575681D01*
Y371941D01*
X574000D01*
Y368579D01*
X573000D01*
Y371941D01*
X571566D01*
X571292Y372430D01*
X571355Y372524D01*
X571450Y373000D01*
X569000D01*
Y374000D01*
X571450D01*
X571355Y374476D01*
X570965Y375059D01*
X571232Y375559D01*
X571441D01*
Y381283D01*
X568079D01*
Y375866D01*
X568024Y375855D01*
X567198Y375302D01*
X566783Y374681D01*
X563059D01*
X563022Y375166D01*
Y379961D01*
X563522Y380113D01*
X563558Y380058D01*
X564220Y379616D01*
X565000Y379461D01*
X565780Y379616D01*
X566442Y380058D01*
X566884Y380720D01*
X567023Y381418D01*
X567127Y381513D01*
X567128Y381517D01*
X567132Y381518D01*
X567154Y381568D01*
X567465Y381878D01*
X575294D01*
X575621Y381439D01*
X575618Y381404D01*
X575559Y381283D01*
X575559D01*
X575538Y380792D01*
X575530Y380771D01*
X575542Y380742D01*
X575533Y380712D01*
X575559Y380665D01*
Y375559D01*
X578921D01*
Y377116D01*
X578947Y377165D01*
X578949Y377184D01*
X578954Y377187D01*
X579015Y377211D01*
X579112Y377238D01*
X579246Y377260D01*
X579412Y377275D01*
X579624Y377280D01*
X579667Y377300D01*
X580786D01*
X580829Y377280D01*
X581043Y377275D01*
X581212Y377260D01*
X581348Y377238D01*
X581447Y377211D01*
X581509Y377186D01*
X581515Y377182D01*
X581517Y377164D01*
X581531Y377138D01*
Y375441D01*
X586469D01*
Y379229D01*
X586491Y379266D01*
X586481Y379309D01*
X586498Y379350D01*
X586469Y379420D01*
Y379792D01*
X586516Y379875D01*
X586624Y380030D01*
X586969Y380438D01*
X587194Y380671D01*
X587212Y380717D01*
X587617Y381121D01*
X588079Y380930D01*
Y379039D01*
X590547D01*
Y382099D01*
X589247D01*
X589056Y382560D01*
X591293Y384798D01*
X591293Y384798D01*
X591536Y385161D01*
X591622Y385591D01*
X591622Y385591D01*
Y385844D01*
X591942Y386058D01*
X592384Y386720D01*
X592483Y387219D01*
X592500Y387303D01*
X593000Y387254D01*
Y383500D01*
X596000D01*
Y387000D01*
Y390500D01*
X593000D01*
Y387746D01*
X592500Y387697D01*
X592483Y387781D01*
X592384Y388280D01*
X591942Y388942D01*
X591280Y389384D01*
X590500Y389539D01*
X589720Y389384D01*
X589058Y388942D01*
X588616Y388280D01*
X588500Y387697D01*
X588000Y387746D01*
Y390100D01*
X585000D01*
Y386600D01*
Y383100D01*
X585770D01*
X585961Y382638D01*
X585632Y382308D01*
X585588Y382292D01*
X585128Y381865D01*
X584945Y381719D01*
X584785Y381607D01*
X584701Y381559D01*
X584330D01*
X584259Y381588D01*
X584218Y381571D01*
X584175Y381582D01*
X584138Y381559D01*
X581531D01*
Y379704D01*
X581517Y379678D01*
X581515Y379660D01*
X581509Y379657D01*
X581447Y379631D01*
X581348Y379605D01*
X581212Y379583D01*
X581043Y379568D01*
X580829Y379562D01*
X580786Y379543D01*
X579667D01*
X579624Y379562D01*
X579412Y379568D01*
X579246Y379583D01*
X579112Y379605D01*
X579015Y379631D01*
X578954Y379656D01*
X578949Y379659D01*
X578947Y379678D01*
X578921Y379726D01*
Y380665D01*
X578947Y380712D01*
X578938Y380742D01*
X578951Y380771D01*
X578921Y380842D01*
Y381283D01*
X578516D01*
X578471Y381308D01*
X578448Y381369D01*
X578422Y381469D01*
X578401Y381604D01*
X578386Y381773D01*
X578381Y381985D01*
X578362Y382029D01*
Y382297D01*
X578362Y382297D01*
X578276Y382726D01*
X578033Y383090D01*
X578033Y383090D01*
X577330Y383793D01*
X576966Y384036D01*
X576537Y384122D01*
X576537Y384121D01*
X575361D01*
X575170Y384583D01*
X577293Y386707D01*
X577293Y386707D01*
X577536Y387071D01*
X577622Y387500D01*
X577622Y387500D01*
Y388754D01*
X577641Y388798D01*
X577647Y389012D01*
X577661Y389181D01*
X577684Y389316D01*
X577710Y389416D01*
X577735Y389478D01*
X577739Y389484D01*
X577757Y389486D01*
X577783Y389500D01*
X579500D01*
Y395500D01*
X576500D01*
Y397500D01*
X576900Y397900D01*
X579500D01*
Y399717D01*
X579514Y399743D01*
X579516Y399761D01*
X579522Y399765D01*
X579584Y399790D01*
X579684Y399816D01*
X579819Y399839D01*
X579988Y399853D01*
X580202Y399859D01*
X580246Y399879D01*
X583378D01*
Y398746D01*
X583359Y398702D01*
X583353Y398488D01*
X583339Y398319D01*
X583316Y398184D01*
X583290Y398084D01*
X583265Y398022D01*
X583261Y398016D01*
X583243Y398014D01*
X583217Y398000D01*
X581500D01*
Y392000D01*
X587500D01*
Y398000D01*
X585783D01*
X585757Y398014D01*
X585739Y398016D01*
X585735Y398022D01*
X585710Y398084D01*
X585684Y398184D01*
X585661Y398319D01*
X585647Y398488D01*
X585641Y398702D01*
X585622Y398746D01*
Y401000D01*
X585536Y401429D01*
X585293Y401793D01*
X584929Y402036D01*
X584500Y402121D01*
X580246D01*
X580202Y402141D01*
X579988Y402147D01*
X579819Y402161D01*
X579684Y402184D01*
X579584Y402210D01*
X579522Y402235D01*
X579516Y402239D01*
X579514Y402257D01*
X579500Y402283D01*
Y403317D01*
X579529Y403388D01*
X579500Y403458D01*
X579500Y403497D01*
X579505Y403549D01*
X579500Y403900D01*
X579442D01*
X579410Y404380D01*
X579409Y404591D01*
X579401Y404609D01*
X579409Y404626D01*
X579414Y404956D01*
X579623Y405194D01*
X579803Y405323D01*
X580055Y405323D01*
X581992D01*
X582311Y405323D01*
X582811Y405323D01*
X584748D01*
Y404823D01*
X586035D01*
Y408579D01*
Y412335D01*
X584748D01*
Y411835D01*
X582811D01*
X582492Y411835D01*
X581992Y411835D01*
X580055D01*
X579736Y411835D01*
X579236Y411835D01*
X577299D01*
X576980Y411835D01*
Y411835D01*
X576799D01*
Y411835D01*
X574224D01*
Y411835D01*
X574043D01*
Y411835D01*
X571469D01*
Y411835D01*
X571287D01*
Y411835D01*
X568713D01*
Y411835D01*
X568531D01*
Y411835D01*
X566276D01*
X565957Y411835D01*
X565457Y411835D01*
X563520D01*
X563201Y411835D01*
X562701Y411835D01*
X560764D01*
X560445Y411835D01*
X559945Y411835D01*
X558008D01*
X557689Y411835D01*
X557189Y411835D01*
X555252D01*
Y412335D01*
X555222D01*
X555146Y412803D01*
X555146Y412835D01*
Y415059D01*
X555146Y415378D01*
X555146Y415878D01*
Y417815D01*
X555146Y418134D01*
X555146D01*
Y418315D01*
X555146D01*
Y418849D01*
X555228Y418907D01*
X555907Y418783D01*
X556058Y418558D01*
X556720Y418116D01*
X557500Y417961D01*
X558280Y418116D01*
X558942Y418558D01*
X559384Y419220D01*
X559539Y420000D01*
X559384Y420780D01*
X558942Y421442D01*
X558622Y421656D01*
Y429408D01*
X558536Y429837D01*
X558293Y430201D01*
X558293Y430201D01*
X557138Y431356D01*
X556774Y431599D01*
X556345Y431685D01*
X556345Y431685D01*
X555885D01*
X555839Y431704D01*
X555622Y431706D01*
X555438Y431716D01*
X555177Y432054D01*
X555146Y432172D01*
X555146Y432413D01*
Y434350D01*
X555146Y434669D01*
X555146Y435169D01*
Y437106D01*
X555146Y437425D01*
X555146Y437925D01*
Y440181D01*
X555146D01*
Y440362D01*
X555146D01*
Y442618D01*
X555146Y442937D01*
X555146Y443437D01*
Y445374D01*
X555146Y445693D01*
X555146Y446193D01*
Y448130D01*
X555146Y448449D01*
X555146Y448949D01*
Y450810D01*
X555646Y450886D01*
X556114Y450809D01*
Y450008D01*
X561051D01*
Y452583D01*
X556146D01*
X556114Y452583D01*
X555646Y452659D01*
Y452961D01*
D02*
G37*
G36*
X561051Y447071D02*
X556114D01*
Y444496D01*
X561051D01*
Y447071D01*
D02*
G37*
G36*
X568000Y429950D02*
Y428000D01*
X569949D01*
X569855Y428476D01*
X569302Y429302D01*
X568475Y429855D01*
X568000Y429950D01*
D02*
G37*
G36*
X567000D02*
X566525Y429855D01*
X565698Y429302D01*
X565145Y428476D01*
X565051Y428000D01*
X567000D01*
Y429950D01*
D02*
G37*
G36*
X569949Y427000D02*
X568000D01*
Y425050D01*
X568475Y425145D01*
X569302Y425698D01*
X569855Y426524D01*
X569949Y427000D01*
D02*
G37*
G36*
X567000D02*
X565051D01*
X565145Y426524D01*
X565698Y425698D01*
X566525Y425145D01*
X567000Y425050D01*
Y427000D01*
D02*
G37*
G36*
X619500Y416482D02*
X618599Y416364D01*
X617759Y416016D01*
X617037Y415462D01*
X616484Y414741D01*
X616136Y413901D01*
X616017Y413000D01*
X616136Y412099D01*
X616484Y411259D01*
X617037Y410537D01*
X617759Y409984D01*
X618599Y409636D01*
X619500Y409517D01*
X620401Y409636D01*
X621241Y409984D01*
X621962Y410537D01*
X622516Y411259D01*
X622864Y412099D01*
X622983Y413000D01*
X622864Y413901D01*
X622516Y414741D01*
X621962Y415462D01*
X621241Y416016D01*
X620401Y416364D01*
X619500Y416482D01*
D02*
G37*
G36*
X538000Y412921D02*
X537468Y412851D01*
X536507Y412453D01*
X535681Y411819D01*
X535047Y410993D01*
X534649Y410032D01*
X534579Y409500D01*
X538000D01*
Y412921D01*
D02*
G37*
G36*
X588323Y412335D02*
X587035D01*
Y409079D01*
X588323D01*
Y412335D01*
D02*
G37*
G36*
X538000Y408500D02*
X534579D01*
X534649Y407968D01*
X535047Y407007D01*
X535681Y406181D01*
X536507Y405547D01*
X537468Y405149D01*
X538000Y405079D01*
Y408500D01*
D02*
G37*
G36*
X588323Y408079D02*
X587035D01*
Y404823D01*
X588323D01*
Y408079D01*
D02*
G37*
G36*
X604559Y398468D02*
X601500D01*
Y396000D01*
X604559D01*
Y398468D01*
D02*
G37*
G36*
X596059D02*
X593000D01*
Y396000D01*
X596059D01*
Y398468D01*
D02*
G37*
G36*
X592000D02*
X588941D01*
Y396000D01*
X592000D01*
Y398468D01*
D02*
G37*
G36*
X600500D02*
X597441D01*
Y396000D01*
X600500D01*
Y398468D01*
D02*
G37*
G36*
X613098Y398421D02*
X610039D01*
Y395953D01*
X613098D01*
Y398421D01*
D02*
G37*
G36*
X609039D02*
X605980D01*
Y395953D01*
X609039D01*
Y398421D01*
D02*
G37*
G36*
X623453Y396953D02*
X620000D01*
Y393500D01*
X623453D01*
Y396953D01*
D02*
G37*
G36*
X619000D02*
X615547D01*
Y393500D01*
X619000D01*
Y396953D01*
D02*
G37*
G36*
X604559Y395000D02*
X601500D01*
Y392531D01*
X604559D01*
Y395000D01*
D02*
G37*
G36*
X600500D02*
X597441D01*
Y392531D01*
X600500D01*
Y395000D01*
D02*
G37*
G36*
X596059D02*
X593000D01*
Y392531D01*
X596059D01*
Y395000D01*
D02*
G37*
G36*
X592000D02*
X588941D01*
Y392531D01*
X592000D01*
Y395000D01*
D02*
G37*
G36*
X613098Y394953D02*
X610039D01*
Y392484D01*
X613098D01*
Y394953D01*
D02*
G37*
G36*
X609039D02*
X605980D01*
Y392484D01*
X609039D01*
Y394953D01*
D02*
G37*
G36*
X539000Y398983D02*
X538099Y398864D01*
X537259Y398516D01*
X536538Y397962D01*
X535984Y397241D01*
X535636Y396401D01*
X535518Y395500D01*
X535636Y394599D01*
X535984Y393759D01*
X536538Y393038D01*
X537259Y392484D01*
X538099Y392136D01*
X539000Y392018D01*
X539901Y392136D01*
X540741Y392484D01*
X541463Y393038D01*
X542016Y393759D01*
X542364Y394599D01*
X542483Y395500D01*
X542364Y396401D01*
X542016Y397241D01*
X541463Y397962D01*
X540741Y398516D01*
X539901Y398864D01*
X539000Y398983D01*
D02*
G37*
G36*
X623453Y392500D02*
X620000D01*
Y389047D01*
X623453D01*
Y392500D01*
D02*
G37*
G36*
X619000D02*
X615547D01*
Y389047D01*
X619000D01*
Y392500D01*
D02*
G37*
G36*
X611500Y390950D02*
Y389000D01*
X613449D01*
X613355Y389475D01*
X612802Y390302D01*
X611975Y390855D01*
X611500Y390950D01*
D02*
G37*
G36*
X610500D02*
X610024Y390855D01*
X609198Y390302D01*
X608645Y389475D01*
X608551Y389000D01*
X610500D01*
Y390950D01*
D02*
G37*
G36*
X600000Y390500D02*
X597000D01*
Y387500D01*
X600000D01*
Y390500D01*
D02*
G37*
G36*
X584000Y390100D02*
X581000D01*
Y387100D01*
X584000D01*
Y390100D01*
D02*
G37*
G36*
X613449Y388000D02*
X611500D01*
Y386051D01*
X611975Y386145D01*
X612802Y386698D01*
X613355Y387525D01*
X613449Y388000D01*
D02*
G37*
G36*
X610500D02*
X608551D01*
X608645Y387525D01*
X609198Y386698D01*
X610024Y386145D01*
X610500Y386051D01*
Y388000D01*
D02*
G37*
G36*
X600000Y386500D02*
X597000D01*
Y383500D01*
X600000D01*
Y386500D01*
D02*
G37*
G36*
X584000Y386100D02*
X581000D01*
Y383100D01*
X584000D01*
Y386100D01*
D02*
G37*
G36*
X599000Y381949D02*
Y380000D01*
X600949D01*
X600855Y380475D01*
X600302Y381302D01*
X599475Y381855D01*
X599000Y381949D01*
D02*
G37*
G36*
X598000D02*
X597524Y381855D01*
X596698Y381302D01*
X596145Y380475D01*
X596051Y380000D01*
X598000D01*
Y381949D01*
D02*
G37*
G36*
X594016Y382099D02*
X591547D01*
Y379039D01*
X594016D01*
Y382099D01*
D02*
G37*
G36*
X552500Y380600D02*
X549500D01*
Y377600D01*
X552500D01*
Y380600D01*
D02*
G37*
G36*
X548500D02*
X545500D01*
Y377600D01*
X548500D01*
Y380600D01*
D02*
G37*
G36*
X621000Y380398D02*
Y377374D01*
X624024D01*
X623967Y377803D01*
X623609Y378669D01*
X623038Y379412D01*
X622295Y379983D01*
X621429Y380341D01*
X621000Y380398D01*
D02*
G37*
G36*
X600949Y379000D02*
X599000D01*
Y377050D01*
X599475Y377145D01*
X600302Y377698D01*
X600855Y378524D01*
X600949Y379000D01*
D02*
G37*
G36*
X598000D02*
X596051D01*
X596145Y378524D01*
X596698Y377698D01*
X597524Y377145D01*
X598000Y377050D01*
Y379000D01*
D02*
G37*
G36*
X557000Y383039D02*
X556220Y382884D01*
X555558Y382442D01*
X555116Y381780D01*
X554961Y381000D01*
X555116Y380220D01*
X555558Y379558D01*
X555910Y379323D01*
Y379167D01*
X555891Y379123D01*
X555885Y378910D01*
X555870Y378741D01*
X555848Y378605D01*
X555821Y378506D01*
X555796Y378444D01*
X555792Y378437D01*
X555774Y378435D01*
X555748Y378421D01*
X555185D01*
Y375059D01*
X558941D01*
Y378421D01*
X558315D01*
X558289Y378435D01*
X558271Y378437D01*
X558267Y378444D01*
X558242Y378505D01*
X558215Y378605D01*
X558193Y378741D01*
X558178Y378910D01*
X558173Y379123D01*
X558153Y379167D01*
Y379365D01*
X558442Y379558D01*
X558884Y380220D01*
X559039Y381000D01*
X558884Y381780D01*
X558442Y382442D01*
X557780Y382884D01*
X557000Y383039D01*
D02*
G37*
G36*
X594016Y378039D02*
X591547D01*
Y374980D01*
X594016D01*
Y378039D01*
D02*
G37*
G36*
X590547D02*
X588079D01*
Y374980D01*
X590547D01*
Y378039D01*
D02*
G37*
G36*
X607900Y390000D02*
X601900D01*
Y384000D01*
X603492D01*
X603518Y383986D01*
X603537Y383984D01*
X603540Y383978D01*
X603565Y383916D01*
X603592Y383816D01*
X603614Y383681D01*
X603629Y383512D01*
X603635Y383298D01*
X603654Y383254D01*
Y378766D01*
X603635Y378722D01*
X603629Y378508D01*
X603614Y378339D01*
X603592Y378204D01*
X603565Y378104D01*
X603540Y378042D01*
X603537Y378036D01*
X603518Y378034D01*
X603492Y378020D01*
X602110D01*
Y374461D01*
X607441D01*
Y378020D01*
X606059D01*
X606033Y378034D01*
X606015Y378036D01*
X606011Y378042D01*
X605986Y378104D01*
X605959Y378204D01*
X605937Y378339D01*
X605922Y378508D01*
X605917Y378722D01*
X605897Y378766D01*
Y383254D01*
X605917Y383298D01*
X605922Y383512D01*
X605937Y383681D01*
X605959Y383816D01*
X605986Y383916D01*
X606011Y383978D01*
X606015Y383984D01*
X606033Y383986D01*
X606059Y384000D01*
X607900D01*
Y390000D01*
D02*
G37*
G36*
X624024Y376374D02*
X621000D01*
Y373350D01*
X621429Y373407D01*
X622295Y373765D01*
X623038Y374336D01*
X623609Y375079D01*
X623967Y375945D01*
X624024Y376374D01*
D02*
G37*
G36*
X620000Y380398D02*
X619571Y380341D01*
X618705Y379983D01*
X617962Y379412D01*
X617391Y378669D01*
X617256Y378343D01*
X616890Y378020D01*
X616624Y378020D01*
X611559D01*
Y374780D01*
X611059D01*
Y373000D01*
X614224D01*
X617390D01*
Y374260D01*
X617890Y374429D01*
X617962Y374336D01*
X618705Y373765D01*
X619571Y373407D01*
X620000Y373350D01*
Y376874D01*
Y380398D01*
D02*
G37*
G36*
X620500Y372085D02*
X619701Y371980D01*
X618957Y371672D01*
X618318Y371182D01*
X618257Y371101D01*
X618195Y371074D01*
X617987Y370852D01*
X617890Y370758D01*
X617554Y370851D01*
X617390Y370979D01*
Y372000D01*
X614224D01*
X611059D01*
Y370220D01*
X611559D01*
Y366980D01*
X616890D01*
Y367156D01*
X616921Y367211D01*
X617199Y367415D01*
X617390Y367474D01*
X617522Y367400D01*
X617721Y367272D01*
X618166Y366928D01*
X618399Y366721D01*
X618484Y366691D01*
X618957Y366328D01*
X619701Y366020D01*
X620500Y365915D01*
X621299Y366020D01*
X622043Y366328D01*
X622682Y366818D01*
X623172Y367457D01*
X623480Y368201D01*
X623586Y369000D01*
X623480Y369799D01*
X623172Y370543D01*
X622682Y371182D01*
X622043Y371672D01*
X621299Y371980D01*
X620500Y372085D01*
D02*
G37*
G36*
X594016Y373098D02*
X591547D01*
Y370039D01*
X594016D01*
Y373098D01*
D02*
G37*
G36*
X590547D02*
X588079D01*
Y370039D01*
X590547D01*
Y373098D01*
D02*
G37*
G36*
X599000Y369950D02*
Y368000D01*
X600949D01*
X600855Y368476D01*
X600302Y369302D01*
X599475Y369855D01*
X599000Y369950D01*
D02*
G37*
G36*
X598000D02*
X597524Y369855D01*
X596698Y369302D01*
X596145Y368476D01*
X596051Y368000D01*
X598000D01*
Y369950D01*
D02*
G37*
G36*
X594016Y369039D02*
X591547D01*
Y365980D01*
X594016D01*
Y369039D01*
D02*
G37*
G36*
X590547D02*
X588079D01*
Y365980D01*
X590547D01*
Y369039D01*
D02*
G37*
G36*
X600949Y367000D02*
X599000D01*
Y365051D01*
X599475Y365145D01*
X600302Y365698D01*
X600855Y366525D01*
X600949Y367000D01*
D02*
G37*
G36*
X598000D02*
X596051D01*
X596145Y366525D01*
X596698Y365698D01*
X597524Y365145D01*
X598000Y365051D01*
Y367000D01*
D02*
G37*
G36*
X599968Y363559D02*
X597500D01*
Y360500D01*
X599968D01*
Y363559D01*
D02*
G37*
G36*
X596500D02*
X594031D01*
Y360500D01*
X596500D01*
Y363559D01*
D02*
G37*
G36*
X571949Y360000D02*
X570000D01*
Y358050D01*
X570475Y358145D01*
X571302Y358698D01*
X571855Y359524D01*
X571949Y360000D01*
D02*
G37*
G36*
X569000D02*
X567051D01*
X567145Y359524D01*
X567698Y358698D01*
X568525Y358145D01*
X569000Y358050D01*
Y360000D01*
D02*
G37*
G36*
X599968Y359500D02*
X597500D01*
Y356441D01*
X599968D01*
Y359500D01*
D02*
G37*
G36*
X596500D02*
X594031D01*
Y356441D01*
X596500D01*
Y359500D01*
D02*
G37*
G36*
X564941Y353681D02*
X562079D01*
Y352000D01*
X564941D01*
Y353681D01*
D02*
G37*
G36*
X561079D02*
X558217D01*
Y352000D01*
X561079D01*
Y353681D01*
D02*
G37*
G36*
X599500Y352950D02*
Y351000D01*
X601449D01*
X601355Y351476D01*
X600802Y352302D01*
X599975Y352855D01*
X599500Y352950D01*
D02*
G37*
G36*
X598500D02*
X598025Y352855D01*
X597198Y352302D01*
X596645Y351476D01*
X596551Y351000D01*
X598500D01*
Y352950D01*
D02*
G37*
G36*
X564941Y351000D02*
X562079D01*
Y349319D01*
X564941D01*
Y351000D01*
D02*
G37*
G36*
X561079D02*
X558217D01*
Y349319D01*
X561079D01*
Y351000D01*
D02*
G37*
G36*
X539000Y348585D02*
X538201Y348480D01*
X537457Y348172D01*
X536818Y347682D01*
X536328Y347043D01*
X536020Y346299D01*
X535915Y345500D01*
X536020Y344701D01*
X536328Y343957D01*
X536818Y343318D01*
X537457Y342828D01*
X538201Y342520D01*
X539000Y342415D01*
X539799Y342520D01*
X540543Y342828D01*
X541182Y343318D01*
X541672Y343957D01*
X541980Y344701D01*
X542086Y345500D01*
X541980Y346299D01*
X541672Y347043D01*
X541182Y347682D01*
X540543Y348172D01*
X539799Y348480D01*
X539000Y348585D01*
D02*
G37*
G36*
X539500Y341150D02*
Y338126D01*
X542524D01*
X542467Y338555D01*
X542109Y339421D01*
X541538Y340164D01*
X540795Y340735D01*
X539929Y341093D01*
X539500Y341150D01*
D02*
G37*
G36*
X538500D02*
X538071Y341093D01*
X537205Y340735D01*
X536462Y340164D01*
X535891Y339421D01*
X535533Y338555D01*
X535476Y338126D01*
X538500D01*
Y341150D01*
D02*
G37*
G36*
X574283Y349441D02*
X568559D01*
Y346079D01*
X569817D01*
X569843Y346064D01*
X569861Y346063D01*
X569865Y346056D01*
X569890Y345994D01*
X569916Y345895D01*
X569939Y345759D01*
X569953Y345590D01*
X569959Y345377D01*
X569978Y345333D01*
Y343746D01*
X569959Y343702D01*
X569953Y343488D01*
X569939Y343319D01*
X569916Y343184D01*
X569890Y343084D01*
X569865Y343022D01*
X569861Y343016D01*
X569843Y343014D01*
X569817Y343000D01*
X568100D01*
Y337000D01*
X574100D01*
Y343000D01*
X572383D01*
X572357Y343014D01*
X572339Y343016D01*
X572335Y343022D01*
X572310Y343084D01*
X572284Y343184D01*
X572261Y343319D01*
X572247Y343488D01*
X572241Y343702D01*
X572222Y343746D01*
Y345333D01*
X572241Y345377D01*
X572247Y345590D01*
X572261Y345759D01*
X572284Y345895D01*
X572310Y345994D01*
X572335Y346057D01*
X572339Y346063D01*
X572357Y346064D01*
X572383Y346079D01*
X574283D01*
Y349441D01*
D02*
G37*
G36*
X587950Y337000D02*
X586000D01*
Y335051D01*
X586476Y335145D01*
X587302Y335698D01*
X587855Y336525D01*
X587950Y337000D01*
D02*
G37*
G36*
X542524Y337126D02*
X539500D01*
Y334102D01*
X539929Y334159D01*
X540795Y334517D01*
X541538Y335088D01*
X542109Y335831D01*
X542467Y336697D01*
X542524Y337126D01*
D02*
G37*
G36*
X538500D02*
X535476D01*
X535533Y336697D01*
X535891Y335831D01*
X536462Y335088D01*
X537205Y334517D01*
X538071Y334159D01*
X538500Y334102D01*
Y337126D01*
D02*
G37*
G36*
X610000Y330949D02*
Y329000D01*
X611949D01*
X611855Y329475D01*
X611302Y330302D01*
X610475Y330855D01*
X610000Y330949D01*
D02*
G37*
G36*
X609000D02*
X608525Y330855D01*
X607698Y330302D01*
X607145Y329475D01*
X607051Y329000D01*
X609000D01*
Y330949D01*
D02*
G37*
G36*
X558500Y329450D02*
Y327500D01*
X560450D01*
X560355Y327976D01*
X559802Y328802D01*
X558976Y329355D01*
X558500Y329450D01*
D02*
G37*
G36*
X583667Y334530D02*
X582753Y334410D01*
X581902Y334057D01*
X581170Y333496D01*
X580609Y332765D01*
X580257Y331914D01*
X580136Y331000D01*
X580257Y330086D01*
X580609Y329235D01*
X581170Y328504D01*
X581902Y327943D01*
X582753Y327590D01*
X583667Y327470D01*
X584580Y327590D01*
X585432Y327943D01*
X586163Y328504D01*
X586724Y329235D01*
X587077Y330086D01*
X587197Y331000D01*
X587077Y331914D01*
X586724Y332765D01*
X586163Y333496D01*
X585432Y334057D01*
X584580Y334410D01*
X583667Y334530D01*
D02*
G37*
G36*
X611949Y328000D02*
X610000D01*
Y326050D01*
X610475Y326145D01*
X611302Y326698D01*
X611855Y327524D01*
X611949Y328000D01*
D02*
G37*
G36*
X609000D02*
X607051D01*
X607145Y327524D01*
X607698Y326698D01*
X608525Y326145D01*
X609000Y326050D01*
Y328000D01*
D02*
G37*
G36*
X575000Y334530D02*
X574086Y334410D01*
X573235Y334057D01*
X572504Y333496D01*
X571943Y332765D01*
X571590Y331914D01*
X571470Y331000D01*
X571590Y330086D01*
X571943Y329235D01*
X572504Y328504D01*
X573235Y327943D01*
X574086Y327590D01*
X574412Y327547D01*
X574534Y327027D01*
X574198Y326802D01*
X573645Y325975D01*
X573551Y325500D01*
X578449D01*
X578355Y325975D01*
X577802Y326802D01*
X576975Y327355D01*
X576757Y327398D01*
X576706Y327918D01*
X576765Y327943D01*
X577496Y328504D01*
X578057Y329235D01*
X578410Y330086D01*
X578530Y331000D01*
X578410Y331914D01*
X578057Y332765D01*
X577496Y333496D01*
X576765Y334057D01*
X575914Y334410D01*
X575000Y334530D01*
D02*
G37*
G36*
X550900Y335539D02*
X550120Y335384D01*
X549458Y334942D01*
X549016Y334280D01*
X548861Y333500D01*
X549016Y332720D01*
X549458Y332058D01*
X550120Y331616D01*
X550900Y331461D01*
X551680Y331616D01*
X552211Y331971D01*
X559474D01*
X561136Y330308D01*
Y330199D01*
X561124Y330170D01*
X561121Y328170D01*
X561121Y328170D01*
X561121Y328169D01*
X561136Y328132D01*
Y327165D01*
X561150Y327097D01*
Y325319D01*
X563929D01*
X564000Y325290D01*
X564059Y325314D01*
X564122Y325304D01*
X564512Y325319D01*
Y325379D01*
X565640Y325457D01*
X566002Y325459D01*
X566030Y325471D01*
X566689D01*
X567220Y325116D01*
X568000Y324961D01*
X568780Y325116D01*
X569442Y325558D01*
X569884Y326220D01*
X570039Y327000D01*
X569884Y327780D01*
X569442Y328442D01*
X568780Y328884D01*
X568000Y329039D01*
X567220Y328884D01*
X566689Y328529D01*
X566033D01*
X566005Y328541D01*
X565295Y328548D01*
X564540Y328582D01*
X564512Y328585D01*
Y328681D01*
X564299D01*
X564286Y328743D01*
X564210Y329811D01*
X564207Y330174D01*
X564195Y330202D01*
Y330942D01*
X564078Y331527D01*
X563747Y332023D01*
X561189Y334581D01*
X560693Y334913D01*
X560107Y335029D01*
X552211D01*
X551680Y335384D01*
X550900Y335539D01*
D02*
G37*
G36*
X560450Y326500D02*
X558500D01*
Y324551D01*
X558976Y324645D01*
X559802Y325198D01*
X560355Y326025D01*
X560450Y326500D01*
D02*
G37*
G36*
X552051Y355260D02*
X544949D01*
Y345599D01*
X546417D01*
X546443Y345584D01*
X546569Y345571D01*
X546615Y345555D01*
X546656Y345528D01*
X546706Y345473D01*
X546765Y345375D01*
X546826Y345226D01*
X546880Y345022D01*
X546923Y344767D01*
X546949Y344462D01*
X546959Y344096D01*
X546971Y344070D01*
Y338633D01*
X533919Y325581D01*
X533587Y325085D01*
X533471Y324500D01*
Y318000D01*
X533587Y317415D01*
X533919Y316919D01*
X539466Y311371D01*
X539962Y311040D01*
X540547Y310923D01*
X541453D01*
X541479Y310912D01*
X541843Y310903D01*
X542147Y310877D01*
X542402Y310836D01*
X542606Y310784D01*
X542756Y310725D01*
X542853Y310668D01*
X542905Y310622D01*
X542929Y310588D01*
X542942Y310553D01*
X542954Y310437D01*
X542980Y310390D01*
Y309984D01*
X543422D01*
X543492Y309955D01*
X543521Y309967D01*
X543552Y309958D01*
X543599Y309984D01*
X546860D01*
X547008Y309955D01*
X548618D01*
X550393Y309944D01*
X550919Y309419D01*
X551415Y309087D01*
X551933Y308984D01*
X551990Y308959D01*
X552544Y308949D01*
X552600Y308945D01*
Y307700D01*
X553205D01*
X553247Y307683D01*
X553288Y307700D01*
X553398D01*
X553452Y307673D01*
X553586Y307586D01*
X554589Y306725D01*
X554779Y306539D01*
Y306525D01*
X554616Y306280D01*
X554461Y305500D01*
X554616Y304720D01*
X555058Y304058D01*
X555720Y303616D01*
X556500Y303461D01*
X557280Y303616D01*
X557942Y304058D01*
X558384Y304720D01*
X558539Y305500D01*
X558384Y306280D01*
X557942Y306942D01*
X557838Y307011D01*
Y307191D01*
X557722Y307777D01*
X557390Y308273D01*
X557103Y308560D01*
X557092Y308587D01*
X556491Y309212D01*
X556065Y309709D01*
X555924Y309898D01*
X555827Y310048D01*
X555800Y310102D01*
Y310212D01*
X555817Y310253D01*
X555800Y310295D01*
Y313700D01*
X552600D01*
Y312770D01*
X552100Y312563D01*
X552097Y312566D01*
X551601Y312897D01*
X551016Y313014D01*
X550627D01*
X550601Y313025D01*
X550236Y313035D01*
X549931Y313062D01*
X549677Y313104D01*
X549473Y313158D01*
X549323Y313219D01*
X549225Y313279D01*
X549171Y313329D01*
X549143Y313370D01*
X549126Y313417D01*
X549112Y313543D01*
X549098Y313569D01*
Y314921D01*
X543599D01*
X543552Y314947D01*
X543521Y314938D01*
X543492Y314950D01*
X543422Y314921D01*
X542980D01*
Y314516D01*
X542954Y314469D01*
X542942Y314353D01*
X542929Y314317D01*
X542905Y314284D01*
X542853Y314237D01*
X542756Y314180D01*
X542606Y314122D01*
X542402Y314069D01*
X542147Y314029D01*
X541843Y314003D01*
X541479Y313994D01*
X541453Y313982D01*
X541181D01*
X538172Y316991D01*
X538418Y317452D01*
X538500Y317436D01*
X539280Y317591D01*
X539942Y318033D01*
X540384Y318694D01*
X540539Y319475D01*
X540384Y320255D01*
X540197Y320534D01*
X541941Y322278D01*
X542441Y322071D01*
Y320000D01*
X545500D01*
Y322468D01*
X542838D01*
X542631Y322969D01*
X544667Y325004D01*
X545085Y325087D01*
X545581Y325419D01*
X545634Y325471D01*
X550967D01*
X550995Y325459D01*
X551705Y325452D01*
X552460Y325418D01*
X552488Y325415D01*
Y325319D01*
X552877Y325304D01*
X553063Y324846D01*
Y323300D01*
X552600D01*
Y317300D01*
X555800Y317300D01*
X555900Y316841D01*
Y316800D01*
X557500D01*
Y320300D01*
Y323800D01*
X555900D01*
Y323767D01*
X555888Y323755D01*
X555355Y323605D01*
X555306Y323654D01*
Y325319D01*
X555850D01*
X555850Y325319D01*
X556278Y325144D01*
X557024Y324645D01*
X557500Y324551D01*
Y327000D01*
Y329450D01*
X557024Y329355D01*
X556290Y328864D01*
X555850Y328681D01*
X555850Y328681D01*
X555850Y328681D01*
X553071D01*
X553000Y328710D01*
X552941Y328686D01*
X552878Y328696D01*
X552488Y328681D01*
Y328621D01*
X551360Y328543D01*
X550998Y328541D01*
X550970Y328529D01*
X545000D01*
X544415Y328413D01*
X543919Y328081D01*
X543833Y327996D01*
X543415Y327913D01*
X542918Y327581D01*
X537419Y322081D01*
X537087Y321585D01*
X537029Y321295D01*
X536529Y321345D01*
Y323867D01*
X549581Y336919D01*
X549913Y337415D01*
X550029Y338000D01*
Y344070D01*
X550041Y344096D01*
X550051Y344462D01*
X550077Y344767D01*
X550120Y345022D01*
X550174Y345226D01*
X550235Y345375D01*
X550294Y345473D01*
X550344Y345528D01*
X550385Y345555D01*
X550431Y345571D01*
X550557Y345584D01*
X550583Y345599D01*
X552051D01*
Y355260D01*
D02*
G37*
G36*
X602000Y326449D02*
Y324500D01*
X603949D01*
X603855Y324975D01*
X603302Y325802D01*
X602476Y326355D01*
X602000Y326449D01*
D02*
G37*
G36*
X601000D02*
X600525Y326355D01*
X599698Y325802D01*
X599145Y324975D01*
X599051Y324500D01*
X601000D01*
Y326449D01*
D02*
G37*
G36*
X593500Y324950D02*
Y323000D01*
X595449D01*
X595355Y323476D01*
X594802Y324302D01*
X593975Y324855D01*
X593500Y324950D01*
D02*
G37*
G36*
X592500D02*
X592025Y324855D01*
X591198Y324302D01*
X590645Y323476D01*
X590551Y323000D01*
X592500D01*
Y324950D01*
D02*
G37*
G36*
X575500Y324500D02*
X573551D01*
X573645Y324025D01*
X574198Y323198D01*
X575025Y322645D01*
X575500Y322551D01*
Y324500D01*
D02*
G37*
G36*
X578449D02*
X576500D01*
Y322551D01*
X576975Y322645D01*
X577416Y322939D01*
X577911Y322740D01*
X578033Y322374D01*
X578020Y322248D01*
X578004Y322202D01*
X577976Y322161D01*
X577922Y322111D01*
X577824Y322052D01*
X577674Y321991D01*
X577471Y321936D01*
X577216Y321894D01*
X576911Y321867D01*
X576545Y321858D01*
X576519Y321846D01*
X574091D01*
X574066Y321858D01*
X573365Y321883D01*
X573102Y321911D01*
X572882Y321949D01*
X572715Y321992D01*
X572605Y322035D01*
X572576Y322053D01*
X572559Y322080D01*
Y322468D01*
X572119D01*
X572049Y322498D01*
X572005Y322480D01*
X571959Y322491D01*
X571924Y322468D01*
X567066D01*
X567023Y322493D01*
X566986Y322483D01*
X566951Y322498D01*
X566881Y322468D01*
X566441D01*
Y322069D01*
X566416Y322026D01*
X566406Y321951D01*
X566397Y321940D01*
X566349Y321904D01*
X566248Y321854D01*
X566090Y321802D01*
X565888Y321758D01*
X565300Y321699D01*
X564942Y321691D01*
X564922Y321682D01*
X564902Y321691D01*
X564537Y321701D01*
X564232Y321727D01*
X563976Y321770D01*
X563773Y321824D01*
X563623Y321885D01*
X563525Y321944D01*
X563471Y321994D01*
X563444Y322035D01*
X563428Y322081D01*
X563414Y322207D01*
X563400Y322233D01*
Y323300D01*
X560200Y323300D01*
X560100Y323759D01*
Y323800D01*
X558500D01*
Y320300D01*
Y316800D01*
X560100D01*
Y316841D01*
X560200Y317300D01*
X560600Y317300D01*
X563400D01*
Y318067D01*
X563414Y318093D01*
X563428Y318219D01*
X563444Y318265D01*
X563471Y318306D01*
X563525Y318356D01*
X563623Y318415D01*
X563773Y318476D01*
X563976Y318530D01*
X564232Y318573D01*
X564537Y318599D01*
X564902Y318609D01*
X564921Y318617D01*
X564939Y318609D01*
X565304Y318599D01*
X565608Y318573D01*
X565863Y318530D01*
X566067Y318476D01*
X566216Y318415D01*
X566314Y318355D01*
X566369Y318305D01*
X566397Y318264D01*
X566413Y318218D01*
X566427Y318091D01*
X566441Y318066D01*
Y317531D01*
X571788D01*
X571984Y317092D01*
X571718Y316720D01*
X570944Y316000D01*
X570622Y315741D01*
X570333Y315538D01*
X570132Y315421D01*
X569329D01*
X569288Y315439D01*
X569246Y315421D01*
X569244D01*
X569201Y315431D01*
X569185Y315421D01*
X566480D01*
Y310484D01*
X568195D01*
X568243Y310458D01*
X568263Y310456D01*
X568265Y310451D01*
X568290Y310391D01*
X568317Y310293D01*
X568339Y310160D01*
X568353Y309993D01*
X568359Y309782D01*
X568378Y309738D01*
Y308214D01*
X568359Y308171D01*
X568353Y307960D01*
X568339Y307793D01*
X568317Y307660D01*
X568290Y307562D01*
X568265Y307502D01*
X568263Y307497D01*
X568243Y307495D01*
X568195Y307469D01*
X566441D01*
Y302532D01*
X572559D01*
Y307469D01*
X570805D01*
X570757Y307495D01*
X570737Y307497D01*
X570735Y307502D01*
X570710Y307562D01*
X570683Y307660D01*
X570661Y307793D01*
X570647Y307960D01*
X570641Y308171D01*
X570622Y308214D01*
Y309738D01*
X570641Y309782D01*
X570647Y309993D01*
X570661Y310160D01*
X570683Y310293D01*
X570710Y310391D01*
X570735Y310451D01*
X570737Y310456D01*
X570757Y310458D01*
X570805Y310484D01*
X571965D01*
X572002Y310462D01*
X572046Y310472D01*
X572088Y310455D01*
X572158Y310484D01*
X572598D01*
Y310875D01*
X572621Y310911D01*
X572622Y310918D01*
X572652Y310936D01*
X572759Y310980D01*
X572925Y311025D01*
X573137Y311063D01*
X573734Y311112D01*
X574096Y311118D01*
X574123Y311130D01*
X576519D01*
X576545Y311119D01*
X576911Y311109D01*
X577216Y311082D01*
X577471Y311040D01*
X577674Y310985D01*
X577824Y310925D01*
X577922Y310865D01*
X577976Y310815D01*
X578004Y310774D01*
X578020Y310729D01*
X578033Y310602D01*
X578047Y310576D01*
Y309504D01*
X584953D01*
Y315228D01*
X578047D01*
Y314743D01*
X578033Y314717D01*
X578020Y314590D01*
X578004Y314545D01*
X577976Y314504D01*
X577922Y314454D01*
X577824Y314394D01*
X577674Y314334D01*
X577471Y314279D01*
X577216Y314237D01*
X576911Y314210D01*
X576545Y314200D01*
X576451Y314412D01*
X576389Y314689D01*
X576942Y315058D01*
X577384Y315720D01*
X577539Y316500D01*
X577384Y317280D01*
X576942Y317942D01*
X576425Y318287D01*
X576486Y318614D01*
X576545Y318776D01*
X576911Y318766D01*
X577216Y318740D01*
X577471Y318697D01*
X577674Y318643D01*
X577824Y318582D01*
X577922Y318523D01*
X577976Y318473D01*
X578004Y318432D01*
X578020Y318386D01*
X578033Y318260D01*
X578047Y318234D01*
Y317772D01*
X584953D01*
Y318417D01*
X584967Y318443D01*
X584980Y318569D01*
X584997Y318615D01*
X585024Y318656D01*
X585078Y318706D01*
X585176Y318765D01*
X585326Y318826D01*
X585529Y318880D01*
X585784Y318923D01*
X585904Y318933D01*
X586604Y318233D01*
Y304481D01*
X586593Y304455D01*
X586583Y304089D01*
X586556Y303784D01*
X586514Y303529D01*
X586460Y303326D01*
X586399Y303176D01*
X586339Y303078D01*
X586289Y303024D01*
X586249Y302996D01*
X586203Y302980D01*
X586077Y302967D01*
X586051Y302953D01*
X585272D01*
Y296047D01*
X590996D01*
Y302953D01*
X590217D01*
X590191Y302967D01*
X590064Y302980D01*
X590019Y302996D01*
X589978Y303024D01*
X589928Y303078D01*
X589869Y303176D01*
X589808Y303326D01*
X589753Y303529D01*
X589711Y303784D01*
X589684Y304089D01*
X589675Y304455D01*
X589663Y304481D01*
Y310136D01*
X590142Y310281D01*
X590198Y310198D01*
X591024Y309645D01*
X591500Y309550D01*
Y312000D01*
X592000D01*
Y312500D01*
X594450D01*
X594355Y312976D01*
X594013Y313487D01*
X594263Y314013D01*
X594780Y314116D01*
X595311Y314471D01*
X597921D01*
X597947Y314459D01*
X598310Y314449D01*
X598612Y314423D01*
X598866Y314381D01*
X599067Y314326D01*
X599216Y314265D01*
X599312Y314207D01*
X599366Y314157D01*
X599393Y314116D01*
X599409Y314070D01*
X599423Y313943D01*
X599449Y313895D01*
Y311240D01*
X606551D01*
Y320901D01*
X599449D01*
Y318105D01*
X599423Y318057D01*
X599409Y317930D01*
X599393Y317884D01*
X599366Y317843D01*
X599312Y317793D01*
X599216Y317735D01*
X599067Y317674D01*
X598866Y317619D01*
X598612Y317577D01*
X598310Y317551D01*
X597947Y317541D01*
X597921Y317529D01*
X595311D01*
X594780Y317884D01*
X594000Y318039D01*
X593220Y317884D01*
X592558Y317442D01*
X592116Y316780D01*
X591961Y316000D01*
X592116Y315220D01*
X592258Y315007D01*
X592000Y314549D01*
X591024Y314355D01*
X590198Y313802D01*
X590142Y313719D01*
X589663Y313864D01*
Y318866D01*
X589547Y319451D01*
X589215Y319948D01*
X587581Y321581D01*
X587085Y321913D01*
X586500Y322029D01*
X586481D01*
X586455Y322041D01*
X586089Y322051D01*
X585784Y322077D01*
X585529Y322120D01*
X585326Y322174D01*
X585176Y322235D01*
X585078Y322294D01*
X585024Y322344D01*
X584997Y322385D01*
X584980Y322431D01*
X584967Y322557D01*
X584953Y322583D01*
Y323496D01*
X578603D01*
X578336Y323996D01*
X578355Y324025D01*
X578449Y324500D01*
D02*
G37*
G36*
X603949Y323500D02*
X602000D01*
Y321550D01*
X602476Y321645D01*
X603302Y322198D01*
X603855Y323025D01*
X603949Y323500D01*
D02*
G37*
G36*
X601000D02*
X599051D01*
X599145Y323025D01*
X599698Y322198D01*
X600525Y321645D01*
X601000Y321550D01*
Y323500D01*
D02*
G37*
G36*
X595449Y322000D02*
X593500D01*
Y320051D01*
X593975Y320145D01*
X594802Y320698D01*
X595355Y321525D01*
X595449Y322000D01*
D02*
G37*
G36*
X592500D02*
X590551D01*
X590645Y321525D01*
X591198Y320698D01*
X592025Y320145D01*
X592500Y320051D01*
Y322000D01*
D02*
G37*
G36*
X549559Y322468D02*
X546500D01*
Y320000D01*
X549559D01*
Y322468D01*
D02*
G37*
G36*
Y319000D02*
X546500D01*
Y316531D01*
X549559D01*
Y319000D01*
D02*
G37*
G36*
X545500D02*
X542441D01*
Y316531D01*
X545500D01*
Y319000D01*
D02*
G37*
G36*
X620000Y313398D02*
X619571Y313341D01*
X618705Y312983D01*
X617962Y312412D01*
X617391Y311669D01*
X617033Y310803D01*
X616976Y310374D01*
X620000D01*
Y313398D01*
D02*
G37*
G36*
X594450Y311500D02*
X592500D01*
Y309550D01*
X592976Y309645D01*
X593802Y310198D01*
X594355Y311024D01*
X594450Y311500D01*
D02*
G37*
G36*
X576500Y309450D02*
Y307500D01*
X578449D01*
X578355Y307976D01*
X577802Y308802D01*
X576975Y309355D01*
X576500Y309450D01*
D02*
G37*
G36*
X575500D02*
X575025Y309355D01*
X574198Y308802D01*
X573645Y307976D01*
X573551Y307500D01*
X575500D01*
Y309450D01*
D02*
G37*
G36*
X542000Y308039D02*
X541220Y307884D01*
X540558Y307442D01*
X540116Y306780D01*
X540115Y306777D01*
X539203D01*
X539203Y306777D01*
X538774Y306692D01*
X538410Y306449D01*
X538410Y306449D01*
X537707Y305746D01*
X537464Y305382D01*
X537378Y304953D01*
X537378Y304953D01*
Y303518D01*
X537359Y303474D01*
X537353Y303260D01*
X537339Y303091D01*
X537316Y302956D01*
X537290Y302856D01*
X537265Y302794D01*
X537261Y302788D01*
X537243Y302786D01*
X537217Y302772D01*
X536228D01*
Y298228D01*
X540772D01*
Y302772D01*
X539783D01*
X539757Y302786D01*
X539739Y302788D01*
X539735Y302794D01*
X539710Y302856D01*
X539684Y302956D01*
X539661Y303091D01*
X539647Y303260D01*
X539641Y303474D01*
X539622Y303518D01*
Y304488D01*
X539668Y304534D01*
X540423D01*
X540474Y304515D01*
X540478Y304516D01*
X540481Y304515D01*
X540615Y304520D01*
X541220Y304116D01*
X542000Y303961D01*
X542780Y304116D01*
X543442Y304558D01*
X543884Y305220D01*
X544039Y306000D01*
X543884Y306780D01*
X543442Y307442D01*
X542780Y307884D01*
X542000Y308039D01*
D02*
G37*
G36*
X620000Y309374D02*
X616976D01*
X617033Y308945D01*
X617391Y308079D01*
X617962Y307336D01*
X618705Y306765D01*
X619571Y306407D01*
X620000Y306350D01*
Y309374D01*
D02*
G37*
G36*
X612000Y306949D02*
Y305000D01*
X613949D01*
X613855Y305475D01*
X613302Y306302D01*
X612475Y306855D01*
X612000Y306949D01*
D02*
G37*
G36*
X611000D02*
X610525Y306855D01*
X609698Y306302D01*
X609145Y305475D01*
X609051Y305000D01*
X611000D01*
Y306949D01*
D02*
G37*
G36*
X578449Y306500D02*
X576500D01*
Y304551D01*
X576975Y304645D01*
X577802Y305198D01*
X578355Y306025D01*
X578449Y306500D01*
D02*
G37*
G36*
X575500D02*
X573551D01*
X573645Y306025D01*
X574198Y305198D01*
X575025Y304645D01*
X575500Y304551D01*
Y306500D01*
D02*
G37*
G36*
X613949Y304000D02*
X612000D01*
Y302050D01*
X612475Y302145D01*
X613302Y302698D01*
X613855Y303524D01*
X613949Y304000D01*
D02*
G37*
G36*
X611000D02*
X609051D01*
X609145Y303524D01*
X609698Y302698D01*
X610525Y302145D01*
X611000Y302050D01*
Y304000D01*
D02*
G37*
G36*
X554618Y303576D02*
X552374D01*
X552033Y303508D01*
X551744Y303315D01*
X551551Y303026D01*
X551483Y302685D01*
Y301765D01*
X551479Y301757D01*
X551477Y301739D01*
X551471Y301735D01*
X551409Y301710D01*
X551309Y301684D01*
X551173Y301661D01*
X551005Y301647D01*
X550791Y301641D01*
X550747Y301622D01*
X549638D01*
X549594Y301641D01*
X549380Y301647D01*
X549211Y301661D01*
X549076Y301684D01*
X548976Y301710D01*
X548914Y301735D01*
X548908Y301739D01*
X548906Y301757D01*
X548892Y301783D01*
Y302772D01*
X544348D01*
Y298228D01*
X548892D01*
Y299217D01*
X548906Y299243D01*
X548908Y299261D01*
X548914Y299265D01*
X548976Y299290D01*
X549076Y299316D01*
X549211Y299339D01*
X549380Y299353D01*
X549594Y299359D01*
X549638Y299378D01*
X550747D01*
X550791Y299359D01*
X551005Y299353D01*
X551173Y299339D01*
X551309Y299316D01*
X551409Y299290D01*
X551471Y299265D01*
X551477Y299261D01*
X551479Y299243D01*
X551483Y299235D01*
Y298315D01*
X551551Y297974D01*
X551744Y297685D01*
X552033Y297492D01*
X552374Y297424D01*
X554618D01*
X554959Y297492D01*
X555248Y297685D01*
X555441Y297974D01*
X555509Y298315D01*
Y302685D01*
X555441Y303026D01*
X555248Y303315D01*
X554959Y303508D01*
X554618Y303576D01*
D02*
G37*
G36*
X563400Y313700D02*
X560200D01*
Y308317D01*
X560174Y308270D01*
X560183Y308240D01*
X560171Y308212D01*
X560200Y308141D01*
Y307700D01*
X560606D01*
X560654Y307674D01*
X560667Y307673D01*
X560669Y307670D01*
X560694Y307609D01*
X560719Y307511D01*
X560742Y307377D01*
X560756Y307210D01*
X560761Y306998D01*
X560781Y306954D01*
Y306622D01*
X560563Y306477D01*
X560121Y305815D01*
X559966Y305035D01*
X560055Y304586D01*
X559678Y304086D01*
X559421D01*
X558885Y303979D01*
X558431Y303676D01*
X558127Y303221D01*
X558020Y302685D01*
Y301000D01*
X560543D01*
X563066D01*
Y302685D01*
X562960Y303221D01*
X562970Y303274D01*
X563447Y303593D01*
X563889Y304254D01*
X564044Y305035D01*
X563889Y305815D01*
X563447Y306477D01*
X563024Y306759D01*
Y306950D01*
X563043Y306993D01*
X563058Y307406D01*
X563073Y307549D01*
X563094Y307665D01*
X563103Y307700D01*
X563400D01*
Y308141D01*
X563429Y308212D01*
X563412Y308255D01*
X563422Y308299D01*
X563400Y308335D01*
Y313700D01*
D02*
G37*
G36*
X583228Y303453D02*
X580366D01*
Y300000D01*
X583228D01*
Y303453D01*
D02*
G37*
G36*
X579366D02*
X576504D01*
Y300000D01*
X579366D01*
Y303453D01*
D02*
G37*
G36*
X573098Y300921D02*
X570039D01*
Y298453D01*
X573098D01*
Y300921D01*
D02*
G37*
G36*
X569039D02*
X565980D01*
Y298453D01*
X569039D01*
Y300921D01*
D02*
G37*
G36*
X563066Y300000D02*
X561043D01*
Y296914D01*
X561665D01*
X562202Y297021D01*
X562656Y297324D01*
X562960Y297779D01*
X563066Y298315D01*
Y300000D01*
D02*
G37*
G36*
X560043D02*
X558020D01*
Y298315D01*
X558127Y297779D01*
X558431Y297324D01*
X558885Y297021D01*
X559421Y296914D01*
X560043D01*
Y300000D01*
D02*
G37*
G36*
X583228Y299000D02*
X580366D01*
Y295547D01*
X583228D01*
Y299000D01*
D02*
G37*
G36*
X579366D02*
X576504D01*
Y295547D01*
X579366D01*
Y299000D01*
D02*
G37*
%LPD*%
G36*
X599414Y452566D02*
X599335Y452485D01*
X599103Y452219D01*
X599066Y452166D01*
X599037Y452119D01*
X599016Y452077D01*
X599004Y452041D01*
X599000Y452010D01*
X598010Y453000D01*
X598041Y453004D01*
X598077Y453016D01*
X598119Y453037D01*
X598166Y453066D01*
X598219Y453103D01*
X598341Y453202D01*
X598485Y453335D01*
X598566Y453414D01*
X599414Y452566D01*
D02*
G37*
G36*
X597990Y451000D02*
X597959Y450996D01*
X597923Y450984D01*
X597881Y450963D01*
X597834Y450934D01*
X597781Y450897D01*
X597659Y450798D01*
X597515Y450665D01*
X597434Y450586D01*
X596586Y451434D01*
X596665Y451515D01*
X596897Y451781D01*
X596934Y451834D01*
X596963Y451881D01*
X596984Y451923D01*
X596996Y451959D01*
X597000Y451990D01*
X597990Y451000D01*
D02*
G37*
G36*
X609758Y451599D02*
X610199Y451226D01*
X610394Y451090D01*
X610573Y450988D01*
X610734Y450920D01*
X610878Y450886D01*
X611005D01*
X611116Y450920D01*
X611209Y450988D01*
X609512Y449291D01*
X609580Y449384D01*
X609614Y449495D01*
Y449622D01*
X609580Y449766D01*
X609512Y449927D01*
X609410Y450105D01*
X609274Y450301D01*
X609105Y450513D01*
X608664Y450988D01*
X609512Y451836D01*
X609758Y451599D01*
D02*
G37*
G36*
X597106Y449860D02*
X597124Y449656D01*
X597154Y449476D01*
X597196Y449320D01*
X597250Y449188D01*
X597316Y449080D01*
X597394Y448996D01*
X597484Y448936D01*
X597586Y448900D01*
X597700Y448888D01*
X595300D01*
X595414Y448900D01*
X595516Y448936D01*
X595606Y448996D01*
X595684Y449080D01*
X595750Y449188D01*
X595804Y449320D01*
X595846Y449476D01*
X595876Y449656D01*
X595894Y449860D01*
X595900Y450088D01*
X597100D01*
X597106Y449860D01*
D02*
G37*
G36*
X604434Y446014D02*
X604364Y445983D01*
X604302Y445932D01*
X604248Y445860D01*
X604203Y445768D01*
X604166Y445655D01*
X604137Y445522D01*
X604116Y445369D01*
X604104Y445195D01*
X604100Y445000D01*
X602900D01*
X602896Y445195D01*
X602863Y445522D01*
X602834Y445655D01*
X602797Y445768D01*
X602752Y445860D01*
X602698Y445932D01*
X602636Y445983D01*
X602566Y446014D01*
X602488Y446024D01*
X604512D01*
X604434Y446014D01*
D02*
G37*
G36*
X616987Y441450D02*
X616787Y441755D01*
X616582Y442027D01*
X616373Y442268D01*
X616159Y442476D01*
X615940Y442652D01*
X615717Y442796D01*
X615488Y442909D01*
X615256Y442989D01*
X615018Y443037D01*
X614776Y443053D01*
X615055Y444253D01*
X615252Y444265D01*
X615469Y444302D01*
X615705Y444363D01*
X615960Y444449D01*
X616235Y444560D01*
X616843Y444855D01*
X617176Y445039D01*
X617900Y445482D01*
X616987Y441450D01*
D02*
G37*
G36*
X590866Y442392D02*
X590902Y442362D01*
X590962Y442336D01*
X591046Y442313D01*
X591154Y442294D01*
X591286Y442278D01*
X591622Y442257D01*
X592054Y442250D01*
Y441050D01*
X591826Y441048D01*
X591154Y441006D01*
X591046Y440986D01*
X590962Y440964D01*
X590902Y440937D01*
X590866Y440907D01*
X590854Y440874D01*
Y442425D01*
X590866Y442392D01*
D02*
G37*
G36*
X613494Y439900D02*
X613470Y439919D01*
X613435Y439936D01*
X613391Y439951D01*
X613337Y439964D01*
X613273Y439975D01*
X613117Y439991D01*
X612921Y439999D01*
X612808Y440000D01*
Y441200D01*
X612921Y441201D01*
X613273Y441225D01*
X613337Y441236D01*
X613391Y441249D01*
X613435Y441264D01*
X613470Y441281D01*
X613494Y441300D01*
Y439900D01*
D02*
G37*
G36*
X610508Y441686D02*
X610544Y441584D01*
X610605Y441494D01*
X610690Y441416D01*
X610799Y441350D01*
X610932Y441296D01*
X611090Y441254D01*
X611271Y441224D01*
X611477Y441206D01*
X611708Y441200D01*
Y440000D01*
X611477Y439994D01*
X611271Y439976D01*
X611090Y439946D01*
X610932Y439904D01*
X610799Y439850D01*
X610690Y439784D01*
X610605Y439706D01*
X610544Y439616D01*
X610508Y439514D01*
X610496Y439400D01*
Y441800D01*
X610508Y441686D01*
D02*
G37*
G36*
X622457Y442572D02*
X622513Y441852D01*
X622566Y441530D01*
X622635Y441233D01*
X622719Y440961D01*
X622821Y440715D01*
X622938Y440493D01*
X623072Y440298D01*
X623221Y440127D01*
X622373Y439279D01*
X622202Y439428D01*
X622007Y439562D01*
X621785Y439679D01*
X621539Y439781D01*
X621267Y439865D01*
X620970Y439934D01*
X620648Y439987D01*
X620300Y440023D01*
X619529Y440047D01*
X622453Y442971D01*
X622457Y442572D01*
D02*
G37*
G36*
X590852Y439581D02*
X590881Y439524D01*
X590929Y439473D01*
X590996Y439429D01*
X591081Y439391D01*
X591186Y439361D01*
X591309Y439337D01*
X591452Y439320D01*
X591613Y439310D01*
X591794Y439306D01*
Y438106D01*
X590854Y438118D01*
X590842Y439646D01*
X590852Y439581D01*
D02*
G37*
G36*
X598988Y439086D02*
X599024Y438984D01*
X599085Y438894D01*
X599170Y438816D01*
X599279Y438750D01*
X599412Y438696D01*
X599570Y438654D01*
X599752Y438624D01*
X599958Y438606D01*
X600188Y438600D01*
Y437400D01*
X599958Y437394D01*
X599752Y437376D01*
X599570Y437346D01*
X599412Y437304D01*
X599279Y437250D01*
X599170Y437184D01*
X599085Y437106D01*
X599024Y437016D01*
X598988Y436914D01*
X598976Y436800D01*
Y439200D01*
X598988Y439086D01*
D02*
G37*
G36*
X594024Y436800D02*
X594012Y436914D01*
X593975Y437016D01*
X593915Y437106D01*
X593830Y437184D01*
X593721Y437250D01*
X593588Y437304D01*
X593430Y437346D01*
X593248Y437376D01*
X593042Y437394D01*
X592812Y437400D01*
Y438600D01*
X593042Y438606D01*
X593248Y438624D01*
X593430Y438654D01*
X593588Y438696D01*
X593721Y438750D01*
X593830Y438816D01*
X593915Y438894D01*
X593975Y438984D01*
X594012Y439086D01*
X594024Y439200D01*
Y436800D01*
D02*
G37*
G36*
X585366Y435362D02*
X585354Y435396D01*
X585318Y435426D01*
X585258Y435452D01*
X585174Y435475D01*
X585066Y435494D01*
X584934Y435510D01*
X584598Y435531D01*
X584166Y435538D01*
Y436738D01*
X584394Y436739D01*
X585066Y436782D01*
X585174Y436801D01*
X585258Y436824D01*
X585318Y436850D01*
X585354Y436880D01*
X585366Y436913D01*
Y435362D01*
D02*
G37*
G36*
X605465Y432800D02*
X605453Y432914D01*
X605416Y433016D01*
X605356Y433106D01*
X605271Y433184D01*
X605162Y433250D01*
X605029Y433304D01*
X604871Y433346D01*
X604689Y433376D01*
X604483Y433394D01*
X604253Y433400D01*
Y434600D01*
X604483Y434606D01*
X604689Y434624D01*
X604871Y434654D01*
X605029Y434696D01*
X605162Y434750D01*
X605271Y434816D01*
X605356Y434894D01*
X605416Y434984D01*
X605453Y435086D01*
X605465Y435200D01*
Y432800D01*
D02*
G37*
G36*
X585366Y432606D02*
X585354Y432640D01*
X585318Y432669D01*
X585258Y432696D01*
X585174Y432719D01*
X585066Y432738D01*
X584934Y432754D01*
X584598Y432775D01*
X584166Y432782D01*
Y433982D01*
X584394Y433984D01*
X585066Y434026D01*
X585174Y434045D01*
X585258Y434068D01*
X585318Y434094D01*
X585354Y434124D01*
X585366Y434157D01*
Y432606D01*
D02*
G37*
G36*
X616798Y436572D02*
X616994Y436438D01*
X617215Y436321D01*
X617461Y436220D01*
X617733Y436134D01*
X618030Y436066D01*
X618352Y436013D01*
X618699Y435977D01*
X619471Y435953D01*
X617391Y433873D01*
Y430933D01*
X617107Y431212D01*
X616558Y431681D01*
X616292Y431872D01*
X616034Y432033D01*
X615782Y432165D01*
X615536Y432268D01*
X615297Y432341D01*
X615064Y432385D01*
X614837Y432400D01*
Y433600D01*
X615064Y433615D01*
X615297Y433659D01*
X615536Y433732D01*
X615782Y433835D01*
X616034Y433967D01*
X616292Y434128D01*
X616469Y434255D01*
X616434Y434470D01*
X616365Y434767D01*
X616281Y435039D01*
X616179Y435285D01*
X616062Y435506D01*
X615928Y435702D01*
X615779Y435873D01*
X616627Y436721D01*
X616798Y436572D01*
D02*
G37*
G36*
X606554Y430078D02*
X606591Y429508D01*
X606602Y429468D01*
X606615Y429445D01*
X606630Y429437D01*
X605276D01*
X605290Y429445D01*
X605303Y429468D01*
X605315Y429508D01*
X605325Y429564D01*
X605334Y429635D01*
X605346Y429825D01*
X605353Y430229D01*
X606553D01*
X606554Y430078D01*
D02*
G37*
G36*
X600648Y430336D02*
X600697Y429481D01*
X600710Y429448D01*
X600724Y429437D01*
X599370D01*
X599385Y429448D01*
X599398Y429481D01*
X599409Y429537D01*
X599419Y429614D01*
X599435Y429837D01*
X599447Y430547D01*
X600647D01*
X600648Y430336D01*
D02*
G37*
G36*
X593397Y429505D02*
X593385Y429502D01*
X593366Y429490D01*
X593339Y429469D01*
X593262Y429402D01*
X592934Y429086D01*
X592086Y429934D01*
X592505Y430397D01*
X593397Y429505D01*
D02*
G37*
G36*
X608610Y428862D02*
X608646Y428760D01*
X608706Y428670D01*
X608790Y428592D01*
X608898Y428526D01*
X609030Y428472D01*
X609186Y428430D01*
X609366Y428400D01*
X609570Y428382D01*
X609798Y428376D01*
Y427176D01*
X609570Y427170D01*
X609366Y427152D01*
X609186Y427122D01*
X609030Y427080D01*
X608898Y427026D01*
X608790Y426960D01*
X608706Y426882D01*
X608646Y426792D01*
X608610Y426690D01*
X608598Y426576D01*
Y428976D01*
X608610Y428862D01*
D02*
G37*
G36*
X596701Y425567D02*
X596737Y425538D01*
X596797Y425514D01*
X596881Y425492D01*
X596989Y425474D01*
X597121Y425459D01*
X597457Y425439D01*
X597889Y425432D01*
Y424232D01*
X597704Y424234D01*
X597709Y423632D01*
X597696Y423746D01*
X597659Y423848D01*
X597598Y423938D01*
X597513Y424016D01*
X597404Y424082D01*
X597270Y424136D01*
X597113Y424178D01*
X596932Y424208D01*
X596726Y424226D01*
X596497Y424232D01*
Y425432D01*
X596689Y425380D01*
Y425598D01*
X596701Y425567D01*
D02*
G37*
G36*
X609311Y425380D02*
X609503Y425432D01*
Y424232D01*
X609274Y424226D01*
X609068Y424208D01*
X608887Y424178D01*
X608730Y424136D01*
X608596Y424082D01*
X608487Y424016D01*
X608402Y423938D01*
X608341Y423848D01*
X608304Y423746D01*
X608291Y423632D01*
X608296Y424233D01*
X608111Y424232D01*
Y425432D01*
X608339Y425434D01*
X609119Y425492D01*
X609203Y425514D01*
X609263Y425538D01*
X609299Y425567D01*
X609311Y425598D01*
Y425380D01*
D02*
G37*
G36*
X579101Y418787D02*
X579125Y418435D01*
X579136Y418371D01*
X579149Y418317D01*
X579164Y418273D01*
X579181Y418239D01*
X579200Y418214D01*
X577800D01*
X577819Y418239D01*
X577836Y418273D01*
X577851Y418317D01*
X577864Y418371D01*
X577875Y418435D01*
X577891Y418591D01*
X577899Y418787D01*
X577900Y418900D01*
X579100D01*
X579101Y418787D01*
D02*
G37*
G36*
X590863Y417462D02*
X590888Y417301D01*
X590931Y417139D01*
X590990Y416976D01*
X591066Y416812D01*
X591160Y416646D01*
X591270Y416480D01*
X591397Y416313D01*
X591541Y416145D01*
X591703Y415976D01*
X590759Y415223D01*
X590518Y415455D01*
X590083Y415824D01*
X589889Y415959D01*
X589711Y416061D01*
X589549Y416131D01*
X589404Y416168D01*
X589274Y416172D01*
X589160Y416144D01*
X589062Y416083D01*
X590854Y417622D01*
X590863Y417462D01*
D02*
G37*
G36*
X583101Y415787D02*
X583125Y415435D01*
X583136Y415371D01*
X583149Y415317D01*
X583164Y415273D01*
X583181Y415239D01*
X583200Y415214D01*
X581800D01*
X581819Y415239D01*
X581836Y415273D01*
X581851Y415317D01*
X581864Y415371D01*
X581875Y415435D01*
X581891Y415591D01*
X581899Y415787D01*
X581900Y415900D01*
X583100D01*
X583101Y415787D01*
D02*
G37*
G36*
X575101D02*
X575125Y415435D01*
X575136Y415371D01*
X575149Y415317D01*
X575164Y415273D01*
X575181Y415239D01*
X575200Y415214D01*
X573800D01*
X573819Y415239D01*
X573836Y415273D01*
X573851Y415317D01*
X573864Y415371D01*
X573875Y415435D01*
X573891Y415591D01*
X573899Y415787D01*
X573900Y415900D01*
X575100D01*
X575101Y415787D01*
D02*
G37*
G36*
X593563Y414402D02*
X593551Y414416D01*
X593515Y414430D01*
X593455Y414441D01*
X593371Y414451D01*
X593131Y414466D01*
X592363Y414479D01*
Y415679D01*
X592591Y415680D01*
X593551Y415741D01*
X593563Y415756D01*
Y414402D01*
D02*
G37*
G36*
X600648Y414906D02*
X601247D01*
X601133Y414894D01*
X601031Y414857D01*
X600941Y414797D01*
X600863Y414712D01*
X600797Y414603D01*
X600743Y414470D01*
X600701Y414312D01*
X600688Y414232D01*
X600710Y413898D01*
X600724Y413886D01*
X600652D01*
X600647Y413694D01*
X599447D01*
X599442Y413886D01*
X599370D01*
X599385Y413898D01*
X599398Y413934D01*
X599409Y413994D01*
X599419Y414078D01*
X599423Y414132D01*
X599393Y414312D01*
X599351Y414470D01*
X599297Y414603D01*
X599231Y414712D01*
X599153Y414797D01*
X599063Y414857D01*
X598961Y414894D01*
X598847Y414906D01*
X599444D01*
X599447Y415086D01*
X600647D01*
X600648Y414906D01*
D02*
G37*
G36*
X595978Y414404D02*
X595809Y414378D01*
X595640Y414335D01*
X595471Y414274D01*
X595302Y414197D01*
X595132Y414102D01*
X594962Y413990D01*
X594791Y413862D01*
X594620Y413716D01*
X594449Y413553D01*
X592752D01*
X593563Y414402D01*
X596146Y414414D01*
X595978Y414404D01*
D02*
G37*
G36*
X606615Y410553D02*
X606602Y410523D01*
X606591Y410472D01*
X606580Y410401D01*
X606565Y410197D01*
X606553Y409547D01*
X605353D01*
X605352Y409740D01*
X605303Y410523D01*
X605290Y410553D01*
X605276Y410563D01*
X606630D01*
X606615Y410553D01*
D02*
G37*
G36*
X602678Y410551D02*
X602665Y410515D01*
X602654Y410455D01*
X602643Y410371D01*
X602628Y410131D01*
X602616Y409363D01*
X601416D01*
X601415Y409591D01*
X601353Y410551D01*
X601339Y410563D01*
X602693D01*
X602678Y410551D01*
D02*
G37*
G36*
X593062Y409287D02*
X593086Y408935D01*
X593097Y408871D01*
X593110Y408817D01*
X593125Y408773D01*
X593142Y408739D01*
X593161Y408714D01*
X591761D01*
X591780Y408739D01*
X591797Y408773D01*
X591812Y408817D01*
X591825Y408871D01*
X591836Y408935D01*
X591852Y409091D01*
X591860Y409287D01*
X591861Y409400D01*
X593061D01*
X593062Y409287D01*
D02*
G37*
G36*
X607241Y409109D02*
X607508Y408876D01*
X607560Y408839D01*
X607608Y408810D01*
X607649Y408790D01*
X607686Y408777D01*
X607716Y408774D01*
X606727Y407784D01*
X606723Y407814D01*
X606710Y407851D01*
X606690Y407892D01*
X606661Y407940D01*
X606624Y407993D01*
X606524Y408115D01*
X606391Y408259D01*
X606312Y408339D01*
X607161Y409188D01*
X607241Y409109D01*
D02*
G37*
G36*
X593142Y407261D02*
X593125Y407227D01*
X593110Y407183D01*
X593097Y407129D01*
X593086Y407065D01*
X593070Y406909D01*
X593062Y406713D01*
X593061Y406600D01*
X591861D01*
X591860Y406713D01*
X591836Y407065D01*
X591825Y407129D01*
X591812Y407183D01*
X591797Y407227D01*
X591780Y407261D01*
X591761Y407286D01*
X593161D01*
X593142Y407261D01*
D02*
G37*
G36*
X608730Y407733D02*
X608743Y407697D01*
X608763Y407655D01*
X608792Y407608D01*
X608829Y407555D01*
X608929Y407433D01*
X609062Y407288D01*
X609141Y407208D01*
X608292Y406359D01*
X608212Y406438D01*
X607945Y406671D01*
X607893Y406708D01*
X607845Y406737D01*
X607803Y406757D01*
X607767Y406770D01*
X607736Y406774D01*
X608726Y407764D01*
X608730Y407733D01*
D02*
G37*
G36*
X601606Y405476D02*
X601624Y405272D01*
X601654Y405092D01*
X601696Y404936D01*
X601750Y404804D01*
X601816Y404696D01*
X601894Y404612D01*
X601984Y404552D01*
X602086Y404516D01*
X602200Y404504D01*
X599800D01*
X599914Y404516D01*
X600016Y404552D01*
X600106Y404612D01*
X600184Y404696D01*
X600250Y404804D01*
X600304Y404936D01*
X600346Y405092D01*
X600376Y405272D01*
X600394Y405476D01*
X600400Y405704D01*
X601600D01*
X601606Y405476D01*
D02*
G37*
G36*
X593067Y405473D02*
X593085Y405267D01*
X593115Y405086D01*
X593157Y404928D01*
X593211Y404795D01*
X593277Y404686D01*
X593355Y404601D01*
X593445Y404540D01*
X593547Y404504D01*
X593661Y404492D01*
X591261D01*
X591375Y404504D01*
X591477Y404540D01*
X591567Y404601D01*
X591645Y404686D01*
X591711Y404795D01*
X591765Y404928D01*
X591807Y405086D01*
X591837Y405267D01*
X591855Y405473D01*
X591861Y405704D01*
X593061D01*
X593067Y405473D01*
D02*
G37*
G36*
X610106Y405426D02*
X610124Y405220D01*
X610154Y405038D01*
X610196Y404881D01*
X610250Y404747D01*
X610316Y404638D01*
X610394Y404554D01*
X610484Y404493D01*
X610586Y404457D01*
X610700Y404445D01*
X608300D01*
X608414Y404457D01*
X608516Y404493D01*
X608606Y404554D01*
X608684Y404638D01*
X608750Y404747D01*
X608804Y404881D01*
X608846Y405038D01*
X608876Y405220D01*
X608894Y405426D01*
X608900Y405656D01*
X610100D01*
X610106Y405426D01*
D02*
G37*
G36*
X612047Y404086D02*
X612083Y403984D01*
X612144Y403894D01*
X612229Y403816D01*
X612338Y403750D01*
X612471Y403696D01*
X612629Y403654D01*
X612811Y403624D01*
X613017Y403606D01*
X613247Y403600D01*
Y402400D01*
X613017Y402394D01*
X612811Y402376D01*
X612629Y402346D01*
X612471Y402304D01*
X612338Y402250D01*
X612229Y402184D01*
X612144Y402106D01*
X612083Y402016D01*
X612047Y401914D01*
X612035Y401800D01*
Y404200D01*
X612047Y404086D01*
D02*
G37*
G36*
X617391Y400933D02*
X617107Y401212D01*
X616558Y401681D01*
X616292Y401872D01*
X616034Y402033D01*
X615782Y402165D01*
X615536Y402268D01*
X615297Y402341D01*
X615064Y402385D01*
X614837Y402400D01*
Y403600D01*
X615064Y403615D01*
X615297Y403659D01*
X615536Y403732D01*
X615782Y403835D01*
X616034Y403967D01*
X616292Y404128D01*
X616558Y404319D01*
X616829Y404539D01*
X617391Y405067D01*
Y400933D01*
D02*
G37*
G36*
X549146Y446386D02*
X549134Y446419D01*
X549098Y446449D01*
X549038Y446476D01*
X548954Y446498D01*
X548846Y446518D01*
X548714Y446533D01*
X548378Y446554D01*
X547946Y446561D01*
Y447761D01*
X548174Y447763D01*
X548846Y447805D01*
X548954Y447824D01*
X549038Y447847D01*
X549098Y447874D01*
X549134Y447903D01*
X549146Y447937D01*
Y446386D01*
D02*
G37*
G36*
X541441Y448247D02*
X541478Y448145D01*
X541539Y448055D01*
X541624Y447977D01*
X541733Y447911D01*
X541867Y447857D01*
X542024Y447815D01*
X542205Y447785D01*
X542411Y447767D01*
X542641Y447761D01*
Y446561D01*
X542413Y446556D01*
X542029Y446516D01*
X541873Y446481D01*
X541741Y446436D01*
X541633Y446381D01*
X541549Y446315D01*
X541489Y446240D01*
X541453Y446155D01*
X541441Y446059D01*
X541429Y448361D01*
X541441Y448247D01*
D02*
G37*
G36*
X549146Y443630D02*
X549134Y443664D01*
X549098Y443693D01*
X549038Y443720D01*
X548954Y443743D01*
X548846Y443762D01*
X548714Y443778D01*
X548378Y443799D01*
X547946Y443806D01*
Y445006D01*
X548174Y445007D01*
X548846Y445049D01*
X548954Y445069D01*
X549038Y445092D01*
X549098Y445118D01*
X549134Y445148D01*
X549146Y445181D01*
Y443630D01*
D02*
G37*
G36*
X542221Y441873D02*
X542072Y441702D01*
X541938Y441506D01*
X541821Y441285D01*
X541719Y441039D01*
X541635Y440767D01*
X541566Y440470D01*
X541513Y440148D01*
X541477Y439801D01*
X541453Y439030D01*
X538529Y441953D01*
X538928Y441957D01*
X539648Y442013D01*
X539970Y442066D01*
X540267Y442135D01*
X540539Y442219D01*
X540785Y442321D01*
X541007Y442438D01*
X541202Y442572D01*
X541373Y442721D01*
X542221Y441873D01*
D02*
G37*
G36*
X554646Y431356D02*
X554682Y431316D01*
X554742Y431280D01*
X554826Y431249D01*
X554934Y431223D01*
X555066Y431201D01*
X555222Y431184D01*
X555606Y431165D01*
X555834Y431163D01*
Y429963D01*
X555606Y429962D01*
X554742Y429908D01*
X554682Y429891D01*
X554646Y429872D01*
X554634Y429851D01*
Y431401D01*
X554646Y431356D01*
D02*
G37*
G36*
X542221Y431873D02*
X542072Y431702D01*
X541938Y431506D01*
X541821Y431285D01*
X541719Y431039D01*
X541635Y430767D01*
X541566Y430470D01*
X541513Y430148D01*
X541477Y429801D01*
X541453Y429030D01*
X538529Y431953D01*
X538928Y431957D01*
X539648Y432013D01*
X539970Y432066D01*
X540267Y432134D01*
X540539Y432220D01*
X540785Y432321D01*
X541007Y432438D01*
X541202Y432572D01*
X541373Y432721D01*
X542221Y431873D01*
D02*
G37*
G36*
X558101Y421287D02*
X558125Y420935D01*
X558136Y420871D01*
X558149Y420817D01*
X558164Y420773D01*
X558181Y420739D01*
X558200Y420714D01*
X556800D01*
X556819Y420739D01*
X556836Y420773D01*
X556851Y420817D01*
X556864Y420871D01*
X556875Y420935D01*
X556891Y421091D01*
X556899Y421287D01*
X556900Y421400D01*
X558100D01*
X558101Y421287D01*
D02*
G37*
G36*
X549146Y418827D02*
X549134Y418841D01*
X549098Y418853D01*
X549038Y418864D01*
X548954Y418874D01*
X548558Y418893D01*
X547946Y418900D01*
Y420100D01*
X548174Y420103D01*
X548714Y420144D01*
X548846Y420169D01*
X548954Y420200D01*
X549038Y420236D01*
X549098Y420278D01*
X549134Y420325D01*
X549146Y420378D01*
Y418827D01*
D02*
G37*
G36*
Y416071D02*
X549134Y416069D01*
X549098Y416067D01*
X548140Y416060D01*
X548140Y416059D01*
X548028Y416057D01*
X547753Y416035D01*
X547681Y416021D01*
X547619Y416005D01*
X547567Y415985D01*
X547525Y415963D01*
X547493Y415937D01*
X547471Y415909D01*
X547109Y417261D01*
X547115Y417261D01*
X547327Y417259D01*
X547712Y417259D01*
X547946Y416603D01*
Y417259D01*
X548174Y417263D01*
X548558Y417292D01*
X548714Y417317D01*
X548846Y417350D01*
X548954Y417390D01*
X549038Y417437D01*
X549098Y417491D01*
X549134Y417553D01*
X549146Y417622D01*
Y416071D01*
D02*
G37*
G36*
X549256Y409580D02*
X548427Y408711D01*
X548347Y408789D01*
X548137Y408966D01*
X548077Y409007D01*
X548022Y409037D01*
X547972Y409058D01*
X547928Y409070D01*
X547888Y409072D01*
X547854Y409065D01*
X548442Y410335D01*
X549256Y409580D01*
D02*
G37*
G36*
X552701Y407379D02*
X552689Y407493D01*
X552653Y407595D01*
X552592Y407685D01*
X552507Y407763D01*
X552398Y407829D01*
X552265Y407883D01*
X552107Y407925D01*
X551926Y407955D01*
X551720Y407973D01*
X551489Y407979D01*
Y409179D01*
X551720Y409185D01*
X551926Y409203D01*
X552107Y409233D01*
X552265Y409275D01*
X552398Y409329D01*
X552507Y409395D01*
X552592Y409473D01*
X552653Y409563D01*
X552689Y409665D01*
X552701Y409779D01*
Y407379D01*
D02*
G37*
G36*
X579010Y405823D02*
X578980Y405787D01*
X578954Y405727D01*
X578931Y405643D01*
X578912Y405535D01*
X578896Y405403D01*
X578875Y405067D01*
X578868Y404635D01*
X577668D01*
X577666Y404863D01*
X577624Y405535D01*
X577605Y405643D01*
X577582Y405727D01*
X577556Y405787D01*
X577526Y405823D01*
X577492Y405835D01*
X579043D01*
X579010Y405823D01*
D02*
G37*
G36*
X567986D02*
X567956Y405787D01*
X567930Y405727D01*
X567907Y405643D01*
X567888Y405535D01*
X567872Y405403D01*
X567851Y405067D01*
X567844Y404635D01*
X566644D01*
X566642Y404863D01*
X566600Y405535D01*
X566581Y405643D01*
X566558Y405727D01*
X566532Y405787D01*
X566502Y405823D01*
X566469Y405835D01*
X568019D01*
X567986Y405823D01*
D02*
G37*
G36*
X562474D02*
X562444Y405787D01*
X562418Y405727D01*
X562395Y405643D01*
X562376Y405535D01*
X562360Y405403D01*
X562339Y405067D01*
X562332Y404635D01*
X561132D01*
X561131Y404863D01*
X561088Y405535D01*
X561069Y405643D01*
X561046Y405727D01*
X561020Y405787D01*
X560990Y405823D01*
X560957Y405835D01*
X562508D01*
X562474Y405823D01*
D02*
G37*
G36*
X547830Y405105D02*
X547853Y404822D01*
X547873Y404706D01*
X547898Y404609D01*
X547930Y404530D01*
X547967Y404468D01*
X548009Y404423D01*
X548058Y404397D01*
X548112Y404388D01*
X546512D01*
X546534Y404397D01*
X546554Y404423D01*
X546571Y404468D01*
X546586Y404530D01*
X546598Y404609D01*
X546617Y404822D01*
X546626Y405105D01*
X546627Y405273D01*
X547827D01*
X547830Y405105D01*
D02*
G37*
G36*
X578869Y404360D02*
X578927Y403496D01*
X578945Y403436D01*
X578965Y403400D01*
X578988Y403388D01*
X577068D01*
X577182Y403400D01*
X577284Y403436D01*
X577374Y403496D01*
X577452Y403580D01*
X577518Y403688D01*
X577572Y403820D01*
X577614Y403976D01*
X577644Y404156D01*
X577662Y404360D01*
X577668Y404588D01*
X578868D01*
X578869Y404360D01*
D02*
G37*
G36*
X567850Y402033D02*
X567868Y401827D01*
X567898Y401646D01*
X567940Y401489D01*
X567994Y401355D01*
X568060Y401246D01*
X568138Y401161D01*
X568228Y401100D01*
X568330Y401063D01*
X568444Y401051D01*
X566044Y401063D01*
X566158Y401075D01*
X566260Y401111D01*
X566350Y401171D01*
X566428Y401255D01*
X566494Y401363D01*
X566548Y401495D01*
X566590Y401651D01*
X566620Y401831D01*
X566638Y402035D01*
X566644Y402263D01*
X567844D01*
X567850Y402033D01*
D02*
G37*
G36*
X562338Y401899D02*
X562356Y401693D01*
X562386Y401511D01*
X562428Y401353D01*
X562482Y401220D01*
X562548Y401111D01*
X562626Y401026D01*
X562716Y400965D01*
X562818Y400929D01*
X562932Y400917D01*
X560532D01*
X560646Y400929D01*
X560748Y400965D01*
X560838Y401026D01*
X560916Y401111D01*
X560982Y401220D01*
X561036Y401353D01*
X561078Y401511D01*
X561108Y401693D01*
X561126Y401899D01*
X561132Y402129D01*
X562332D01*
X562338Y401899D01*
D02*
G37*
G36*
X578988Y402086D02*
X579025Y401984D01*
X579085Y401894D01*
X579170Y401816D01*
X579279Y401750D01*
X579412Y401696D01*
X579570Y401654D01*
X579752Y401624D01*
X579958Y401606D01*
X580188Y401600D01*
Y400400D01*
X579958Y400394D01*
X579752Y400376D01*
X579570Y400346D01*
X579412Y400304D01*
X579279Y400250D01*
X579170Y400184D01*
X579085Y400106D01*
X579025Y400016D01*
X578988Y399914D01*
X578976Y399800D01*
Y402200D01*
X578988Y402086D01*
D02*
G37*
G36*
X555779Y400016D02*
X555764Y400010D01*
X555741Y399995D01*
X555711Y399973D01*
X555630Y399903D01*
X555299Y399583D01*
X554240Y400222D01*
X554319Y400302D01*
X554499Y400513D01*
X554542Y400573D01*
X554575Y400629D01*
X554600Y400679D01*
X554615Y400725D01*
X554622Y400766D01*
X554620Y400802D01*
X555779Y400016D01*
D02*
G37*
G36*
X553965Y404823D02*
X555252D01*
Y405323D01*
X557189D01*
X557508Y405323D01*
X558008Y405323D01*
X559945D01*
X560264Y405323D01*
X560582Y404955D01*
X560589Y404844D01*
X560591Y404631D01*
X560611Y404584D01*
Y402187D01*
X560591Y402143D01*
X560586Y401929D01*
X560571Y401760D01*
X560548Y401625D01*
X560522Y401525D01*
X560497Y401463D01*
X560493Y401457D01*
X560475Y401455D01*
X560449Y401441D01*
X558898D01*
Y400430D01*
X558882Y400399D01*
X558871Y400263D01*
X558847Y400147D01*
X558800Y400012D01*
X558731Y399858D01*
X558635Y399686D01*
X558513Y399499D01*
X558367Y399302D01*
X557980Y398852D01*
X557748Y398611D01*
X557730Y398566D01*
X556878Y397714D01*
X556500Y397789D01*
X555720Y397634D01*
X555058Y397192D01*
X555022Y397137D01*
X554522Y397289D01*
Y398068D01*
X555445Y398992D01*
X555600Y398961D01*
X556380Y399116D01*
X557042Y399558D01*
X557484Y400220D01*
X557639Y401000D01*
X557484Y401780D01*
X557042Y402442D01*
X556380Y402884D01*
X555600Y403039D01*
X554820Y402884D01*
X554158Y402442D01*
X553716Y401780D01*
X553561Y401000D01*
X553680Y400399D01*
X552607Y399326D01*
X552500Y399166D01*
X552000Y399318D01*
Y404823D01*
X552965D01*
Y408579D01*
X553965D01*
Y404823D01*
D02*
G37*
G36*
X567741Y397937D02*
X567647Y398005D01*
X567537Y398039D01*
X567410D01*
X567265Y398005D01*
X567104Y397937D01*
X566926Y397835D01*
X566731Y397700D01*
X566519Y397530D01*
X566044Y397089D01*
X565195Y397937D01*
X565433Y398183D01*
X565806Y398624D01*
X565942Y398820D01*
X566044Y398998D01*
X566111Y399159D01*
X566145Y399303D01*
Y399431D01*
X566111Y399541D01*
X566044Y399634D01*
X567741Y397937D01*
D02*
G37*
G36*
X585106Y398458D02*
X585124Y398252D01*
X585154Y398070D01*
X585196Y397912D01*
X585250Y397779D01*
X585316Y397670D01*
X585394Y397585D01*
X585484Y397524D01*
X585586Y397488D01*
X585700Y397476D01*
X583300D01*
X583414Y397488D01*
X583516Y397524D01*
X583606Y397585D01*
X583684Y397670D01*
X583750Y397779D01*
X583804Y397912D01*
X583846Y398070D01*
X583876Y398252D01*
X583894Y398458D01*
X583900Y398688D01*
X585100D01*
X585106Y398458D01*
D02*
G37*
G36*
X559410Y397803D02*
X559400Y397795D01*
X559373Y397770D01*
X558561Y396962D01*
X558137Y398235D01*
X558380Y398487D01*
X558790Y398964D01*
X558957Y399190D01*
X559098Y399406D01*
X559214Y399614D01*
X559304Y399813D01*
X559369Y400003D01*
X559408Y400184D01*
X559422Y400357D01*
X559410Y397803D01*
D02*
G37*
G36*
X557914Y396316D02*
X557835Y396235D01*
X557603Y395969D01*
X557566Y395916D01*
X557537Y395869D01*
X557516Y395827D01*
X557504Y395791D01*
X557500Y395760D01*
X556510Y396750D01*
X556541Y396754D01*
X556577Y396766D01*
X556619Y396787D01*
X556666Y396816D01*
X556719Y396853D01*
X556841Y396952D01*
X556985Y397085D01*
X557066Y397164D01*
X557914Y396316D01*
D02*
G37*
G36*
X561107Y391898D02*
X561013Y391966D01*
X560903Y392000D01*
X560776D01*
X560632Y391966D01*
X560470Y391898D01*
X560292Y391796D01*
X560097Y391660D01*
X559885Y391490D01*
X559410Y391049D01*
X558561Y391898D01*
X558799Y392144D01*
X559172Y392585D01*
X559308Y392780D01*
X559410Y392958D01*
X559478Y393120D01*
X559511Y393264D01*
Y393391D01*
X559478Y393501D01*
X559410Y393595D01*
X561107Y391898D01*
D02*
G37*
G36*
X569086Y392020D02*
X568984Y391984D01*
X568894Y391924D01*
X568816Y391840D01*
X568750Y391732D01*
X568696Y391600D01*
X568654Y391444D01*
X568624Y391264D01*
X568606Y391060D01*
X568600Y390832D01*
X567400D01*
X567394Y391060D01*
X567376Y391264D01*
X567346Y391444D01*
X567304Y391600D01*
X567250Y391732D01*
X567184Y391840D01*
X567106Y391924D01*
X567016Y391984D01*
X566914Y392020D01*
X566800Y392032D01*
X569200D01*
X569086Y392020D01*
D02*
G37*
G36*
X550086Y391012D02*
X549984Y390975D01*
X549894Y390915D01*
X549816Y390830D01*
X549750Y390721D01*
X549696Y390588D01*
X549654Y390430D01*
X549624Y390248D01*
X549606Y390042D01*
X549600Y389812D01*
X548400D01*
X548394Y390042D01*
X548376Y390248D01*
X548346Y390430D01*
X548304Y390588D01*
X548250Y390721D01*
X548184Y390830D01*
X548106Y390915D01*
X548016Y390975D01*
X547914Y391012D01*
X547800Y391024D01*
X550200D01*
X550086Y391012D01*
D02*
G37*
G36*
X556629Y391066D02*
X556896Y390833D01*
X556949Y390796D01*
X556996Y390767D01*
X557038Y390747D01*
X557074Y390734D01*
X557105Y390731D01*
X556115Y389741D01*
X556111Y389771D01*
X556099Y389808D01*
X556078Y389849D01*
X556049Y389897D01*
X556012Y389949D01*
X555912Y390072D01*
X555779Y390216D01*
X555700Y390296D01*
X556549Y391145D01*
X556629Y391066D01*
D02*
G37*
G36*
X558539Y390178D02*
X558459Y390098D01*
X558184Y389787D01*
X558154Y389744D01*
X558131Y389706D01*
X558117Y389675D01*
X558111Y389650D01*
X557215Y390725D01*
X557249Y390727D01*
X557288Y390736D01*
X557333Y390755D01*
X557382Y390782D01*
X557437Y390817D01*
X557497Y390861D01*
X557632Y390975D01*
X557787Y391124D01*
X558539Y390178D01*
D02*
G37*
G36*
X577586Y390012D02*
X577484Y389976D01*
X577394Y389915D01*
X577316Y389830D01*
X577250Y389721D01*
X577196Y389588D01*
X577154Y389430D01*
X577124Y389248D01*
X577106Y389042D01*
X577100Y388812D01*
X575900D01*
X575894Y389042D01*
X575876Y389248D01*
X575846Y389430D01*
X575804Y389588D01*
X575750Y389721D01*
X575684Y389830D01*
X575606Y389915D01*
X575516Y389976D01*
X575414Y390012D01*
X575300Y390024D01*
X577700D01*
X577586Y390012D01*
D02*
G37*
G36*
X549606Y388960D02*
X549624Y388756D01*
X549654Y388576D01*
X549696Y388420D01*
X549750Y388288D01*
X549816Y388180D01*
X549894Y388096D01*
X549984Y388036D01*
X550086Y388000D01*
X550200Y387988D01*
X547800D01*
X547914Y388000D01*
X548016Y388036D01*
X548106Y388096D01*
X548184Y388180D01*
X548250Y388288D01*
X548304Y388420D01*
X548346Y388576D01*
X548376Y388756D01*
X548394Y388960D01*
X548400Y389188D01*
X549600D01*
X549606Y388960D01*
D02*
G37*
G36*
X570374Y388877D02*
X570579Y388701D01*
X570635Y388663D01*
X570685Y388634D01*
X570730Y388615D01*
X570768Y388607D01*
X570800Y388608D01*
X570826Y388619D01*
X570531Y387305D01*
X569568Y387983D01*
X570293Y388955D01*
X570374Y388877D01*
D02*
G37*
G36*
X561030Y388452D02*
X561051Y388450D01*
X561329Y388445D01*
X561636Y388444D01*
X562035Y387244D01*
X561923Y387243D01*
X561647Y387221D01*
X561575Y387207D01*
X561513Y387191D01*
X561460Y387172D01*
X561418Y387149D01*
X561386Y387124D01*
X561364Y387096D01*
X561021Y388453D01*
X561030Y388452D01*
D02*
G37*
G36*
X591181Y386761D02*
X591164Y386727D01*
X591149Y386683D01*
X591136Y386629D01*
X591125Y386565D01*
X591109Y386409D01*
X591101Y386213D01*
X591100Y386100D01*
X589900D01*
X589899Y386213D01*
X589875Y386565D01*
X589864Y386629D01*
X589851Y386683D01*
X589836Y386727D01*
X589819Y386761D01*
X589800Y386786D01*
X591200D01*
X591181Y386761D01*
D02*
G37*
G36*
X546524Y384300D02*
X546512Y384414D01*
X546476Y384516D01*
X546415Y384606D01*
X546330Y384684D01*
X546221Y384750D01*
X546088Y384804D01*
X545930Y384846D01*
X545748Y384876D01*
X545542Y384894D01*
X545312Y384900D01*
Y386100D01*
X545542Y386106D01*
X545748Y386124D01*
X545930Y386154D01*
X546088Y386196D01*
X546221Y386250D01*
X546330Y386316D01*
X546415Y386394D01*
X546476Y386484D01*
X546512Y386586D01*
X546524Y386700D01*
Y384300D01*
D02*
G37*
G36*
X541941Y386586D02*
X541977Y386484D01*
X542038Y386394D01*
X542123Y386316D01*
X542232Y386250D01*
X542365Y386196D01*
X542523Y386154D01*
X542704Y386124D01*
X542910Y386106D01*
X543141Y386100D01*
Y384900D01*
X542910Y384894D01*
X542704Y384876D01*
X542523Y384846D01*
X542365Y384804D01*
X542232Y384750D01*
X542123Y384684D01*
X542038Y384606D01*
X541977Y384516D01*
X541941Y384414D01*
X541929Y384300D01*
Y386700D01*
X541941Y386586D01*
D02*
G37*
G36*
X566760Y381911D02*
X565939Y381156D01*
X565363Y382432D01*
X565397Y382424D01*
X565437Y382426D01*
X565481Y382438D01*
X565531Y382458D01*
X565585Y382489D01*
X565645Y382529D01*
X565710Y382578D01*
X565855Y382706D01*
X565935Y382784D01*
X566760Y381911D01*
D02*
G37*
G36*
X586805Y381047D02*
X586567Y380801D01*
X586194Y380360D01*
X586058Y380165D01*
X585956Y379986D01*
X585889Y379825D01*
X585855Y379681D01*
Y379554D01*
X585889Y379443D01*
X585956Y379350D01*
X584259Y381047D01*
X584353Y380979D01*
X584463Y380945D01*
X584590D01*
X584735Y380979D01*
X584896Y381047D01*
X585074Y381149D01*
X585269Y381285D01*
X585481Y381454D01*
X585956Y381896D01*
X586805Y381047D01*
D02*
G37*
G36*
X577846Y381743D02*
X577863Y381539D01*
X577891Y381359D01*
X577931Y381203D01*
X577983Y381071D01*
X578045Y380963D01*
X578119Y380879D01*
X578204Y380819D01*
X578301Y380783D01*
X578409Y380771D01*
X576071D01*
X576179Y380783D01*
X576276Y380819D01*
X576361Y380879D01*
X576435Y380963D01*
X576498Y381071D01*
X576549Y381203D01*
X576589Y381359D01*
X576617Y381539D01*
X576635Y381743D01*
X576640Y381971D01*
X577840D01*
X577846Y381743D01*
D02*
G37*
G36*
X582056Y377221D02*
X582043Y377335D01*
X582007Y377437D01*
X581946Y377527D01*
X581862Y377605D01*
X581752Y377671D01*
X581619Y377725D01*
X581462Y377767D01*
X581280Y377797D01*
X581074Y377815D01*
X580843Y377821D01*
Y379021D01*
X581074Y379027D01*
X581280Y379045D01*
X581462Y379075D01*
X581619Y379117D01*
X581752Y379171D01*
X581862Y379237D01*
X581946Y379315D01*
X582007Y379405D01*
X582043Y379507D01*
X582056Y379621D01*
Y377221D01*
D02*
G37*
G36*
X578421Y379507D02*
X578457Y379405D01*
X578517Y379315D01*
X578601Y379237D01*
X578709Y379171D01*
X578841Y379117D01*
X578997Y379075D01*
X579177Y379045D01*
X579381Y379027D01*
X579609Y379021D01*
Y377821D01*
X579381Y377815D01*
X579177Y377797D01*
X578997Y377767D01*
X578841Y377725D01*
X578709Y377671D01*
X578601Y377605D01*
X578517Y377527D01*
X578457Y377437D01*
X578421Y377335D01*
X578409Y377221D01*
Y379621D01*
X578421Y379507D01*
D02*
G37*
G36*
X566023Y371819D02*
X565921Y371783D01*
X565831Y371723D01*
X565753Y371639D01*
X565687Y371531D01*
X565633Y371399D01*
X565591Y371243D01*
X565561Y371063D01*
X565543Y370859D01*
X565537Y370631D01*
X564337D01*
X564331Y370859D01*
X564313Y371063D01*
X564283Y371243D01*
X564241Y371399D01*
X564187Y371531D01*
X564121Y371639D01*
X564043Y371723D01*
X563953Y371783D01*
X563851Y371819D01*
X563737Y371831D01*
X566137D01*
X566023Y371819D01*
D02*
G37*
G36*
X559277Y370429D02*
X559039Y370182D01*
X558663Y369739D01*
X558526Y369544D01*
X558423Y369365D01*
X558354Y369204D01*
X558319Y369060D01*
X558318Y368934D01*
X558350Y368824D01*
X558417Y368732D01*
X557063Y370086D01*
X555709Y368732D01*
X555776Y368824D01*
X555808Y368934D01*
X555807Y369060D01*
X555772Y369204D01*
X555703Y369365D01*
X555600Y369544D01*
X555463Y369739D01*
X555292Y369952D01*
X554848Y370429D01*
X555697Y371277D01*
X555944Y371039D01*
X556387Y370663D01*
X556582Y370526D01*
X556761Y370423D01*
X556922Y370354D01*
X557063Y370319D01*
X557204Y370354D01*
X557365Y370423D01*
X557544Y370526D01*
X557739Y370663D01*
X557952Y370834D01*
X558429Y371277D01*
X559277Y370429D01*
D02*
G37*
G36*
X545461Y370889D02*
X545473Y369102D01*
X545460Y369215D01*
X545423Y369318D01*
X545362Y369408D01*
X545277Y369485D01*
X545168Y369551D01*
X545035Y369605D01*
X544877Y369648D01*
X544696Y369677D01*
X544490Y369695D01*
X544261Y369702D01*
Y370901D01*
X545461Y370889D01*
D02*
G37*
G36*
X541101Y371883D02*
X541543Y371495D01*
X541762Y371338D01*
X541979Y371204D01*
X542194Y371095D01*
X542408Y371010D01*
X542620Y370950D01*
X542831Y370914D01*
X543040Y370901D01*
X543005Y369702D01*
X542800Y369690D01*
X542591Y369655D01*
X542378Y369596D01*
X542161Y369514D01*
X541940Y369409D01*
X541715Y369280D01*
X541486Y369128D01*
X541254Y368953D01*
X541017Y368754D01*
X540776Y368532D01*
X540877Y372113D01*
X541101Y371883D01*
D02*
G37*
G36*
X568603Y367379D02*
X568591Y367493D01*
X568554Y367595D01*
X568494Y367685D01*
X568409Y367763D01*
X568300Y367829D01*
X568166Y367883D01*
X568009Y367925D01*
X567827Y367955D01*
X567621Y367973D01*
X567391Y367979D01*
Y369179D01*
X567621Y369185D01*
X567827Y369203D01*
X568009Y369233D01*
X568166Y369275D01*
X568300Y369329D01*
X568409Y369395D01*
X568494Y369473D01*
X568554Y369563D01*
X568591Y369665D01*
X568603Y369779D01*
Y367379D01*
D02*
G37*
G36*
X578421Y369586D02*
X578457Y369484D01*
X578517Y369394D01*
X578601Y369316D01*
X578709Y369250D01*
X578841Y369196D01*
X578997Y369154D01*
X579177Y369124D01*
X579381Y369106D01*
X579609Y369100D01*
Y367900D01*
X579381Y367894D01*
X579177Y367876D01*
X578997Y367846D01*
X578841Y367804D01*
X578709Y367750D01*
X578601Y367684D01*
X578517Y367606D01*
X578457Y367516D01*
X578421Y367414D01*
X578409Y367300D01*
Y369700D01*
X578421Y369586D01*
D02*
G37*
G36*
X605862Y367492D02*
X605760Y367456D01*
X605670Y367395D01*
X605592Y367310D01*
X605526Y367201D01*
X605472Y367068D01*
X605430Y366910D01*
X605400Y366729D01*
X605382Y366523D01*
X605376Y366292D01*
X604176D01*
X604170Y366523D01*
X604152Y366729D01*
X604122Y366910D01*
X604080Y367068D01*
X604026Y367201D01*
X603960Y367310D01*
X603882Y367395D01*
X603792Y367456D01*
X603690Y367492D01*
X603576Y367504D01*
X605976D01*
X605862Y367492D01*
D02*
G37*
G36*
X582044Y368014D02*
X582111Y368175D01*
X582145Y368319D01*
Y368446D01*
X582111Y368557D01*
X582044Y368650D01*
X583729Y366965D01*
X584953D01*
X584886Y366955D01*
X584826Y366926D01*
X584773Y366878D01*
X584727Y366811D01*
X584688Y366724D01*
X584656Y366618D01*
X584632Y366492D01*
X584614Y366347D01*
X584604Y366183D01*
X584600Y366000D01*
X583400D01*
X583396Y366183D01*
X583368Y366492D01*
X583344Y366618D01*
X583312Y366724D01*
X583273Y366811D01*
X583227Y366878D01*
X583174Y366926D01*
X583114Y366955D01*
X583111Y366956D01*
X583104Y366953D01*
X582926Y366851D01*
X582731Y366715D01*
X582519Y366546D01*
X582044Y366104D01*
X581195Y366953D01*
X581433Y367199D01*
X581806Y367640D01*
X581841Y367690D01*
X581743Y367750D01*
X581611Y367804D01*
X581456Y367846D01*
X581276Y367876D01*
X581072Y367894D01*
X580843Y367900D01*
Y369100D01*
X581072Y369106D01*
X581276Y369124D01*
X581456Y369154D01*
X581611Y369196D01*
X581743Y369250D01*
X581851Y369316D01*
X581936Y369394D01*
X581995Y369484D01*
X582031Y369586D01*
X582044Y369700D01*
Y368014D01*
D02*
G37*
G36*
X551551Y365586D02*
X551587Y365484D01*
X551647Y365394D01*
X551731Y365316D01*
X551839Y365250D01*
X551971Y365196D01*
X552127Y365154D01*
X552307Y365124D01*
X552511Y365106D01*
X552739Y365100D01*
Y363900D01*
X552511Y363894D01*
X552307Y363876D01*
X552127Y363846D01*
X551971Y363804D01*
X551839Y363750D01*
X551731Y363684D01*
X551647Y363606D01*
X551587Y363516D01*
X551551Y363414D01*
X551539Y363300D01*
Y365700D01*
X551551Y365586D01*
D02*
G37*
G36*
X605382Y363556D02*
X605400Y363350D01*
X605430Y363168D01*
X605472Y363011D01*
X605526Y362877D01*
X605592Y362768D01*
X605670Y362684D01*
X605760Y362623D01*
X605862Y362587D01*
X605976Y362574D01*
X603576D01*
X603690Y362587D01*
X603792Y362623D01*
X603882Y362684D01*
X603960Y362768D01*
X604026Y362877D01*
X604080Y363011D01*
X604122Y363168D01*
X604152Y363350D01*
X604170Y363556D01*
X604176Y363787D01*
X605376D01*
X605382Y363556D01*
D02*
G37*
G36*
X536734Y365631D02*
X536908Y365508D01*
X537100Y365400D01*
X537312Y365307D01*
X537542Y365228D01*
X537790Y365164D01*
X538058Y365116D01*
X538345Y365082D01*
X538650Y365063D01*
X538974Y365059D01*
X536441Y362526D01*
X536437Y362850D01*
X536384Y363442D01*
X536336Y363709D01*
X536272Y363958D01*
X536193Y364189D01*
X536100Y364400D01*
X535992Y364592D01*
X535869Y364766D01*
X535731Y364920D01*
X536580Y365769D01*
X536734Y365631D01*
D02*
G37*
G36*
X581786Y361300D02*
X581761Y361319D01*
X581727Y361336D01*
X581683Y361351D01*
X581629Y361364D01*
X581565Y361375D01*
X581409Y361391D01*
X581213Y361399D01*
X581100Y361400D01*
Y362600D01*
X581213Y362601D01*
X581565Y362625D01*
X581629Y362636D01*
X581683Y362649D01*
X581727Y362664D01*
X581761Y362681D01*
X581786Y362700D01*
Y361300D01*
D02*
G37*
G36*
X606016Y361086D02*
X606052Y360984D01*
X606112Y360894D01*
X606196Y360816D01*
X606304Y360750D01*
X606436Y360696D01*
X606592Y360654D01*
X606772Y360624D01*
X606976Y360606D01*
X607204Y360600D01*
Y359400D01*
X606976Y359394D01*
X606772Y359376D01*
X606592Y359346D01*
X606436Y359304D01*
X606304Y359250D01*
X606196Y359184D01*
X606112Y359106D01*
X606052Y359016D01*
X606016Y358914D01*
X606004Y358800D01*
Y361200D01*
X606016Y361086D01*
D02*
G37*
G36*
X574129Y357097D02*
X573798Y356715D01*
X573734Y356621D01*
X573694Y356545D01*
X573678Y356486D01*
X573686Y356443D01*
X573717Y356418D01*
X573771Y356409D01*
X570893D01*
X571063Y356418D01*
X571233Y356443D01*
X571402Y356486D01*
X571572Y356545D01*
X571742Y356621D01*
X571911Y356715D01*
X572081Y356825D01*
X572251Y356952D01*
X572421Y357097D01*
X572590Y357258D01*
X574287D01*
X574129Y357097D01*
D02*
G37*
G36*
X579428Y353612D02*
X579430Y353572D01*
X579442Y353527D01*
X579463Y353478D01*
X579494Y353423D01*
X579533Y353363D01*
X579583Y353298D01*
X579711Y353153D01*
X579789Y353073D01*
X578920Y352244D01*
X578165Y353058D01*
X579435Y353646D01*
X579428Y353612D01*
D02*
G37*
G36*
X580106Y351458D02*
X580124Y351252D01*
X580154Y351070D01*
X580196Y350912D01*
X580250Y350779D01*
X580316Y350670D01*
X580394Y350585D01*
X580484Y350524D01*
X580586Y350488D01*
X580700Y350476D01*
X578300D01*
X578414Y350488D01*
X578516Y350524D01*
X578606Y350585D01*
X578684Y350670D01*
X578750Y350779D01*
X578804Y350912D01*
X578846Y351070D01*
X578876Y351252D01*
X578894Y351458D01*
X578900Y351688D01*
X580100D01*
X580106Y351458D01*
D02*
G37*
G36*
X590388Y348086D02*
X590424Y347984D01*
X590485Y347894D01*
X590570Y347816D01*
X590679Y347750D01*
X590812Y347696D01*
X590970Y347654D01*
X591152Y347624D01*
X591358Y347606D01*
X591588Y347600D01*
Y346400D01*
X591358Y346394D01*
X591152Y346376D01*
X590970Y346346D01*
X590812Y346304D01*
X590679Y346250D01*
X590570Y346184D01*
X590485Y346106D01*
X590424Y346016D01*
X590388Y345914D01*
X590376Y345800D01*
Y348200D01*
X590388Y348086D01*
D02*
G37*
G36*
X615172Y345209D02*
X614940Y345435D01*
X614484Y345816D01*
X614261Y345971D01*
X614040Y346102D01*
X613822Y346209D01*
X613606Y346293D01*
X613394Y346352D01*
X613184Y346388D01*
X612977Y346400D01*
Y347600D01*
X613184Y347612D01*
X613394Y347648D01*
X613606Y347707D01*
X613822Y347791D01*
X614040Y347898D01*
X614261Y348029D01*
X614484Y348184D01*
X614711Y348362D01*
X614940Y348565D01*
X615172Y348791D01*
Y345209D01*
D02*
G37*
G36*
X580586Y345512D02*
X580484Y345476D01*
X580394Y345415D01*
X580316Y345330D01*
X580250Y345221D01*
X580196Y345088D01*
X580154Y344930D01*
X580124Y344748D01*
X580106Y344542D01*
X580100Y344312D01*
X578900D01*
X578894Y344542D01*
X578876Y344748D01*
X578846Y344930D01*
X578804Y345088D01*
X578750Y345221D01*
X578684Y345330D01*
X578606Y345415D01*
X578516Y345476D01*
X578414Y345512D01*
X578300Y345524D01*
X580700D01*
X580586Y345512D01*
D02*
G37*
G36*
X580106Y343458D02*
X580124Y343252D01*
X580154Y343070D01*
X580196Y342912D01*
X580250Y342779D01*
X580316Y342670D01*
X580394Y342585D01*
X580484Y342525D01*
X580586Y342488D01*
X580700Y342476D01*
X578300D01*
X578414Y342488D01*
X578516Y342525D01*
X578606Y342585D01*
X578684Y342670D01*
X578750Y342779D01*
X578804Y342912D01*
X578846Y343070D01*
X578876Y343252D01*
X578894Y343458D01*
X578900Y343688D01*
X580100D01*
X580106Y343458D01*
D02*
G37*
G36*
X615172Y337335D02*
X614940Y337561D01*
X614484Y337942D01*
X614261Y338097D01*
X614040Y338228D01*
X613822Y338335D01*
X613606Y338419D01*
X613394Y338478D01*
X613184Y338514D01*
X612977Y338526D01*
Y339726D01*
X613184Y339738D01*
X613394Y339774D01*
X613606Y339833D01*
X613822Y339917D01*
X614040Y340024D01*
X614261Y340155D01*
X614484Y340310D01*
X614711Y340489D01*
X614940Y340691D01*
X615172Y340917D01*
Y337335D01*
D02*
G37*
G36*
X614734Y334383D02*
X614908Y334260D01*
X615100Y334152D01*
X615311Y334059D01*
X615542Y333980D01*
X615791Y333916D01*
X616058Y333868D01*
X616345Y333834D01*
X616650Y333815D01*
X616974Y333811D01*
X614441Y331278D01*
X614437Y331602D01*
X614384Y332194D01*
X614335Y332462D01*
X614272Y332710D01*
X614193Y332941D01*
X614100Y333152D01*
X613992Y333344D01*
X613869Y333518D01*
X613731Y333672D01*
X614579Y334521D01*
X614734Y334383D01*
D02*
G37*
G36*
X596108Y333951D02*
X595945Y333781D01*
X595801Y333586D01*
X595676Y333365D01*
X595570Y333120D01*
X595482Y332850D01*
X595414Y332555D01*
X595365Y332235D01*
X595335Y331890D01*
X595323Y331520D01*
X595331Y331125D01*
X592268Y333999D01*
X592688Y334015D01*
X593445Y334089D01*
X593782Y334146D01*
X594092Y334216D01*
X594374Y334301D01*
X594629Y334399D01*
X594856Y334510D01*
X595056Y334635D01*
X595229Y334774D01*
X596108Y333951D01*
D02*
G37*
G36*
X604004Y330563D02*
X604061Y329827D01*
X604114Y329498D01*
X604183Y329196D01*
X604269Y328919D01*
X604371Y328668D01*
X604490Y328444D01*
X604624Y328245D01*
X604775Y328073D01*
X603927Y327224D01*
X603755Y327376D01*
X603556Y327510D01*
X603332Y327629D01*
X603081Y327731D01*
X602804Y327817D01*
X602502Y327886D01*
X602173Y327939D01*
X601818Y327976D01*
X601030Y328000D01*
X604000Y330970D01*
X604004Y330563D01*
D02*
G37*
G36*
X606039Y304248D02*
X604251Y304236D01*
X604365Y304249D01*
X604467Y304286D01*
X604557Y304347D01*
X604635Y304432D01*
X604701Y304541D01*
X604755Y304674D01*
X604797Y304832D01*
X604827Y305013D01*
X604845Y305218D01*
X604851Y305448D01*
X606051D01*
X606039Y304248D01*
D02*
G37*
G36*
X623769Y304420D02*
X623631Y304266D01*
X623508Y304092D01*
X623400Y303900D01*
X623307Y303689D01*
X623228Y303458D01*
X623165Y303209D01*
X623116Y302942D01*
X623082Y302655D01*
X623063Y302350D01*
X623059Y302026D01*
X620526Y304559D01*
X620850Y304563D01*
X621442Y304616D01*
X621709Y304664D01*
X621958Y304728D01*
X622189Y304807D01*
X622400Y304900D01*
X622592Y305008D01*
X622766Y305131D01*
X622921Y305269D01*
X623769Y304420D01*
D02*
G37*
G36*
X619182Y299806D02*
X619047Y299877D01*
X618912Y299928D01*
X618778Y299957D01*
X618645Y299965D01*
X618513Y299953D01*
X618382Y299919D01*
X618251Y299865D01*
X618121Y299789D01*
X617992Y299693D01*
X617864Y299576D01*
X617016Y300424D01*
X617184Y300601D01*
X617471Y300950D01*
X617589Y301123D01*
X617690Y301295D01*
X617774Y301466D01*
X617842Y301635D01*
X617893Y301804D01*
X617927Y301971D01*
X617945Y302138D01*
X619182Y299806D01*
D02*
G37*
G36*
X606039Y301086D02*
X606076Y300984D01*
X606136Y300894D01*
X606221Y300816D01*
X606330Y300750D01*
X606463Y300696D01*
X606621Y300654D01*
X606803Y300624D01*
X607009Y300606D01*
X607239Y300600D01*
Y299400D01*
X607009Y299394D01*
X606803Y299376D01*
X606621Y299346D01*
X606463Y299304D01*
X606330Y299250D01*
X606221Y299184D01*
X606136Y299106D01*
X606076Y299016D01*
X606039Y298914D01*
X606027Y298800D01*
Y301200D01*
X606039Y301086D01*
D02*
G37*
%LPC*%
G36*
X583537Y367055D02*
X583410D01*
X583265Y367021D01*
X583133Y366965D01*
X583724D01*
X583647Y367021D01*
X583537Y367055D01*
D02*
G37*
%LPD*%
G36*
X557705Y380284D02*
X557690Y380251D01*
X557676Y380207D01*
X557664Y380153D01*
X557654Y380090D01*
X557640Y379934D01*
X557632Y379737D01*
X557631Y379625D01*
X556431Y379577D01*
X556430Y379690D01*
X556404Y380043D01*
X556392Y380106D01*
X556378Y380160D01*
X556362Y380205D01*
X556344Y380239D01*
X556323Y380264D01*
X557722Y380308D01*
X557705Y380284D01*
D02*
G37*
G36*
X557638Y378879D02*
X557655Y378673D01*
X557686Y378491D01*
X557727Y378334D01*
X557782Y378200D01*
X557847Y378091D01*
X557926Y378006D01*
X558015Y377946D01*
X558117Y377909D01*
X558231Y377897D01*
X555831D01*
X555945Y377909D01*
X556047Y377946D01*
X556138Y378006D01*
X556215Y378091D01*
X556282Y378200D01*
X556335Y378334D01*
X556378Y378491D01*
X556407Y378673D01*
X556426Y378879D01*
X556431Y379109D01*
X557631D01*
X557638Y378879D01*
D02*
G37*
G36*
X605862Y384512D02*
X605760Y384475D01*
X605670Y384415D01*
X605592Y384330D01*
X605526Y384221D01*
X605472Y384088D01*
X605430Y383930D01*
X605400Y383748D01*
X605382Y383542D01*
X605376Y383312D01*
X604176D01*
X604170Y383542D01*
X604152Y383748D01*
X604122Y383930D01*
X604080Y384088D01*
X604026Y384221D01*
X603960Y384330D01*
X603882Y384415D01*
X603792Y384475D01*
X603690Y384512D01*
X603576Y384524D01*
X605976D01*
X605862Y384512D01*
D02*
G37*
G36*
X605382Y378477D02*
X605400Y378271D01*
X605430Y378090D01*
X605472Y377932D01*
X605526Y377799D01*
X605592Y377690D01*
X605670Y377605D01*
X605760Y377544D01*
X605862Y377508D01*
X605976Y377496D01*
X603576D01*
X603690Y377508D01*
X603792Y377544D01*
X603882Y377605D01*
X603960Y377690D01*
X604026Y377799D01*
X604080Y377932D01*
X604122Y378090D01*
X604152Y378271D01*
X604170Y378477D01*
X604176Y378708D01*
X605376D01*
X605382Y378477D01*
D02*
G37*
G36*
X618759Y367125D02*
X618512Y367344D01*
X618034Y367714D01*
X617802Y367864D01*
X617574Y367991D01*
X617352Y368095D01*
X617134Y368176D01*
X616958Y368224D01*
X616810Y368184D01*
X616678Y368130D01*
X616570Y368064D01*
X616486Y367986D01*
X616426Y367896D01*
X616390Y367794D01*
X616378Y367680D01*
Y370027D01*
X616390Y369923D01*
X616426Y369830D01*
X616486Y369748D01*
X616570Y369677D01*
X616678Y369617D01*
X616810Y369567D01*
X616916Y369542D01*
X617084Y369590D01*
X617296Y369676D01*
X617510Y369786D01*
X617724Y369920D01*
X617939Y370079D01*
X618155Y370263D01*
X618372Y370471D01*
X618590Y370704D01*
X618759Y367125D01*
D02*
G37*
G36*
X572186Y346591D02*
X572084Y346554D01*
X571994Y346494D01*
X571916Y346409D01*
X571850Y346300D01*
X571796Y346166D01*
X571754Y346009D01*
X571724Y345827D01*
X571706Y345621D01*
X571700Y345391D01*
X570500D01*
X570494Y345621D01*
X570476Y345827D01*
X570446Y346009D01*
X570404Y346166D01*
X570350Y346300D01*
X570284Y346409D01*
X570206Y346494D01*
X570116Y346554D01*
X570014Y346591D01*
X569900Y346603D01*
X572300D01*
X572186Y346591D01*
D02*
G37*
G36*
X571706Y343458D02*
X571724Y343252D01*
X571754Y343070D01*
X571796Y342912D01*
X571850Y342779D01*
X571916Y342670D01*
X571994Y342585D01*
X572084Y342525D01*
X572186Y342488D01*
X572300Y342476D01*
X569900D01*
X570014Y342488D01*
X570116Y342525D01*
X570206Y342585D01*
X570284Y342670D01*
X570350Y342779D01*
X570404Y342912D01*
X570446Y343070D01*
X570476Y343252D01*
X570494Y343458D01*
X570500Y343688D01*
X571700D01*
X571706Y343458D01*
D02*
G37*
G36*
X563669Y329789D02*
X563749Y328669D01*
X563786Y328489D01*
X563829Y328349D01*
X563879Y328249D01*
X563936Y328189D01*
X564000Y328169D01*
X561662D01*
X561665Y330169D01*
X563665D01*
X563669Y329789D01*
D02*
G37*
G36*
X564020Y328137D02*
X564080Y328108D01*
X564180Y328083D01*
X564320Y328061D01*
X564500Y328042D01*
X565280Y328007D01*
X566000Y328000D01*
Y326000D01*
X565620Y325998D01*
X564080Y325892D01*
X564020Y325863D01*
X564000Y325831D01*
Y328169D01*
X564020Y328137D01*
D02*
G37*
G36*
X550310Y346102D02*
X550140Y346042D01*
X549990Y345941D01*
X549860Y345801D01*
X549750Y345620D01*
X549660Y345398D01*
X549590Y345137D01*
X549540Y344835D01*
X549510Y344493D01*
X549500Y344110D01*
X547500D01*
X547490Y344493D01*
X547460Y344835D01*
X547410Y345137D01*
X547340Y345398D01*
X547250Y345620D01*
X547140Y345801D01*
X547010Y345941D01*
X546860Y346042D01*
X546690Y346102D01*
X546500Y346123D01*
X550500D01*
X550310Y346102D01*
D02*
G37*
G36*
X553000Y325831D02*
X552980Y325863D01*
X552920Y325892D01*
X552820Y325917D01*
X552680Y325939D01*
X552500Y325958D01*
X551720Y325993D01*
X551000Y326000D01*
Y328000D01*
X551380Y328002D01*
X552920Y328108D01*
X552980Y328137D01*
X553000Y328169D01*
Y325831D01*
D02*
G37*
G36*
X543492Y310496D02*
X543472Y310678D01*
X543412Y310841D01*
X543312Y310984D01*
X543172Y311108D01*
X542992Y311214D01*
X542772Y311300D01*
X542512Y311367D01*
X542212Y311415D01*
X541872Y311443D01*
X541492Y311453D01*
Y313453D01*
X541872Y313462D01*
X542212Y313491D01*
X542512Y313539D01*
X542772Y313606D01*
X542992Y313692D01*
X543172Y313797D01*
X543312Y313921D01*
X543412Y314065D01*
X543472Y314228D01*
X543492Y314409D01*
Y310496D01*
D02*
G37*
G36*
X548595Y313294D02*
X548656Y313124D01*
X548757Y312974D01*
X548898Y312844D01*
X549080Y312734D01*
X549301Y312644D01*
X549562Y312574D01*
X549863Y312524D01*
X550205Y312494D01*
X550586Y312484D01*
Y310484D01*
X548586Y310496D01*
X548574Y313484D01*
X548595Y313294D01*
D02*
G37*
G36*
X553112Y309388D02*
X553101Y309409D01*
X553067Y309428D01*
X553012Y309445D01*
X552934Y309460D01*
X552834Y309472D01*
X552567Y309490D01*
X552000Y309500D01*
Y311500D01*
X552211Y311501D01*
X553012Y311555D01*
X553067Y311572D01*
X553101Y311591D01*
X553112Y311612D01*
Y309388D01*
D02*
G37*
G36*
X555235Y310178D02*
X555235Y310073D01*
X555275Y309940D01*
X555357Y309779D01*
X555479Y309589D01*
X555642Y309371D01*
X556090Y308849D01*
X556702Y308212D01*
X555288Y306798D01*
X554955Y307124D01*
X553911Y308021D01*
X553721Y308143D01*
X553560Y308225D01*
X553427Y308265D01*
X553322Y308265D01*
X553247Y308224D01*
X555276Y310253D01*
X555235Y310178D01*
D02*
G37*
G36*
X584449Y322310D02*
X584509Y322140D01*
X584610Y321990D01*
X584751Y321860D01*
X584932Y321750D01*
X585153Y321660D01*
X585415Y321590D01*
X585716Y321540D01*
X586059Y321510D01*
X586441Y321500D01*
Y319500D01*
X586059Y319490D01*
X585716Y319460D01*
X585415Y319410D01*
X585153Y319340D01*
X584932Y319250D01*
X584751Y319140D01*
X584610Y319010D01*
X584509Y318860D01*
X584449Y318690D01*
X584429Y318500D01*
Y322500D01*
X584449Y322310D01*
D02*
G37*
G36*
X578571Y318317D02*
X578551Y318507D01*
X578491Y318677D01*
X578390Y318827D01*
X578249Y318957D01*
X578068Y319067D01*
X577847Y319157D01*
X577585Y319227D01*
X577284Y319277D01*
X576941Y319307D01*
X576559Y319317D01*
Y321317D01*
X576941Y321327D01*
X577284Y321357D01*
X577585Y321407D01*
X577847Y321477D01*
X578068Y321567D01*
X578249Y321677D01*
X578390Y321807D01*
X578491Y321957D01*
X578551Y322127D01*
X578571Y322317D01*
Y318317D01*
D02*
G37*
G36*
X572067Y321835D02*
X572127Y321726D01*
X572227Y321630D01*
X572367Y321547D01*
X572547Y321477D01*
X572767Y321419D01*
X573027Y321375D01*
X573327Y321342D01*
X574047Y321317D01*
Y319317D01*
X573665Y319307D01*
X573324Y319277D01*
X573022Y319227D01*
X572761Y319157D01*
X572540Y319067D01*
X572359Y318957D01*
X572218Y318827D01*
X572117Y318677D01*
X572056Y318507D01*
X572035Y318317D01*
X572047Y321956D01*
X572067Y321835D01*
D02*
G37*
G36*
X566965Y318150D02*
X566944Y318340D01*
X566884Y318510D01*
X566783Y318660D01*
X566642Y318790D01*
X566460Y318900D01*
X566239Y318990D01*
X565978Y319060D01*
X565676Y319110D01*
X565335Y319140D01*
X564953Y319150D01*
Y321150D01*
X565333Y321158D01*
X565973Y321223D01*
X566233Y321279D01*
X566453Y321352D01*
X566633Y321440D01*
X566773Y321545D01*
X566873Y321666D01*
X566933Y321803D01*
X566953Y321956D01*
X566965Y318150D01*
D02*
G37*
G36*
X562896Y321960D02*
X562956Y321790D01*
X563057Y321640D01*
X563198Y321510D01*
X563379Y321400D01*
X563600Y321310D01*
X563862Y321240D01*
X564164Y321190D01*
X564506Y321160D01*
X564888Y321150D01*
Y319150D01*
X564506Y319140D01*
X564164Y319110D01*
X563862Y319060D01*
X563600Y318990D01*
X563379Y318900D01*
X563198Y318790D01*
X563057Y318660D01*
X562956Y318510D01*
X562896Y318340D01*
X562876Y318150D01*
Y322150D01*
X562896Y321960D01*
D02*
G37*
G36*
X573501Y314909D02*
X573106Y314501D01*
X572597Y313902D01*
X572800Y313820D01*
X573062Y313750D01*
X573363Y313700D01*
X573705Y313669D01*
X574086Y313660D01*
Y311660D01*
X573706Y311653D01*
X573066Y311600D01*
X572807Y311553D01*
X572586Y311494D01*
X572406Y311421D01*
X572266Y311334D01*
X572166Y311235D01*
X572107Y311122D01*
X572086Y310996D01*
X572079Y313134D01*
X571973Y312888D01*
X571915Y312651D01*
X571912Y312442D01*
X571965Y312262D01*
X572074Y312111D01*
X569288Y314897D01*
X569439Y314788D01*
X569619Y314735D01*
X569828Y314737D01*
X570065Y314796D01*
X570330Y314911D01*
X570625Y315081D01*
X570947Y315308D01*
X571299Y315591D01*
X572086Y316323D01*
X573501Y314909D01*
D02*
G37*
G36*
X599961Y314000D02*
X599941Y314190D01*
X599881Y314360D01*
X599781Y314510D01*
X599641Y314640D01*
X599461Y314750D01*
X599241Y314840D01*
X598981Y314910D01*
X598681Y314960D01*
X598341Y314990D01*
X597961Y315000D01*
Y317000D01*
X598341Y317010D01*
X598681Y317040D01*
X598981Y317090D01*
X599241Y317160D01*
X599461Y317250D01*
X599641Y317360D01*
X599781Y317490D01*
X599881Y317640D01*
X599941Y317810D01*
X599961Y318000D01*
Y314000D01*
D02*
G37*
G36*
X578571Y310660D02*
X578551Y310849D01*
X578491Y311019D01*
X578390Y311170D01*
X578249Y311299D01*
X578068Y311409D01*
X577847Y311500D01*
X577585Y311569D01*
X577284Y311619D01*
X576941Y311649D01*
X576559Y311660D01*
Y313660D01*
X576941Y313669D01*
X577284Y313700D01*
X577585Y313750D01*
X577847Y313820D01*
X578068Y313910D01*
X578249Y314019D01*
X578390Y314149D01*
X578491Y314300D01*
X578551Y314470D01*
X578571Y314660D01*
Y310660D01*
D02*
G37*
G36*
X570187Y312166D02*
X570169Y312088D01*
X570153Y311973D01*
X570127Y311630D01*
X570116Y310996D01*
X570700D01*
X570586Y310984D01*
X570484Y310948D01*
X570394Y310888D01*
X570316Y310804D01*
X570250Y310696D01*
X570196Y310564D01*
X570154Y310408D01*
X570124Y310228D01*
X570106Y310024D01*
X570100Y309796D01*
X568900D01*
X568894Y310024D01*
X568876Y310228D01*
X568846Y310408D01*
X568804Y310564D01*
X568750Y310696D01*
X568684Y310804D01*
X568606Y310888D01*
X568516Y310948D01*
X568414Y310984D01*
X568300Y310996D01*
X568855D01*
X568792Y312207D01*
X570208D01*
X570187Y312166D01*
D02*
G37*
G36*
X570106Y307928D02*
X570124Y307724D01*
X570154Y307544D01*
X570196Y307388D01*
X570250Y307257D01*
X570316Y307149D01*
X570394Y307065D01*
X570484Y307004D01*
X570586Y306968D01*
X570700Y306957D01*
X568300D01*
X568414Y306968D01*
X568516Y307004D01*
X568606Y307065D01*
X568684Y307149D01*
X568750Y307257D01*
X568804Y307388D01*
X568846Y307544D01*
X568876Y307724D01*
X568894Y307928D01*
X568900Y308156D01*
X570100D01*
X570106Y307928D01*
D02*
G37*
G36*
X589144Y304059D02*
X589174Y303716D01*
X589224Y303415D01*
X589294Y303153D01*
X589384Y302932D01*
X589494Y302751D01*
X589624Y302610D01*
X589774Y302509D01*
X589944Y302449D01*
X590134Y302429D01*
X586134D01*
X586324Y302449D01*
X586494Y302509D01*
X586644Y302610D01*
X586774Y302751D01*
X586884Y302932D01*
X586974Y303153D01*
X587044Y303415D01*
X587094Y303716D01*
X587124Y304059D01*
X587134Y304441D01*
X589134D01*
X589144Y304059D01*
D02*
G37*
G36*
X541571Y305097D02*
X540461Y305056D01*
X540433Y306256D01*
X540545Y306257D01*
X540819Y306280D01*
X540890Y306294D01*
X540950Y306312D01*
X541000Y306332D01*
X541040Y306355D01*
X541069Y306382D01*
X541088Y306411D01*
X541571Y305097D01*
D02*
G37*
G36*
X539106Y303229D02*
X539124Y303023D01*
X539154Y302841D01*
X539196Y302684D01*
X539250Y302551D01*
X539316Y302442D01*
X539394Y302357D01*
X539484Y302296D01*
X539586Y302260D01*
X539700Y302248D01*
X537300D01*
X537414Y302260D01*
X537516Y302296D01*
X537606Y302357D01*
X537684Y302442D01*
X537750Y302551D01*
X537804Y302684D01*
X537846Y302841D01*
X537876Y303023D01*
X537894Y303229D01*
X537900Y303460D01*
X539100D01*
X539106Y303229D01*
D02*
G37*
G36*
X552017Y299300D02*
X552005Y299414D01*
X551968Y299516D01*
X551908Y299606D01*
X551823Y299684D01*
X551714Y299750D01*
X551580Y299804D01*
X551423Y299846D01*
X551241Y299876D01*
X551035Y299894D01*
X550805Y299900D01*
Y301100D01*
X551035Y301106D01*
X551241Y301124D01*
X551423Y301154D01*
X551580Y301196D01*
X551714Y301250D01*
X551823Y301316D01*
X551908Y301394D01*
X551968Y301484D01*
X552005Y301586D01*
X552017Y301700D01*
Y299300D01*
D02*
G37*
G36*
X548380Y301586D02*
X548416Y301484D01*
X548477Y301394D01*
X548562Y301316D01*
X548671Y301250D01*
X548804Y301196D01*
X548961Y301154D01*
X549143Y301124D01*
X549349Y301106D01*
X549580Y301100D01*
Y299900D01*
X549349Y299894D01*
X549143Y299876D01*
X548961Y299846D01*
X548804Y299804D01*
X548671Y299750D01*
X548562Y299684D01*
X548477Y299606D01*
X548416Y299516D01*
X548380Y299414D01*
X548368Y299300D01*
Y301700D01*
X548380Y301586D01*
D02*
G37*
G36*
X562815Y308200D02*
X562749Y308164D01*
X562691Y308104D01*
X562641Y308020D01*
X562599Y307912D01*
X562564Y307780D01*
X562537Y307624D01*
X562518Y307444D01*
X562502Y307012D01*
X561303D01*
X561297Y307240D01*
X561279Y307444D01*
X561249Y307624D01*
X561208Y307780D01*
X561155Y307912D01*
X561090Y308020D01*
X561013Y308104D01*
X560925Y308164D01*
X560824Y308200D01*
X560712Y308212D01*
X562888D01*
X562815Y308200D01*
D02*
G37*
G36*
X562504Y306390D02*
X562523Y306112D01*
X562534Y306038D01*
X562548Y305975D01*
X562564Y305921D01*
X562583Y305876D01*
X562604Y305842D01*
X562628Y305817D01*
X561236Y305673D01*
X561248Y305695D01*
X561260Y305726D01*
X561270Y305768D01*
X561278Y305820D01*
X561292Y305954D01*
X561300Y306130D01*
X561303Y306346D01*
X562502Y306502D01*
X562504Y306390D01*
D02*
G37*
D14*
X561366Y393460D02*
D03*
Y399366D02*
D03*
X568000Y393594D02*
D03*
Y399500D02*
D03*
D17*
X603100Y437823D02*
G03*
X602472Y438000I-628J-1023D01*
G01*
X603342Y437675D02*
G03*
X603966Y437500I624J1025D01*
G01*
X615351Y437149D02*
G03*
X614503Y437500I-848J-848D01*
G01*
X554185Y320315D02*
Y326985D01*
X557500Y420000D02*
Y429408D01*
X556345Y430563D02*
X557500Y429408D01*
X549408Y408579D02*
X553465D01*
X547987Y410000D02*
X549408Y408579D01*
X547500Y410000D02*
X547987D01*
X543500Y409000D02*
Y418797D01*
X547227Y403673D02*
X549000Y401900D01*
X543500Y409000D02*
X547227Y405273D01*
Y403673D02*
Y405273D01*
X610785Y424832D02*
X610874Y424921D01*
X608029Y424832D02*
X610785D01*
X603197Y420000D02*
X608029Y424832D01*
X603000Y420000D02*
X603197D01*
X595126Y424921D02*
X595215Y424832D01*
X597971D01*
X602803Y420000D01*
X603000D01*
X600047Y412224D02*
Y417047D01*
X603000Y420000D01*
X583295Y368205D02*
X584000Y368910D01*
X579591Y364500D02*
X583295Y368205D01*
X583500Y344500D02*
Y355000D01*
X586500Y358000D02*
Y363500D01*
X583500Y355000D02*
X586500Y358000D01*
X539203Y305656D02*
X541656D01*
X538500Y300500D02*
Y304953D01*
X539203Y305656D01*
X541656D02*
X542000Y306000D01*
X551702Y416659D02*
X551890Y416846D01*
X546859Y416659D02*
X551702D01*
X546600Y416400D02*
X546859Y416659D01*
X557031Y376772D02*
Y380968D01*
X557000Y381000D02*
X557031Y380968D01*
X560500Y387600D02*
X560744Y387844D01*
X563344D01*
X557115Y389731D02*
X557242D01*
X560972Y393460D01*
X553400Y393445D02*
X557115Y389731D01*
X565344Y381844D02*
X565844D01*
X567000Y383000D02*
X576537D01*
X565844Y381844D02*
X567000Y383000D01*
X571256Y387944D02*
X571400Y387800D01*
X570456Y387944D02*
X571256D01*
X563816Y384700D02*
X573700D01*
X561900Y382784D02*
X563816Y384700D01*
X573700D02*
X576500Y387500D01*
X577240Y378421D02*
Y382297D01*
X576537Y383000D02*
X577240Y382297D01*
X557260Y369260D02*
X561900Y373900D01*
Y382784D01*
X565000Y381500D02*
X565344Y381844D01*
X568000Y390400D02*
X570456Y387944D01*
X590500Y385591D02*
Y387500D01*
X584000Y378500D02*
Y379090D01*
X590500Y385591D01*
X577240Y378421D02*
X583921D01*
X584000Y378500D01*
X610000Y403000D02*
X619500D01*
X609500Y402500D02*
X610000Y403000D01*
X598000Y452000D02*
X599500Y453500D01*
X596500Y450500D02*
X598000Y452000D01*
X592411Y429411D02*
X593500Y430500D01*
X591322Y417715D02*
X592411Y418804D01*
Y429411D01*
X590947Y417715D02*
X591322D01*
X588110Y416846D02*
X590079D01*
X590947Y417715D01*
X607726Y407774D02*
X609500Y406000D01*
X605953Y409547D02*
X607726Y407774D01*
X592461Y408000D02*
Y412413D01*
Y402547D02*
Y408000D01*
X591751Y415079D02*
X595126D01*
X590266Y416564D02*
X591751Y415079D01*
X590266Y416564D02*
Y416659D01*
X590079Y416846D02*
X590266Y416659D01*
X603071Y300000D02*
X605451Y302380D01*
X603000Y299929D02*
X603071Y300000D01*
X601000Y331000D02*
X608500Y323500D01*
Y310000D02*
Y323500D01*
X605451Y302380D02*
Y306951D01*
X608500Y310000D01*
X592000Y331000D02*
X598000Y336500D01*
X611752D02*
X617000Y331252D01*
X598000Y336500D02*
X611752D01*
X571100Y340000D02*
Y347439D01*
X571421Y347760D01*
X579500Y340000D02*
Y348000D01*
X555600Y400733D02*
Y401000D01*
X553400Y398533D02*
X555600Y400733D01*
X553400Y393445D02*
Y398533D01*
X556500Y395750D02*
X559750Y399000D01*
X561000D02*
X561366Y399366D01*
X559750Y399000D02*
X561000D01*
X568000Y390400D02*
Y393594D01*
X564500Y389000D02*
Y396500D01*
X563344Y387844D02*
X564500Y389000D01*
Y396500D02*
X564606D01*
X567244Y399138D01*
Y408579D01*
X578500Y417500D02*
Y428163D01*
X574500Y428884D02*
X581754Y436138D01*
X574500Y414500D02*
Y428884D01*
X578500Y428163D02*
X583718Y433382D01*
X582500Y414500D02*
Y427359D01*
X584899Y429757D01*
X604776Y360768D02*
Y368760D01*
X604047Y360039D02*
X604776Y360768D01*
Y376240D02*
Y386876D01*
X604900Y387000D01*
X620380Y368880D02*
X620500Y369000D01*
X614345Y368880D02*
X620380D01*
X614224Y368760D02*
X614345Y368880D01*
X584000Y366000D02*
Y368910D01*
Y366000D02*
X586500Y363500D01*
X578181Y362000D02*
X582500D01*
X571421Y355240D02*
X578181Y362000D01*
X588874Y339126D02*
X617000D01*
X583500Y344500D02*
X588874Y339126D01*
X587900Y348000D02*
X588900Y347000D01*
X617000D01*
X551953Y430563D02*
X556345D01*
X592500Y438000D02*
X602472D01*
X583718Y433382D02*
X588110D01*
X581754Y436138D02*
X588110D01*
X585954Y430439D02*
X587923D01*
X585273Y429757D02*
X585954Y430439D01*
X584899Y429757D02*
X585273D01*
X551890Y430626D02*
X551953Y430563D01*
X551827D02*
X551890Y430626D01*
X587923Y430439D02*
X588110Y430626D01*
X557031Y376772D02*
X557063Y376740D01*
X544203Y419500D02*
X551787D01*
X543500Y418797D02*
X544203Y419500D01*
X557063Y369260D02*
X557260D01*
X548500Y366571D02*
X550571Y364500D01*
X548500Y366571D02*
Y367850D01*
X550571Y364500D02*
X579591D01*
X556866Y369260D02*
X557063D01*
X560972Y393460D02*
X561366D01*
X579500Y348000D02*
Y352513D01*
X578500Y353513D02*
X579500Y352513D01*
X578500Y353513D02*
Y354000D01*
X624159Y305659D02*
Y359297D01*
X604047Y360039D02*
X604087Y360000D01*
X611954D01*
X612751Y360797D01*
X622659D01*
X624159Y359297D01*
X620500Y302000D02*
X624159Y305659D01*
X619440Y302000D02*
X620500D01*
X617440Y300000D02*
X619440Y302000D01*
X603071Y300000D02*
X617440D01*
X561800Y310700D02*
X561903Y310597D01*
Y305137D02*
Y310597D01*
Y305137D02*
X562005Y305035D01*
X569500Y305000D02*
Y312913D01*
X546620Y300500D02*
X553496D01*
X576500Y387500D02*
Y392500D01*
X553126Y373000D02*
X556866Y369260D01*
X545000Y373000D02*
X553126D01*
X543967Y374033D02*
X545000Y373000D01*
X535341Y371890D02*
X537484Y374033D01*
X543967D01*
X535341Y366159D02*
X539000Y362500D01*
X535341Y366159D02*
Y371890D01*
X539000Y370374D02*
X539073Y370302D01*
X546049D01*
X548500Y367850D01*
X584000Y368910D02*
Y369500D01*
X577500Y368500D02*
X583000D01*
X577240Y368579D02*
X577421D01*
X577500Y368500D01*
X564937Y369282D02*
Y373000D01*
X565640Y368579D02*
X569760D01*
X564937Y369282D02*
X565640Y368579D01*
X549000Y385500D02*
Y393500D01*
X539000Y385500D02*
X549000D01*
X551787Y419500D02*
X551890Y419602D01*
X561366Y399366D02*
X561732Y399732D01*
Y408579D01*
X603500Y434000D02*
X608000D01*
X600047Y430547D02*
X603500Y434000D01*
X600047Y427776D02*
Y430547D01*
X607000Y453500D02*
X612000Y448500D01*
X599500Y453500D02*
X607000D01*
X596500Y446400D02*
Y450500D01*
X607961Y441047D02*
X608408Y440600D01*
X614208D01*
X619500Y443000D02*
X624000Y438500D01*
X614747Y443653D02*
X618847D01*
X619500Y443000D01*
X613500Y444900D02*
X614747Y443653D01*
X603966Y437500D02*
X614503D01*
X603100Y437823D02*
X603342Y437675D01*
X615351Y437149D02*
X619500Y433000D01*
X603500Y445000D02*
Y448400D01*
Y443000D02*
Y445000D01*
X603600Y444900D02*
X613500D01*
X603500Y445000D02*
X603600Y444900D01*
X603500Y448400D02*
X603600Y448500D01*
X588110Y441650D02*
X602150D01*
X603500Y443000D01*
X624000Y431000D02*
Y438500D01*
X607921Y427776D02*
X620776D01*
X624000Y431000D01*
X606656Y430932D02*
X612015D01*
X614083Y433000D02*
X619500D01*
X605953Y430229D02*
X606656Y430932D01*
X612015D02*
X614083Y433000D01*
X605953Y427776D02*
Y430229D01*
X588110Y438894D02*
X588298Y438706D01*
X591794D01*
X592500Y438000D01*
X600961Y402547D02*
X601000Y402587D01*
Y407000D01*
X602016Y408016D01*
Y412224D01*
X578268Y402668D02*
Y408579D01*
X576600Y401000D02*
X578268Y402668D01*
X576600Y401000D02*
X584500D01*
Y395000D02*
Y401000D01*
X576500Y400900D02*
X576600Y401000D01*
X538500Y429000D02*
X544000Y434500D01*
Y436810D01*
X548652Y441462D01*
X551702D01*
X551890Y441650D01*
X538500Y439000D02*
X543906Y444406D01*
X551890D01*
X538500Y449000D02*
X540339Y447161D01*
X551890D01*
X612000Y448500D02*
X612100Y448600D01*
X596500Y446400D02*
X596600Y446500D01*
X592461Y412413D02*
X595126Y415079D01*
X605953Y409547D02*
Y412224D01*
X609500Y402500D02*
Y406000D01*
D18*
X554169Y327000D02*
X554185Y326985D01*
Y320315D02*
X554200Y320300D01*
X538500Y321000D02*
X544000Y326500D01*
X538500Y319475D02*
Y321000D01*
X550900Y333500D02*
X560107D01*
X562665Y327165D02*
Y330942D01*
X560107Y333500D02*
X562665Y330942D01*
Y327165D02*
X562831Y327000D01*
X556309Y305691D02*
Y307191D01*
Y305691D02*
X556500Y305500D01*
X554200Y309300D02*
Y310600D01*
Y309300D02*
X556309Y307191D01*
X569500Y312913D02*
X569754Y312660D01*
X562831Y327000D02*
X568000D01*
X569539Y312953D02*
X570130D01*
X573486Y316309D01*
X575309D01*
X575500Y316500D01*
X581207Y312660D02*
X581500Y312366D01*
X569754Y312660D02*
X581207D01*
X569500Y320000D02*
X569817Y320317D01*
X581183D01*
X581500Y320634D01*
X581634Y320500D01*
X586500D01*
X588134Y299500D02*
Y318866D01*
X586500Y320500D02*
X588134Y318866D01*
X548500Y338000D02*
Y350429D01*
X535000Y318000D02*
Y324500D01*
X548500Y338000D01*
X540547Y312453D02*
X546039D01*
X535000Y318000D02*
X540547Y312453D01*
X544500Y326500D02*
X545000Y327000D01*
X554169D01*
X544000Y326500D02*
X544500D01*
X561800Y320250D02*
Y320300D01*
Y320250D02*
X561900Y320150D01*
X569350D01*
X569500Y320000D01*
X594000Y316000D02*
X602071D01*
X602571Y316500D01*
X603000Y316071D01*
X554100Y310500D02*
X554200Y310600D01*
Y310700D01*
X552000Y310500D02*
X554100D01*
X546039Y312453D02*
X547008Y311484D01*
X551016D01*
X552000Y310500D01*
D19*
X601000Y331000D02*
D03*
X575000D02*
D03*
X583667D02*
D03*
X592333D02*
D03*
D20*
X617000Y322984D02*
D03*
Y355268D02*
D03*
D21*
Y331252D02*
D03*
Y339126D02*
D03*
Y347000D02*
D03*
X539000Y345500D02*
D03*
Y337626D02*
D03*
Y370374D02*
D03*
Y362500D02*
D03*
X620500Y302000D02*
D03*
Y309874D02*
D03*
Y369000D02*
D03*
Y376874D02*
D03*
D22*
X619500Y443000D02*
D03*
Y433000D02*
D03*
Y423000D02*
D03*
Y413000D02*
D03*
Y403000D02*
D03*
X538500Y439000D02*
D03*
Y429000D02*
D03*
Y419000D02*
D03*
Y409000D02*
D03*
X539000Y395500D02*
D03*
D23*
X619500Y393000D02*
D03*
X538500Y449000D02*
D03*
X539000Y385500D02*
D03*
D24*
X557500Y420000D02*
D03*
X547500Y410000D02*
D03*
X611000Y388500D02*
D03*
X598500Y379500D02*
D03*
Y367500D02*
D03*
X585500Y337500D02*
D03*
X599000Y350500D02*
D03*
X601500Y324000D02*
D03*
X609500Y328500D02*
D03*
X617000Y296500D02*
D03*
X611500Y304500D02*
D03*
X593000Y322500D02*
D03*
X592000Y312000D02*
D03*
X576000Y325000D02*
D03*
Y307000D02*
D03*
X558000Y327000D02*
D03*
X582000Y358000D02*
D03*
X569500Y360500D02*
D03*
X569000Y373500D02*
D03*
X567500Y427500D02*
D03*
X542000Y306000D02*
D03*
X538500Y319475D02*
D03*
X546600Y416400D02*
D03*
X557000Y381000D02*
D03*
X560500Y387600D02*
D03*
X557115Y389731D02*
D03*
X571400Y387800D02*
D03*
X565000Y381500D02*
D03*
X590500Y387500D02*
D03*
X598000Y452000D02*
D03*
X593500Y430500D02*
D03*
X607726Y407774D02*
D03*
X592461Y408000D02*
D03*
X555600Y401000D02*
D03*
X556500Y395750D02*
D03*
X578500Y417500D02*
D03*
X574500Y414500D02*
D03*
X582500D02*
D03*
X582500Y362000D02*
D03*
X550900Y333500D02*
D03*
X568000Y327000D02*
D03*
X578500Y354000D02*
D03*
X556500Y305500D02*
D03*
X562005Y305035D02*
D03*
X575500Y316500D02*
D03*
X594000Y316000D02*
D03*
X614208Y440600D02*
D03*
D25*
X618500Y462500D02*
D03*
X540000D02*
D03*
D26*
X558583Y445783D02*
D03*
Y451295D02*
D03*
D27*
X551890Y453461D02*
D03*
X588110D02*
D03*
D28*
X551890Y449917D02*
D03*
Y447161D02*
D03*
Y444406D02*
D03*
Y441650D02*
D03*
Y438894D02*
D03*
Y436138D02*
D03*
Y433382D02*
D03*
Y430626D02*
D03*
Y427870D02*
D03*
Y425114D02*
D03*
Y422358D02*
D03*
Y419602D02*
D03*
Y416846D02*
D03*
Y414091D02*
D03*
X588110Y416846D02*
D03*
Y419602D02*
D03*
Y422358D02*
D03*
Y425114D02*
D03*
Y427870D02*
D03*
Y430626D02*
D03*
Y433382D02*
D03*
Y436138D02*
D03*
Y438894D02*
D03*
Y441650D02*
D03*
D29*
X553465Y408579D02*
D03*
X556220D02*
D03*
X558976D02*
D03*
X561732D02*
D03*
X564488D02*
D03*
X567244D02*
D03*
X570000D02*
D03*
X572756D02*
D03*
X575512D02*
D03*
X578268D02*
D03*
X581024D02*
D03*
X583780D02*
D03*
X586535D02*
D03*
D30*
X607961Y441047D02*
D03*
X608000Y434000D02*
D03*
X569539Y297953D02*
D03*
X569500Y305000D02*
D03*
Y320000D02*
D03*
X569539Y312953D02*
D03*
X546000Y319500D02*
D03*
X546039Y312453D02*
D03*
X592461Y402547D02*
D03*
X592500Y395500D02*
D03*
X609500Y402500D02*
D03*
X609539Y395453D02*
D03*
X601000Y395500D02*
D03*
X600961Y402547D02*
D03*
D31*
X603000Y420000D02*
D03*
D32*
X607921Y427776D02*
D03*
X605953D02*
D03*
X603984D02*
D03*
X602016D02*
D03*
X600047D02*
D03*
X598079D02*
D03*
Y412224D02*
D03*
X600047D02*
D03*
X602016D02*
D03*
X603984D02*
D03*
X605953D02*
D03*
X607921D02*
D03*
D33*
X595126Y424921D02*
D03*
Y422953D02*
D03*
Y420984D02*
D03*
Y419016D02*
D03*
Y417047D02*
D03*
Y415079D02*
D03*
X610874D02*
D03*
Y417047D02*
D03*
Y419016D02*
D03*
Y420984D02*
D03*
Y422953D02*
D03*
Y424921D02*
D03*
D34*
X576500Y392500D02*
D03*
Y400900D02*
D03*
X584500Y395000D02*
D03*
Y386600D02*
D03*
X549000Y377100D02*
D03*
Y385500D02*
D03*
Y393500D02*
D03*
Y401900D02*
D03*
X596500Y446400D02*
D03*
Y438000D02*
D03*
D35*
X577240Y378421D02*
D03*
X569760D02*
D03*
Y368579D02*
D03*
X573500D02*
D03*
X577240D02*
D03*
D36*
X604900Y387000D02*
D03*
X596500D02*
D03*
X587900Y348000D02*
D03*
X579500D02*
D03*
Y340000D02*
D03*
X571100D02*
D03*
X603600Y448500D02*
D03*
X612000D02*
D03*
D37*
X584000Y378500D02*
D03*
X591047Y378539D02*
D03*
Y369539D02*
D03*
X584000Y369500D02*
D03*
X597000Y360000D02*
D03*
X604047Y360039D02*
D03*
D38*
X548500Y350429D02*
D03*
Y366571D02*
D03*
X603000Y299929D02*
D03*
Y316071D02*
D03*
D39*
X571421Y355240D02*
D03*
Y347760D02*
D03*
X561579Y351500D02*
D03*
D40*
X562831Y327000D02*
D03*
X554169D02*
D03*
D41*
X560543Y300500D02*
D03*
X553496D02*
D03*
D42*
X538500D02*
D03*
X546620D02*
D03*
D43*
X581500Y320634D02*
D03*
Y312366D02*
D03*
D44*
X579866Y299500D02*
D03*
X588134D02*
D03*
D45*
X614224Y376240D02*
D03*
Y372500D02*
D03*
Y368760D02*
D03*
X604776D02*
D03*
Y376240D02*
D03*
D46*
X564937Y373000D02*
D03*
X557063Y376740D02*
D03*
Y369260D02*
D03*
D47*
X554200Y310700D02*
D03*
X561800D02*
D03*
Y320300D02*
D03*
X558000D02*
D03*
X554200D02*
D03*
M02*
