G04*
G04 #@! TF.GenerationSoftware,Altium Limited,Altium Designer,20.2.6 (244)*
G04*
G04 Layer_Color=65535*
%FSLAX25Y25*%
%MOIN*%
G70*
G04*
G04 #@! TF.SameCoordinates,8F5FEA60-E90C-4FE4-B264-904F0C7A51F9*
G04*
G04*
G04 #@! TF.FilePolarity,Positive*
G04*
G01*
G75*
%ADD10C,0.01000*%
%ADD11C,0.00787*%
%ADD12C,0.00600*%
%ADD13C,0.00394*%
D10*
X572467Y428246D02*
G03*
X584500Y434500I1533J11754D01*
G01*
D02*
G03*
X572500Y428500I-2500J-10000D01*
G01*
Y406934D02*
G03*
X584532Y406959I6000J7566D01*
G01*
X584500Y407000D02*
Y434500D01*
X572500Y407000D02*
Y428246D01*
X559000Y396500D02*
X570000D01*
X605940Y411000D02*
Y414936D01*
X607908D01*
X608564Y414280D01*
Y412968D01*
X607908Y412312D01*
X605940D01*
X607252D02*
X608564Y411000D01*
X609876Y414936D02*
X612500Y411000D01*
Y414936D02*
X609876Y411000D01*
X604629Y394280D02*
X603973Y394936D01*
X602661D01*
X602005Y394280D01*
Y391656D01*
X602661Y391000D01*
X603973D01*
X604629Y391656D01*
Y392968D01*
X603317D01*
X605940Y391000D02*
Y394936D01*
X608564Y391000D01*
Y394936D01*
X609876D02*
Y391000D01*
X611844D01*
X612500Y391656D01*
Y394280D01*
X611844Y394936D01*
X609876D01*
X604629Y434280D02*
X603973Y434936D01*
X602661D01*
X602005Y434280D01*
Y433624D01*
X602661Y432968D01*
X603973D01*
X604629Y432312D01*
Y431656D01*
X603973Y431000D01*
X602661D01*
X602005Y431656D01*
X608564Y434280D02*
X607908Y434936D01*
X606596D01*
X605940Y434280D01*
Y431656D01*
X606596Y431000D01*
X607908D01*
X608564Y431656D01*
X609876Y434936D02*
Y431000D01*
X612500D01*
X548124Y440280D02*
X547468Y440936D01*
X546156D01*
X545500Y440280D01*
Y439624D01*
X546156Y438968D01*
X547468D01*
X548124Y438312D01*
Y437656D01*
X547468Y437000D01*
X546156D01*
X545500Y437656D01*
X549436Y440936D02*
Y437000D01*
X550748Y438312D01*
X552060Y437000D01*
Y440936D01*
X553371D02*
Y437000D01*
X555339D01*
X555995Y437656D01*
Y440280D01*
X555339Y440936D01*
X553371D01*
X557307D02*
X558619D01*
X557963D01*
Y437000D01*
X557307D01*
X558619D01*
X562555Y440936D02*
X561243D01*
X560587Y440280D01*
Y437656D01*
X561243Y437000D01*
X562555D01*
X563211Y437656D01*
Y440280D01*
X562555Y440936D01*
X604129Y444280D02*
X603473Y444936D01*
X602161D01*
X601505Y444280D01*
Y443624D01*
X602161Y442968D01*
X603473D01*
X604129Y442312D01*
Y441656D01*
X603473Y441000D01*
X602161D01*
X601505Y441656D01*
X605440Y444936D02*
Y441000D01*
X607408D01*
X608064Y441656D01*
Y444280D01*
X607408Y444936D01*
X605440D01*
X609376Y441000D02*
Y443624D01*
X610688Y444936D01*
X612000Y443624D01*
Y441000D01*
Y442968D01*
X609376D01*
X546000Y420936D02*
Y418312D01*
X547312Y417000D01*
X548624Y418312D01*
Y420936D01*
X552560Y420280D02*
X551904Y420936D01*
X550592D01*
X549936Y420280D01*
Y417656D01*
X550592Y417000D01*
X551904D01*
X552560Y417656D01*
X556495Y420280D02*
X555839Y420936D01*
X554527D01*
X553871Y420280D01*
Y417656D01*
X554527Y417000D01*
X555839D01*
X556495Y417656D01*
X548124Y410780D02*
X547468Y411436D01*
X546156D01*
X545500Y410780D01*
Y408156D01*
X546156Y407500D01*
X547468D01*
X548124Y408156D01*
Y409468D01*
X546812D01*
X549436Y407500D02*
Y411436D01*
X552060Y407500D01*
Y411436D01*
X553371D02*
Y407500D01*
X555339D01*
X555995Y408156D01*
Y410780D01*
X555339Y411436D01*
X553371D01*
X605940Y424936D02*
X608564D01*
X607252D01*
Y421000D01*
X609876Y424936D02*
X612500Y421000D01*
Y424936D02*
X609876Y421000D01*
X546000Y427000D02*
Y430936D01*
X547968D01*
X548624Y430280D01*
Y428968D01*
X547968Y428312D01*
X546000D01*
X547312D02*
X548624Y427000D01*
X552560Y430280D02*
X551904Y430936D01*
X550592D01*
X549936Y430280D01*
Y429624D01*
X550592Y428968D01*
X551904D01*
X552560Y428312D01*
Y427656D01*
X551904Y427000D01*
X550592D01*
X549936Y427656D01*
X553871Y430936D02*
X556495D01*
X555183D01*
Y427000D01*
X602005Y404436D02*
Y401812D01*
X603317Y400500D01*
X604629Y401812D01*
Y404436D01*
X608564Y403780D02*
X607908Y404436D01*
X606596D01*
X605940Y403780D01*
Y401156D01*
X606596Y400500D01*
X607908D01*
X608564Y401156D01*
X612500Y403780D02*
X611844Y404436D01*
X610532D01*
X609876Y403780D01*
Y401156D01*
X610532Y400500D01*
X611844D01*
X612500Y401156D01*
X547624Y450280D02*
X546968Y450936D01*
X545656D01*
X545000Y450280D01*
Y449624D01*
X545656Y448968D01*
X546968D01*
X547624Y448312D01*
Y447656D01*
X546968Y447000D01*
X545656D01*
X545000Y447656D01*
X548936Y450936D02*
Y447000D01*
X550248Y448312D01*
X551560Y447000D01*
Y450936D01*
X552872D02*
Y447000D01*
X554839D01*
X555495Y447656D01*
Y450280D01*
X554839Y450936D01*
X552872D01*
X556807D02*
X558119D01*
X557463D01*
Y447000D01*
X556807D01*
X558119D01*
X562055Y450936D02*
X560743D01*
X560087Y450280D01*
Y447656D01*
X560743Y447000D01*
X562055D01*
X562711Y447656D01*
Y450280D01*
X562055Y450936D01*
X596618Y319570D02*
X595962Y318434D01*
X595066Y318194D01*
X593930Y318850D01*
X593690Y319746D01*
X594346Y320882D01*
X595242Y321122D01*
X595810Y320794D01*
X594498Y318522D01*
X595330Y322586D02*
X598914Y323547D01*
X597122Y323067D01*
X596641Y324859D01*
X597602Y321274D01*
X597057Y326891D02*
X597625Y326563D01*
X597297Y325995D01*
X597953Y327131D01*
X597625Y326563D01*
X599330Y325579D01*
X600226Y325819D01*
X575726Y319834D02*
X579134Y317866D01*
X580118Y319570D01*
X579878Y320466D01*
X579310Y320794D01*
X578742Y321122D01*
X577846Y320882D01*
X576862Y319178D01*
X579157Y323154D02*
X579813Y324291D01*
X580710Y324531D01*
X582414Y323547D01*
X581430Y321843D01*
X580534Y321602D01*
X580294Y322498D01*
X581278Y324203D01*
X580557Y326891D02*
X581125Y326563D01*
X580797Y325995D01*
X581453Y327131D01*
X581125Y326563D01*
X582830Y325579D01*
X583726Y325819D01*
X582226Y316334D02*
X585634Y314366D01*
X586618Y316070D01*
X586378Y316966D01*
X585810Y317294D01*
X585242Y317622D01*
X584346Y317382D01*
X583362Y315678D01*
X588586Y319479D02*
X587930Y318342D01*
X587034Y318102D01*
X585898Y318758D01*
X585658Y319654D01*
X586313Y320791D01*
X587210Y321031D01*
X587778Y320703D01*
X586466Y318430D01*
X587297Y322495D02*
X590882Y323455D01*
X589089Y322975D01*
X588609Y324767D01*
X589570Y321183D01*
X589025Y326799D02*
X589593Y326471D01*
X589265Y325903D01*
X589921Y327039D01*
X589593Y326471D01*
X591297Y325487D01*
X592194Y325728D01*
X566037Y313606D02*
X565054Y311902D01*
X565294Y311006D01*
X566430Y310350D01*
X567326Y310590D01*
X568310Y312294D01*
X565557Y315398D02*
X568966Y313430D01*
X567262Y314414D01*
X567021Y315310D01*
X567677Y316447D01*
X568573Y316687D01*
X570278Y315703D01*
X568989Y318719D02*
X569645Y319855D01*
X570541Y320095D01*
X572246Y319111D01*
X571262Y317407D01*
X570365Y317167D01*
X570125Y318063D01*
X571109Y319767D01*
X570629Y321559D02*
X572901Y320247D01*
X571765Y320903D01*
X571525Y321799D01*
X571285Y322695D01*
X571613Y323264D01*
X576661Y324136D02*
X576989Y324704D01*
X576749Y325600D01*
X573909Y327240D01*
X572925Y325536D01*
X573165Y324640D01*
X574301Y323984D01*
X575197Y324224D01*
X576181Y325928D01*
X546876Y314468D02*
Y310532D01*
X549500D01*
X550812D02*
X552124D01*
X551468D01*
Y314468D01*
X550812Y313812D01*
X607468Y321929D02*
X603532D01*
Y323897D01*
X604188Y324553D01*
X605500D01*
X606156Y323897D01*
Y321929D01*
X607468Y325865D02*
X606812D01*
Y326521D01*
X607468D01*
Y325865D01*
X604188Y335704D02*
X603532Y335048D01*
Y333736D01*
X604188Y333080D01*
X604844D01*
X605500Y333736D01*
Y335048D01*
X606156Y335704D01*
X606812D01*
X607468Y335048D01*
Y333736D01*
X606812Y333080D01*
X604844Y337016D02*
X606812D01*
X607468Y337672D01*
X606812Y338328D01*
X607468Y338984D01*
X606812Y339640D01*
X604844D01*
X607468Y340952D02*
Y342264D01*
Y341608D01*
X604844D01*
Y340952D01*
X604188Y344888D02*
X604844D01*
Y344232D01*
Y345544D01*
Y344888D01*
X606812D01*
X607468Y345544D01*
X604844Y350135D02*
Y348167D01*
X605500Y347511D01*
X606812D01*
X607468Y348167D01*
Y350135D01*
X603532Y351447D02*
X607468D01*
X605500D01*
X604844Y352103D01*
Y353415D01*
X605500Y354071D01*
X607468D01*
X547532Y402167D02*
X550156D01*
X551468Y400855D01*
X550156Y399543D01*
X547532D01*
X549500D01*
Y402167D01*
X547532Y398232D02*
Y396920D01*
Y397576D01*
X550156D01*
Y398232D01*
X547532Y394952D02*
X550156D01*
Y394296D01*
X549500Y393640D01*
X547532D01*
X549500D01*
X550156Y392984D01*
X549500Y392328D01*
X547532D01*
X550156Y390360D02*
Y389048D01*
X549500Y388392D01*
X547532D01*
Y390360D01*
X548188Y391016D01*
X548844Y390360D01*
Y388392D01*
X547532Y387080D02*
X550156D01*
Y385112D01*
X549500Y384456D01*
X547532D01*
X550812Y382489D02*
X550156D01*
Y383145D01*
Y381833D01*
Y382489D01*
X548188D01*
X547532Y381833D01*
X570312Y377372D02*
X570968Y378027D01*
Y379339D01*
X570312Y379995D01*
X569656D01*
X569000Y379339D01*
Y378027D01*
X568344Y377372D01*
X567688D01*
X567032Y378027D01*
Y379339D01*
X567688Y379995D01*
X569656Y376060D02*
X567688D01*
X567032Y375404D01*
X567688Y374748D01*
X567032Y374092D01*
X567688Y373436D01*
X569656D01*
X567032Y372124D02*
Y370812D01*
Y371468D01*
X569656D01*
Y372124D01*
X570312Y368188D02*
X569656D01*
Y368844D01*
Y367532D01*
Y368188D01*
X567688D01*
X567032Y367532D01*
X569656Y362940D02*
Y364908D01*
X569000Y365564D01*
X567688D01*
X567032Y364908D01*
Y362940D01*
X570968Y361629D02*
X567032D01*
X569000D01*
X569656Y360973D01*
Y359661D01*
X569000Y359005D01*
X567032D01*
X590032Y295940D02*
X592656D01*
X593968Y297252D01*
X592656Y298564D01*
X590032D01*
X593968Y301844D02*
Y300532D01*
X593312Y299876D01*
X592000D01*
X591344Y300532D01*
Y301844D01*
X592000Y302500D01*
X592656D01*
Y299876D01*
X591344Y303812D02*
X593968Y306436D01*
X592656Y305124D01*
X591344Y306436D01*
X593968Y303812D01*
X590688Y308404D02*
X591344D01*
Y307748D01*
Y309060D01*
Y308404D01*
X593312D01*
X593968Y309060D01*
X546120Y459795D02*
Y464911D01*
X548678D01*
X549531Y464058D01*
Y462353D01*
X548678Y461500D01*
X546120D01*
X551236Y463205D02*
Y459795D01*
Y461500D01*
X552089Y462353D01*
X552942Y463205D01*
X553794D01*
X557205Y459795D02*
X558911D01*
X559764Y460647D01*
Y462353D01*
X558911Y463205D01*
X557205D01*
X556353Y462353D01*
Y460647D01*
X557205Y459795D01*
X563175Y458089D02*
X564027D01*
X564880Y458942D01*
Y463205D01*
X562322D01*
X561469Y462353D01*
Y460647D01*
X562322Y459795D01*
X564880D01*
X595473Y464058D02*
Y458942D01*
X598883D01*
X600589D02*
X602294D01*
X601442D01*
Y462353D01*
X600589D01*
X604853Y458942D02*
Y462353D01*
X607411D01*
X608264Y461500D01*
Y458942D01*
X609969D02*
Y464058D01*
Y460647D02*
X612527Y462353D01*
X609969Y460647D02*
X612527Y458942D01*
X590032Y368408D02*
X593968D01*
Y370376D01*
X593312Y371032D01*
X592656D01*
X592000Y370376D01*
Y368408D01*
Y370376D01*
X591344Y371032D01*
X590688D01*
X590032Y370376D01*
Y368408D01*
X591344Y373000D02*
Y374312D01*
X592000Y374968D01*
X593968D01*
Y373000D01*
X593312Y372344D01*
X592656Y373000D01*
Y374968D01*
X590688Y376936D02*
X591344D01*
Y376280D01*
Y377592D01*
Y376936D01*
X593312D01*
X593968Y377592D01*
X567032Y354479D02*
X569656D01*
X570968Y353167D01*
X569656Y351855D01*
X567032D01*
X569000D01*
Y354479D01*
X567032Y350543D02*
Y349232D01*
Y349887D01*
X570968D01*
Y350543D01*
X567032Y347264D02*
Y345952D01*
Y346608D01*
X569656D01*
Y347264D01*
X567032Y343984D02*
X569656D01*
Y343328D01*
X569000Y342672D01*
X567032D01*
X569000D01*
X569656Y342016D01*
X569000Y341360D01*
X567032D01*
X567688Y333489D02*
X570312D01*
X570968Y334145D01*
Y335456D01*
X570312Y336112D01*
X567688D01*
X567032Y335456D01*
Y334145D01*
X568344Y334801D02*
X567032Y333489D01*
Y334145D02*
X567688Y333489D01*
X567032Y332177D02*
X567688D01*
Y331521D01*
X567032D01*
Y332177D01*
D11*
X628340Y349295D02*
G03*
X628340Y349295I-391J0D01*
G01*
X531520Y337232D02*
G03*
X531520Y338020I0J394D01*
G01*
D02*
G03*
X531520Y337232I0J-394D01*
G01*
Y362106D02*
G03*
X531520Y362894I0J394D01*
G01*
D02*
G03*
X531520Y362106I0J-394D01*
G01*
X627980Y310268D02*
G03*
X627980Y309480I0J-394D01*
G01*
D02*
G03*
X627980Y310268I0J394D01*
G01*
Y377268D02*
G03*
X627980Y376480I0J-394D01*
G01*
D02*
G03*
X627980Y377268I0J394D01*
G01*
X608339Y322197D02*
Y356055D01*
X625661Y322197D02*
Y356055D01*
X614303Y448709D02*
X625248D01*
X614303Y387685D02*
X625248D01*
X614303D02*
Y448709D01*
X625248Y387685D02*
Y448709D01*
X533500Y455299D02*
X543500D01*
Y402543D02*
Y455299D01*
X533500Y402543D02*
Y455299D01*
Y402543D02*
X543500D01*
X533488Y379988D02*
X544512D01*
X533488Y401012D02*
X544512D01*
X533488Y379988D02*
Y401012D01*
X544512Y379988D02*
Y401012D01*
D12*
X564850Y296150D02*
Y306344D01*
X533150Y296150D02*
X564850D01*
X533150Y317656D02*
Y327850D01*
X564850D01*
X574800Y310500D02*
Y313500D01*
X573300Y312000D02*
X576300D01*
X533150Y296150D02*
Y306344D01*
X564850Y317656D02*
Y327850D01*
D13*
X533685Y329949D02*
Y331720D01*
Y329949D02*
X563606D01*
Y353177D01*
X533685D02*
X563606D01*
X533685Y351406D02*
Y353177D01*
Y354823D02*
Y356594D01*
Y354823D02*
X563606D01*
Y378051D01*
X533685D02*
X563606D01*
X533685Y376280D02*
Y378051D01*
X625815Y315780D02*
Y317551D01*
X595894D02*
X625815D01*
X595894Y294323D02*
Y317551D01*
Y294323D02*
X625815D01*
Y296094D01*
Y382780D02*
Y384551D01*
X595894D02*
X625815D01*
X595894Y361323D02*
Y384551D01*
Y361323D02*
X625815D01*
Y363094D01*
M02*
