M48
;Layer_Color=9474304
;FILE_FORMAT=2:5
INCH,LZ
;TYPE=PLATED
T1F00S00C0.02800
T2F00S00C0.03000
T3F00S00C0.03150
T4F00S00C0.03543
T5F00S00C0.05906
T6F00S00C0.09055
%
T01
X0576Y0307
X0592Y0312
X06115Y03045
X0617Y02965
X06095Y03285
X06015Y0324
X0593Y03225
X0576Y0325
X0558Y0327
X05855Y03375
X0582Y0358
X05695Y03605
X0569Y03735
X05985Y03795
Y03675
X0599Y03505
X0611Y03885
X05675Y04275
T02
X0542Y0306
X05565Y03055
X0562005Y0305035
X05755Y03165
X0575Y0331
X0583667
X0592333
X0601
X0594Y0316
X0568Y0327
X05509Y03335
X05385Y0319475
X05785Y0354
X05825Y0362
X05905Y03875
X05714Y03878
X05605Y03876
X0557115Y0389731
X05565Y039575
X05556Y0401
X05475Y041
X05466Y04164
X05575Y042
X05745Y04145
X05785Y04175
X05825Y04145
X0592461Y0408
X0607726Y0407774
X05935Y04305
X0598Y0452
X0614208Y04406
X0565Y03815
X0557Y0381
T03
X06205Y0302
Y0309874
X0617Y0331252
Y0339126
Y0347
X06205Y0369
Y0376874
X0539Y0370374
Y03625
Y03455
Y0337626
T04
X0539Y03855
Y03955
X05385Y0409
Y0419
Y0429
Y0439
Y0449
X06195Y0443
Y0433
Y0423
Y0413
Y0403
Y0393
T05
X0617Y0322984
Y0355268
T06
X054Y04625
X06185
M30
